G04*
G04 #@! TF.GenerationSoftware,Altium Limited,Altium Designer,25.3.3 (18)*
G04*
G04 Layer_Physical_Order=1*
G04 Layer_Color=255*
%FSLAX26Y26*%
%MOIN*%
G70*
G04*
G04 #@! TF.SameCoordinates,14895927-405C-4533-9FDA-7E114B43C09E*
G04*
G04*
G04 #@! TF.FilePolarity,Positive*
G04*
G01*
G75*
%ADD11C,0.010000*%
%ADD28R,0.072441X0.072441*%
%ADD29C,0.072441*%
G04:AMPARAMS|DCode=37|XSize=47.638mil|YSize=23.228mil|CornerRadius=5.807mil|HoleSize=0mil|Usage=FLASHONLY|Rotation=180.000|XOffset=0mil|YOffset=0mil|HoleType=Round|Shape=RoundedRectangle|*
%AMROUNDEDRECTD37*
21,1,0.047638,0.011614,0,0,180.0*
21,1,0.036024,0.023228,0,0,180.0*
1,1,0.011614,-0.018012,0.005807*
1,1,0.011614,0.018012,0.005807*
1,1,0.011614,0.018012,-0.005807*
1,1,0.011614,-0.018012,-0.005807*
%
%ADD37ROUNDEDRECTD37*%
%ADD38R,0.024016X0.050000*%
%ADD39R,0.024016X0.027953*%
%ADD40R,0.075197X0.012205*%
%ADD41R,0.065157X0.137795*%
%ADD42R,0.165354X0.118110*%
%ADD43R,0.017716X0.066929*%
%ADD44R,0.066929X0.043307*%
%ADD45R,0.017716X0.055118*%
%ADD46C,0.031000*%
%ADD47C,0.035000*%
%ADD48C,0.030000*%
%ADD49C,0.024000*%
%ADD50C,0.275591*%
%ADD51C,0.047244*%
%ADD52C,0.076378*%
%ADD53R,0.076378X0.076378*%
%ADD54C,0.055118*%
%ADD55C,0.059055*%
%ADD56R,0.059055X0.059055*%
%ADD57C,0.098425*%
%ADD58C,0.050000*%
G36*
X3740152Y3339383D02*
X3737679Y0D01*
X2679D01*
X6Y3339383D01*
X7074Y3346457D01*
X3733084D01*
X3740152Y3339383D01*
D02*
G37*
%LPC*%
G36*
X2062604Y3254908D02*
X2062603Y3254908D01*
X2022551D01*
X2022551Y3254908D01*
X2017088Y3253822D01*
X2012457Y3250727D01*
X2012457Y3250727D01*
X1794907Y3033177D01*
X1791812Y3028546D01*
X1790726Y3023083D01*
X1790726Y3023083D01*
Y2549197D01*
X1498907Y2257378D01*
X1495812Y2252747D01*
X1494726Y2247284D01*
X1494726Y2247284D01*
Y2079913D01*
X1419087Y2004274D01*
X1406008D01*
Y2024000D01*
X1363992D01*
X1363992Y2024000D01*
X1356008D01*
Y2024000D01*
X1353992Y2024000D01*
X1316008D01*
X1313992Y2024000D01*
Y2024000D01*
X1306008D01*
Y2024000D01*
X1263992D01*
X1263992Y2024000D01*
X1256008D01*
Y2024000D01*
X1253992Y2024000D01*
X1213992D01*
Y1992216D01*
X1212552Y1990059D01*
X1210650Y1980500D01*
Y1744370D01*
X1212552Y1734811D01*
X1217966Y1726707D01*
X1362336Y1582337D01*
X1370440Y1576922D01*
X1380000Y1575020D01*
X1598278D01*
X1602552Y1570745D01*
X1610889Y1565932D01*
X1620187Y1563441D01*
X1629813D01*
X1639111Y1565932D01*
X1647448Y1570745D01*
X1651722Y1575020D01*
X1860000D01*
X1869559Y1576921D01*
X1877664Y1582336D01*
X2027034Y1731707D01*
X2032448Y1739811D01*
X2034350Y1749370D01*
Y1854793D01*
X2034377Y1854820D01*
X2044093D01*
X2044094Y1854820D01*
X2049557Y1855906D01*
X2054188Y1859001D01*
X2137884Y1942697D01*
X2147884Y1938555D01*
Y1566587D01*
X2149747Y1557223D01*
X2155051Y1549284D01*
X2202201Y1502135D01*
X2210140Y1496830D01*
X2219504Y1494967D01*
X2367272D01*
X2370034Y1492206D01*
Y1466670D01*
X2365249Y1461885D01*
X2360436Y1453549D01*
X2357945Y1444251D01*
Y1434624D01*
X2360436Y1425326D01*
X2365249Y1416990D01*
X2372056Y1410183D01*
X2380393Y1405370D01*
X2389691Y1402879D01*
X2399317D01*
X2408615Y1405370D01*
X2416952Y1410183D01*
X2423758Y1416990D01*
X2428572Y1425326D01*
X2431063Y1434624D01*
Y1444251D01*
X2428572Y1453549D01*
X2423758Y1461885D01*
X2418974Y1466670D01*
Y1492206D01*
X2423758Y1496990D01*
X2428572Y1505326D01*
X2431063Y1514624D01*
Y1524251D01*
X2428572Y1533549D01*
X2423758Y1541885D01*
X2416952Y1548692D01*
X2408615Y1553505D01*
X2399317Y1555997D01*
X2389691D01*
X2380393Y1553505D01*
X2372056Y1548692D01*
X2367272Y1543908D01*
X2229640D01*
X2196825Y1576723D01*
Y1937152D01*
X2232042Y1972369D01*
X2260094D01*
X2269458Y1974232D01*
X2277397Y1979537D01*
X2278442Y1981100D01*
X2281932Y1981794D01*
X2285176Y1983962D01*
X2287344Y1987206D01*
X2288105Y1991033D01*
Y2002647D01*
X2287344Y2006473D01*
X2285176Y2009717D01*
X2281932Y2011885D01*
X2278442Y2012579D01*
X2277397Y2014143D01*
X2269458Y2019447D01*
X2260094Y2021310D01*
X2230639D01*
X2226497Y2031310D01*
X2258511Y2063324D01*
X2271489D01*
X2289906Y2044907D01*
X2289907Y2044907D01*
X2294537Y2041812D01*
X2300000Y2040726D01*
X2300001Y2040726D01*
X2649999D01*
X2650000Y2040726D01*
X2655463Y2041812D01*
X2660093Y2044907D01*
X2726071Y2110884D01*
X2735187Y2108441D01*
X2744813D01*
X2754111Y2110932D01*
X2762448Y2115745D01*
X2769255Y2122552D01*
X2774068Y2130889D01*
X2776559Y2140187D01*
Y2149813D01*
X2774068Y2159111D01*
X2769255Y2167448D01*
X2762448Y2174255D01*
X2754111Y2179068D01*
X2744813Y2181559D01*
X2735187D01*
X2725889Y2179068D01*
X2717552Y2174255D01*
X2710745Y2167448D01*
X2705932Y2159111D01*
X2703441Y2149813D01*
Y2140187D01*
X2705884Y2131071D01*
X2644087Y2069274D01*
X2537181D01*
X2534147Y2079274D01*
X2535094Y2079907D01*
X2641747Y2186561D01*
X2641748Y2186561D01*
X2644842Y2191192D01*
X2645929Y2196654D01*
X2645929Y2196655D01*
Y2246827D01*
X2666244D01*
Y2250726D01*
X2741026D01*
X2745745Y2242552D01*
X2752552Y2235745D01*
X2760889Y2230932D01*
X2770187Y2228441D01*
X2779813D01*
X2789111Y2230932D01*
X2797448Y2235745D01*
X2804255Y2242552D01*
X2808974Y2250726D01*
X2836026D01*
X2840745Y2242552D01*
X2847552Y2235745D01*
X2855889Y2230932D01*
X2865187Y2228441D01*
X2874813D01*
X2884111Y2230932D01*
X2892448Y2235745D01*
X2899255Y2242552D01*
X2904068Y2250889D01*
X2905195Y2255097D01*
X2915195Y2253780D01*
Y1975475D01*
X2786559Y1846839D01*
X2779429Y1848959D01*
X2776312Y1850735D01*
X2774068Y1859111D01*
X2769255Y1867448D01*
X2762448Y1874255D01*
X2754111Y1879068D01*
X2744813Y1881559D01*
X2735187D01*
X2725889Y1879068D01*
X2717552Y1874255D01*
X2710745Y1867448D01*
X2705932Y1859111D01*
X2703441Y1849813D01*
Y1840187D01*
X2703751Y1839031D01*
X2640569Y1775849D01*
X2614227D01*
X2609534Y1780542D01*
X2602096Y1784836D01*
X2593799Y1787060D01*
X2587162D01*
X2536411Y1837810D01*
Y1936358D01*
X2534782Y1944552D01*
X2530140Y1951499D01*
X2469561Y2012078D01*
X2462615Y2016719D01*
X2454421Y2018349D01*
X2359012D01*
X2350818Y2016719D01*
X2344722Y2012646D01*
X2340902D01*
X2337076Y2011885D01*
X2333832Y2009717D01*
X2331664Y2006473D01*
X2330903Y2002647D01*
Y1991033D01*
X2331664Y1987206D01*
X2329506Y1976641D01*
X2329090Y1976019D01*
X2326012Y1971412D01*
X2324785Y1965245D01*
Y1964438D01*
X2358914D01*
X2393043D01*
Y1965245D01*
X2392987Y1965526D01*
X2400178Y1975526D01*
X2445552D01*
X2464093Y1956985D01*
X2462896Y1951428D01*
X2460371Y1946565D01*
X2453038Y1944600D01*
X2445057Y1939992D01*
X2438540Y1933475D01*
X2433932Y1925494D01*
X2431547Y1916593D01*
Y1916068D01*
X2421547Y1913034D01*
X2420140Y1915140D01*
X2398202Y1937078D01*
X2391256Y1941719D01*
X2392646Y1951639D01*
X2393043Y1953630D01*
Y1954438D01*
X2358914D01*
X2324785D01*
Y1953630D01*
X2326012Y1947463D01*
X2329090Y1942857D01*
X2329506Y1942234D01*
X2331664Y1931669D01*
X2330903Y1927843D01*
Y1916228D01*
X2331664Y1912402D01*
X2333832Y1909158D01*
X2337076Y1906991D01*
X2340902Y1906229D01*
X2344722D01*
X2350818Y1902156D01*
X2359012Y1900526D01*
X2374194D01*
X2383589Y1891131D01*
Y1854361D01*
X2380393Y1853505D01*
X2372056Y1848692D01*
X2365249Y1841885D01*
X2360436Y1833549D01*
X2357945Y1824251D01*
Y1814624D01*
X2360436Y1805326D01*
X2365249Y1796990D01*
X2372056Y1790183D01*
X2380393Y1785370D01*
X2389691Y1782879D01*
X2399317D01*
X2400473Y1783188D01*
X2503801Y1679860D01*
X2510748Y1675218D01*
X2518942Y1673589D01*
X2665000D01*
X2673194Y1675218D01*
X2680140Y1679860D01*
X2951747Y1951466D01*
X2956388Y1958413D01*
X2958018Y1966607D01*
Y2282738D01*
X3198869Y2523589D01*
X3439517D01*
X3460339Y2502766D01*
X3456512Y2493528D01*
X3401472D01*
Y2416472D01*
X3458341D01*
X3479906Y2394907D01*
X3479907Y2394907D01*
X3484537Y2391812D01*
X3490000Y2390726D01*
X3490001Y2390726D01*
X3507097D01*
X3511240Y2380726D01*
X3509170Y2378657D01*
X3504098Y2369871D01*
X3501472Y2360072D01*
Y2349928D01*
X3504098Y2340129D01*
X3504407Y2339594D01*
X3479907Y2315093D01*
X3476812Y2310463D01*
X3475726Y2305000D01*
X3475726Y2304999D01*
Y2287903D01*
X3465726Y2283760D01*
X3463657Y2285830D01*
X3454871Y2290902D01*
X3445072Y2293528D01*
X3434928D01*
X3425129Y2290902D01*
X3416343Y2285830D01*
X3409170Y2278657D01*
X3404098Y2269871D01*
X3401472Y2260072D01*
Y2249928D01*
X3404098Y2240129D01*
X3409170Y2231343D01*
X3416343Y2224170D01*
X3425129Y2219098D01*
X3434928Y2216472D01*
X3445072D01*
X3454871Y2219098D01*
X3463657Y2224170D01*
X3465726Y2226240D01*
X3475726Y2222097D01*
Y2187903D01*
X3465726Y2183760D01*
X3463657Y2185830D01*
X3454871Y2190902D01*
X3445072Y2193528D01*
X3434928D01*
X3425129Y2190902D01*
X3416343Y2185830D01*
X3409170Y2178657D01*
X3404098Y2169871D01*
X3403938Y2169274D01*
X3365913D01*
X3349274Y2185913D01*
Y2319142D01*
X3349274Y2319142D01*
X3348188Y2324605D01*
X3345093Y2329236D01*
X3289236Y2385093D01*
X3284605Y2388188D01*
X3279142Y2389274D01*
X3279142Y2389274D01*
X3190000D01*
X3184537Y2388188D01*
X3179907Y2385093D01*
X3179906Y2385093D01*
X3154907Y2360093D01*
X3151812Y2355463D01*
X3151438Y2353579D01*
X3145658Y2349050D01*
X3135111Y2350847D01*
X3132207Y2355876D01*
X3125876Y2362207D01*
X3118124Y2366683D01*
X3109476Y2369000D01*
X3100524D01*
X3091876Y2366683D01*
X3084124Y2362207D01*
X3077793Y2355876D01*
X3073317Y2348124D01*
X3071000Y2339476D01*
Y2330524D01*
X3073317Y2321876D01*
X3077793Y2314124D01*
X3084124Y2307793D01*
X3090726Y2303981D01*
Y2175913D01*
X3039907Y2125093D01*
X3036812Y2120463D01*
X3035726Y2115000D01*
X3035726Y2114999D01*
Y2009427D01*
X3029970Y2006104D01*
X3023896Y2000030D01*
X3019601Y1992592D01*
X3017378Y1984295D01*
Y1975705D01*
X3019601Y1967408D01*
X3023896Y1959970D01*
X3029970Y1953896D01*
X3037408Y1949601D01*
X3045705Y1947378D01*
X3054295D01*
X3062592Y1949601D01*
X3070030Y1953896D01*
X3076104Y1959970D01*
X3080399Y1967408D01*
X3082622Y1975705D01*
Y1975726D01*
X3159087D01*
X3226273Y1908540D01*
X3226274Y1908539D01*
X3228441Y1907091D01*
Y1905187D01*
X3230932Y1895889D01*
X3235745Y1887552D01*
X3242552Y1880745D01*
X3250889Y1875932D01*
X3260187Y1873441D01*
X3269813D01*
X3279111Y1875932D01*
X3287448Y1880745D01*
X3294255Y1887552D01*
X3299068Y1895889D01*
X3301559Y1905187D01*
Y1914813D01*
X3299068Y1924111D01*
X3294255Y1932448D01*
X3287448Y1939255D01*
X3279111Y1944068D01*
X3269813Y1946559D01*
X3260187D01*
X3250889Y1944068D01*
X3242552Y1939255D01*
X3239242Y1935945D01*
X3175093Y2000093D01*
X3170463Y2003188D01*
X3165000Y2004274D01*
X3164999Y2004274D01*
X3071860D01*
X3070030Y2006104D01*
X3064274Y2009427D01*
Y2109087D01*
X3115093Y2159906D01*
X3115093Y2159907D01*
X3118188Y2164537D01*
X3119274Y2170000D01*
Y2295917D01*
X3124492Y2299809D01*
X3136180Y2296917D01*
X3137793Y2294124D01*
X3144124Y2287793D01*
X3151876Y2283317D01*
X3160524Y2281000D01*
X3169476D01*
X3178124Y2283317D01*
X3185876Y2287793D01*
X3192207Y2294124D01*
X3196683Y2301876D01*
X3199000Y2310524D01*
Y2315080D01*
X3209000Y2316396D01*
X3209074Y2316119D01*
X3213550Y2308366D01*
X3219881Y2302036D01*
X3227634Y2297560D01*
X3236281Y2295243D01*
X3245233D01*
X3253881Y2297560D01*
X3258196Y2300051D01*
X3265726Y2293967D01*
Y2206183D01*
X3259773Y2203354D01*
X3255726Y2202816D01*
X3250335Y2208207D01*
X3242582Y2212683D01*
X3233935Y2215000D01*
X3224982D01*
X3216335Y2212683D01*
X3208582Y2208207D01*
X3202252Y2201876D01*
X3197775Y2194124D01*
X3195458Y2185476D01*
Y2176524D01*
X3197775Y2167876D01*
X3202252Y2160124D01*
X3208582Y2153793D01*
X3215726Y2149669D01*
Y2055001D01*
X3215726Y2055000D01*
X3216812Y2049538D01*
X3219907Y2044907D01*
X3319907Y1944907D01*
X3324538Y1941812D01*
X3330000Y1940726D01*
X3330001Y1940726D01*
X3403938D01*
X3404098Y1940129D01*
X3409170Y1931343D01*
X3416343Y1924170D01*
X3425129Y1919098D01*
X3434928Y1916473D01*
X3445072D01*
X3454871Y1919098D01*
X3463657Y1924170D01*
X3470830Y1931343D01*
X3475902Y1940129D01*
X3478528Y1949928D01*
Y1960072D01*
X3475902Y1969871D01*
X3470830Y1978657D01*
X3463657Y1985830D01*
X3454871Y1990902D01*
X3445072Y1993527D01*
X3434928D01*
X3425129Y1990902D01*
X3416343Y1985830D01*
X3409170Y1978657D01*
X3404098Y1969871D01*
X3403938Y1969274D01*
X3335913D01*
X3244274Y2060913D01*
Y2150294D01*
X3250335Y2153793D01*
X3255726Y2159184D01*
X3259773Y2158646D01*
X3265726Y2155817D01*
Y2120001D01*
X3265726Y2120000D01*
X3266812Y2114537D01*
X3269907Y2109907D01*
X3344906Y2034907D01*
X3344907Y2034907D01*
X3349537Y2031812D01*
X3355000Y2030726D01*
X3355001Y2030726D01*
X3409614D01*
X3409615Y2030726D01*
X3409759Y2030754D01*
X3416343Y2024170D01*
X3425129Y2019098D01*
X3434928Y2016473D01*
X3445072D01*
X3454871Y2019098D01*
X3463657Y2024170D01*
X3470830Y2031343D01*
X3475902Y2040129D01*
X3478528Y2049928D01*
Y2060072D01*
X3475902Y2069871D01*
X3470830Y2078657D01*
X3463657Y2085830D01*
X3454871Y2090902D01*
X3445072Y2093528D01*
X3434928D01*
X3425129Y2090902D01*
X3416343Y2085830D01*
X3409170Y2078657D01*
X3404098Y2069871D01*
X3401472Y2060072D01*
Y2059274D01*
X3360913D01*
X3294274Y2125913D01*
Y2299999D01*
X3294274Y2300000D01*
X3293188Y2305463D01*
X3290093Y2310093D01*
X3290093Y2310094D01*
X3274757Y2325430D01*
Y2333719D01*
X3272440Y2342366D01*
X3272287Y2342632D01*
X3277364Y2353838D01*
X3279660Y2354295D01*
X3320726Y2313229D01*
Y2180001D01*
X3320726Y2180000D01*
X3321812Y2174537D01*
X3324907Y2169907D01*
X3349906Y2144907D01*
X3349907Y2144907D01*
X3354537Y2141812D01*
X3360000Y2140726D01*
X3403938D01*
X3404098Y2140129D01*
X3409170Y2131343D01*
X3416343Y2124170D01*
X3425129Y2119098D01*
X3434928Y2116472D01*
X3445072D01*
X3454871Y2119098D01*
X3463657Y2124170D01*
X3466186Y2126700D01*
X3466367Y2126734D01*
X3475955Y2124718D01*
X3477354Y2123726D01*
X3478542Y2121949D01*
X3479906Y2119907D01*
X3479907Y2119907D01*
X3479907Y2119906D01*
X3482835Y2116978D01*
X3482835Y2116978D01*
X3482836Y2116977D01*
X3499906Y2099907D01*
X3499907Y2099907D01*
X3504537Y2096812D01*
X3510000Y2095726D01*
X3510001Y2095726D01*
X3513484D01*
X3516232Y2086214D01*
X3516240Y2085726D01*
X3509170Y2078657D01*
X3504098Y2069871D01*
X3501472Y2060072D01*
Y2049928D01*
X3504098Y2040129D01*
X3509170Y2031343D01*
X3516343Y2024170D01*
X3525129Y2019098D01*
X3534928Y2016473D01*
X3545072D01*
X3554871Y2019098D01*
X3563657Y2024170D01*
X3569506Y2030020D01*
X3605190D01*
X3608716Y2026494D01*
Y1494043D01*
X2589653Y474980D01*
X2281155D01*
X2280030Y476104D01*
X2272592Y480399D01*
X2264295Y482622D01*
X2255705D01*
X2247408Y480399D01*
X2239970Y476104D01*
X2238845Y474980D01*
X2136722D01*
X2132448Y479255D01*
X2124111Y484068D01*
X2114813Y486559D01*
X2105187D01*
X2095889Y484068D01*
X2087552Y479255D01*
X2080745Y472448D01*
X2075932Y464111D01*
X2073441Y454813D01*
Y445187D01*
X2075932Y435889D01*
X2080745Y427552D01*
X2087552Y420745D01*
X2095889Y415932D01*
X2105187Y413441D01*
X2114813D01*
X2124111Y415932D01*
X2132448Y420745D01*
X2136722Y425020D01*
X2238845D01*
X2239970Y423896D01*
X2247408Y419601D01*
X2255705Y417378D01*
X2264295D01*
X2272592Y419601D01*
X2280030Y423896D01*
X2281155Y425020D01*
X2600000D01*
X2609559Y426921D01*
X2617664Y432337D01*
X3651360Y1466033D01*
X3656774Y1474137D01*
X3658676Y1483696D01*
Y2036841D01*
X3656774Y2046400D01*
X3651360Y2054504D01*
X3633200Y2072664D01*
X3625096Y2078079D01*
X3615537Y2079980D01*
X3571343D01*
X3569107Y2081820D01*
X3565605Y2086103D01*
X3568978Y2095726D01*
X3659999D01*
X3660000Y2095726D01*
X3665463Y2096812D01*
X3670093Y2099907D01*
X3720093Y2149906D01*
X3720093Y2149907D01*
X3723188Y2154537D01*
X3724274Y2160000D01*
X3724274Y2160001D01*
Y2559999D01*
X3724274Y2560000D01*
X3723188Y2565463D01*
X3720093Y2570093D01*
X3720093Y2570094D01*
X3660093Y2630093D01*
X3655463Y2633188D01*
X3650000Y2634274D01*
X3649999Y2634274D01*
X2710000D01*
X2707443Y2633766D01*
X2704873Y2633322D01*
X2704718Y2633224D01*
X2704538Y2633188D01*
X2702368Y2631738D01*
X2700166Y2630346D01*
X2662295Y2594346D01*
X2662189Y2594196D01*
X2662037Y2594093D01*
X2592110Y2524168D01*
X2589016Y2519537D01*
X2587930Y2514074D01*
X2587930Y2514073D01*
Y2489173D01*
X2581614D01*
Y2451614D01*
Y2414055D01*
X2595472D01*
Y2420055D01*
X2666244D01*
Y2445658D01*
X2666574Y2446151D01*
X2667660Y2451614D01*
Y2455726D01*
X2774999D01*
X2775000Y2455726D01*
X2780463Y2456812D01*
X2785093Y2459907D01*
X2856071Y2530884D01*
X2865187Y2528441D01*
X2874813D01*
X2884111Y2530932D01*
X2892448Y2535745D01*
X2899255Y2542552D01*
X2904068Y2550889D01*
X2906559Y2560187D01*
Y2569813D01*
X2904116Y2578929D01*
X2910913Y2585726D01*
X3156396D01*
X3160539Y2575726D01*
X2883929Y2299116D01*
X2874813Y2301559D01*
X2865187D01*
X2855889Y2299068D01*
X2847552Y2294255D01*
X2840745Y2287448D01*
X2836026Y2279274D01*
X2808974D01*
X2804255Y2287448D01*
X2797448Y2294255D01*
X2789111Y2299068D01*
X2779813Y2301559D01*
X2770187D01*
X2760889Y2299068D01*
X2752552Y2294255D01*
X2745745Y2287448D01*
X2741026Y2279274D01*
X2667484D01*
X2666574Y2283849D01*
X2666244Y2284342D01*
Y2309945D01*
X2621062D01*
Y2315945D01*
X2607204D01*
Y2278386D01*
Y2240827D01*
X2617380D01*
Y2202567D01*
X2519088Y2104274D01*
X2497191D01*
X2496841Y2105000D01*
X2503117Y2115000D01*
X2504608D01*
X2513510Y2117385D01*
X2521490Y2121993D01*
X2528007Y2128510D01*
X2532615Y2136490D01*
X2534895Y2145000D01*
X2465105D01*
X2467385Y2136490D01*
X2467561Y2136187D01*
X2460971Y2127599D01*
X2459476Y2128000D01*
X2450524D01*
X2441876Y2125683D01*
X2437202Y2122985D01*
X2414274Y2145913D01*
Y2359087D01*
X2490501Y2435314D01*
X2490501Y2435314D01*
X2493595Y2439945D01*
X2494682Y2445407D01*
Y2809495D01*
X2860913Y3175726D01*
X2946026D01*
X2950745Y3167552D01*
X2957552Y3160745D01*
X2965889Y3155932D01*
X2975187Y3153441D01*
X2984813D01*
X2994111Y3155932D01*
X3002448Y3160745D01*
X3009255Y3167552D01*
X3014068Y3175889D01*
X3016559Y3185187D01*
Y3194813D01*
X3014068Y3204111D01*
X3009255Y3212448D01*
X3002448Y3219255D01*
X2994111Y3224068D01*
X2984813Y3226559D01*
X2975187D01*
X2965889Y3224068D01*
X2957552Y3219255D01*
X2950745Y3212448D01*
X2946026Y3204274D01*
X2855000D01*
X2849537Y3203188D01*
X2844907Y3200093D01*
X2844906Y3200093D01*
X2470314Y2825501D01*
X2467220Y2820870D01*
X2466133Y2815407D01*
X2466133Y2815407D01*
Y2800798D01*
X2456133Y2795024D01*
X2453531Y2796526D01*
X2444884Y2798843D01*
X2435931D01*
X2427284Y2796526D01*
X2424682Y2795024D01*
X2414682Y2800798D01*
Y3049495D01*
X2540913Y3175726D01*
X2646026D01*
X2650745Y3167552D01*
X2657552Y3160745D01*
X2665889Y3155932D01*
X2675187Y3153441D01*
X2684813D01*
X2694111Y3155932D01*
X2702448Y3160745D01*
X2709255Y3167552D01*
X2714068Y3175889D01*
X2716559Y3185187D01*
Y3194813D01*
X2714068Y3204111D01*
X2709255Y3212448D01*
X2702448Y3219255D01*
X2694111Y3224068D01*
X2684813Y3226559D01*
X2675187D01*
X2665889Y3224068D01*
X2657552Y3219255D01*
X2650745Y3212448D01*
X2646026Y3204274D01*
X2535001D01*
X2535000Y3204274D01*
X2529537Y3203188D01*
X2524907Y3200093D01*
X2524906Y3200093D01*
X2390314Y3065501D01*
X2387220Y3060870D01*
X2386133Y3055407D01*
X2386133Y3055407D01*
Y3040416D01*
X2380674Y3037640D01*
X2376133Y3036950D01*
X2370876Y3042207D01*
X2363124Y3046683D01*
X2354476Y3049000D01*
X2345524D01*
X2336876Y3046683D01*
X2334274Y3045181D01*
X2324274Y3050954D01*
Y3069999D01*
X2324274Y3070000D01*
X2323188Y3075463D01*
X2320093Y3080093D01*
X2320093Y3080094D01*
X2286093Y3114093D01*
X2281463Y3117188D01*
X2276000Y3118274D01*
X2275999Y3118274D01*
X2220089D01*
X2220088Y3118274D01*
X2214626Y3117188D01*
X2209995Y3114093D01*
X2189171Y3093269D01*
X2178017Y3096258D01*
X2177538Y3098045D01*
X2173062Y3105798D01*
X2166732Y3112128D01*
X2158979Y3116604D01*
X2150331Y3118921D01*
X2141379D01*
X2132732Y3116604D01*
X2129337Y3114644D01*
X2119337Y3119952D01*
Y3198175D01*
X2118250Y3203638D01*
X2115156Y3208269D01*
X2115155Y3208269D01*
X2072697Y3250727D01*
X2068066Y3253822D01*
X2062604Y3254908D01*
D02*
G37*
G36*
X3554939Y3297842D02*
X3548307D01*
Y3155047D01*
X3691102D01*
Y3161679D01*
X3687463Y3184656D01*
X3680274Y3206781D01*
X3669713Y3227508D01*
X3656039Y3246329D01*
X3639589Y3262779D01*
X3620769Y3276453D01*
X3600041Y3287014D01*
X3577916Y3294203D01*
X3554939Y3297842D01*
D02*
G37*
G36*
X3538307D02*
X3531675D01*
X3508698Y3294203D01*
X3486573Y3287014D01*
X3465845Y3276453D01*
X3447025Y3262779D01*
X3430575Y3246329D01*
X3416901Y3227508D01*
X3406340Y3206781D01*
X3399151Y3184656D01*
X3395512Y3161679D01*
Y3155047D01*
X3538307D01*
Y3297842D01*
D02*
G37*
G36*
X208482D02*
X201850D01*
Y3155047D01*
X344646D01*
Y3161679D01*
X341007Y3184656D01*
X333818Y3206781D01*
X323256Y3227508D01*
X309582Y3246329D01*
X293133Y3262779D01*
X274312Y3276453D01*
X253584Y3287014D01*
X231459Y3294203D01*
X208482Y3297842D01*
D02*
G37*
G36*
X191850D02*
X185219D01*
X162242Y3294203D01*
X140117Y3287014D01*
X119389Y3276453D01*
X100568Y3262779D01*
X84118Y3246329D01*
X70445Y3227508D01*
X59883Y3206781D01*
X52694Y3184656D01*
X49055Y3161679D01*
Y3155047D01*
X191850D01*
Y3297842D01*
D02*
G37*
G36*
X1285000Y3093468D02*
Y3065000D01*
X1313468D01*
X1311331Y3072978D01*
X1306904Y3080644D01*
X1300644Y3086904D01*
X1292978Y3091331D01*
X1285000Y3093468D01*
D02*
G37*
G36*
X1275000D02*
X1267022Y3091331D01*
X1259356Y3086904D01*
X1253096Y3080644D01*
X1248669Y3072978D01*
X1246532Y3065000D01*
X1275000D01*
Y3093468D01*
D02*
G37*
G36*
X1495404Y3132398D02*
X1485778D01*
X1476479Y3129906D01*
X1468143Y3125093D01*
X1461336Y3118286D01*
X1456523Y3109950D01*
X1454032Y3100652D01*
Y3091026D01*
X1455470Y3085657D01*
X1269907Y2900093D01*
X1266812Y2895463D01*
X1265726Y2890000D01*
X1265726Y2889999D01*
Y2789427D01*
X1259970Y2786104D01*
X1253896Y2780030D01*
X1249601Y2772592D01*
X1247378Y2764295D01*
Y2755705D01*
X1249601Y2747408D01*
X1253896Y2739970D01*
X1259970Y2733896D01*
X1267408Y2729601D01*
X1275705Y2727378D01*
X1284295D01*
X1292592Y2729601D01*
X1300030Y2733896D01*
X1306104Y2739970D01*
X1310399Y2747408D01*
X1312622Y2755705D01*
Y2764295D01*
X1310399Y2772592D01*
X1306104Y2780030D01*
X1300030Y2786104D01*
X1294274Y2789427D01*
Y2884087D01*
X1473613Y3063426D01*
X1476479Y3061771D01*
X1485778Y3059280D01*
X1495404D01*
X1504702Y3061771D01*
X1513039Y3066584D01*
X1519845Y3073391D01*
X1524658Y3081727D01*
X1527150Y3091026D01*
Y3100652D01*
X1524658Y3109950D01*
X1519845Y3118286D01*
X1513039Y3125093D01*
X1504702Y3129906D01*
X1495404Y3132398D01*
D02*
G37*
G36*
X1709295Y3092622D02*
X1700705D01*
X1692408Y3090399D01*
X1684970Y3086104D01*
X1678896Y3080030D01*
X1674601Y3072592D01*
X1672378Y3064295D01*
Y3055705D01*
X1674601Y3047408D01*
X1678896Y3039970D01*
X1684970Y3033896D01*
X1692408Y3029601D01*
X1700705Y3027378D01*
X1709295D01*
X1717592Y3029601D01*
X1725030Y3033896D01*
X1731104Y3039970D01*
X1735399Y3047408D01*
X1737622Y3055705D01*
Y3064295D01*
X1735399Y3072592D01*
X1731104Y3080030D01*
X1725030Y3086104D01*
X1717592Y3090399D01*
X1709295Y3092622D01*
D02*
G37*
G36*
X1313468Y3055000D02*
X1285000D01*
Y3026532D01*
X1292978Y3028669D01*
X1300644Y3033096D01*
X1306904Y3039356D01*
X1311331Y3047022D01*
X1313468Y3055000D01*
D02*
G37*
G36*
X1275000D02*
X1246532D01*
X1248669Y3047022D01*
X1253096Y3039356D01*
X1259356Y3033096D01*
X1267022Y3028669D01*
X1275000Y3026532D01*
Y3055000D01*
D02*
G37*
G36*
X3359813Y3086559D02*
X3350187D01*
X3340889Y3084068D01*
X3332552Y3079255D01*
X3325745Y3072448D01*
X3320932Y3064111D01*
X3318441Y3054813D01*
Y3045187D01*
X3320932Y3035889D01*
X3325745Y3027552D01*
X3332552Y3020745D01*
X3340889Y3015932D01*
X3350187Y3013441D01*
X3359813D01*
X3369111Y3015932D01*
X3377448Y3020745D01*
X3384255Y3027552D01*
X3389068Y3035889D01*
X3391559Y3045187D01*
Y3054813D01*
X3389068Y3064111D01*
X3384255Y3072448D01*
X3377448Y3079255D01*
X3369111Y3084068D01*
X3359813Y3086559D01*
D02*
G37*
G36*
X3691102Y3145047D02*
X3548307D01*
Y3002252D01*
X3554939D01*
X3577916Y3005891D01*
X3600041Y3013080D01*
X3620769Y3023641D01*
X3639589Y3037315D01*
X3656039Y3053765D01*
X3669713Y3072585D01*
X3680274Y3093313D01*
X3687463Y3115438D01*
X3691102Y3138415D01*
Y3145047D01*
D02*
G37*
G36*
X3538307D02*
X3395512D01*
Y3138415D01*
X3399151Y3115438D01*
X3406340Y3093313D01*
X3416901Y3072585D01*
X3430575Y3053765D01*
X3447025Y3037315D01*
X3465845Y3023641D01*
X3486573Y3013080D01*
X3508698Y3005891D01*
X3531675Y3002252D01*
X3538307D01*
Y3145047D01*
D02*
G37*
G36*
X191850D02*
X49055D01*
Y3138415D01*
X52694Y3115438D01*
X59883Y3093313D01*
X70445Y3072585D01*
X84118Y3053765D01*
X100568Y3037315D01*
X119389Y3023641D01*
X140117Y3013080D01*
X162242Y3005891D01*
X185219Y3002252D01*
X191850D01*
Y3145047D01*
D02*
G37*
G36*
X344646D02*
X201850D01*
Y3002252D01*
X208482D01*
X231459Y3005891D01*
X253584Y3013080D01*
X274312Y3023641D01*
X292084Y3036553D01*
X298599Y3028926D01*
X278706Y3009033D01*
X273291Y3000929D01*
X271389Y2991369D01*
Y2838762D01*
X261995Y2837274D01*
X240019Y2830134D01*
X219432Y2819644D01*
X200739Y2806063D01*
X184400Y2789724D01*
X170819Y2771031D01*
X160329Y2750443D01*
X153189Y2728468D01*
X149574Y2705647D01*
Y2682541D01*
X153189Y2659719D01*
X160329Y2637744D01*
X170819Y2617156D01*
X184400Y2598463D01*
X200739Y2582124D01*
X219432Y2568543D01*
X240019Y2558053D01*
X261995Y2550913D01*
X284816Y2547298D01*
X307922D01*
X330744Y2550913D01*
X352719Y2558053D01*
X373307Y2568543D01*
X392000Y2582124D01*
X408339Y2598463D01*
X421920Y2617156D01*
X432410Y2637744D01*
X439550Y2659719D01*
X443165Y2682541D01*
Y2705647D01*
X439550Y2728468D01*
X432410Y2750443D01*
X421920Y2771031D01*
X408339Y2789724D01*
X392000Y2806063D01*
X373307Y2819644D01*
X352719Y2830134D01*
X330744Y2837274D01*
X321349Y2838762D01*
Y2981022D01*
X364087Y3023760D01*
X400762D01*
X401837Y3021166D01*
X408207Y3011632D01*
X416316Y3003523D01*
X425850Y2997153D01*
X436444Y2992764D01*
X447691Y2990527D01*
X459157D01*
X470404Y2992764D01*
X480998Y2997153D01*
X490532Y3003523D01*
X498641Y3011632D01*
X505011Y3021166D01*
X509400Y3031760D01*
X511637Y3043007D01*
Y3054473D01*
X509400Y3065720D01*
X505011Y3076314D01*
X498641Y3085848D01*
X490532Y3093957D01*
X480998Y3100327D01*
X470404Y3104716D01*
X459157Y3106953D01*
X447691D01*
X436444Y3104716D01*
X425850Y3100327D01*
X416316Y3093957D01*
X408207Y3085848D01*
X401837Y3076314D01*
X400762Y3073720D01*
X353740D01*
X344180Y3071818D01*
X336077Y3066403D01*
X317972Y3048299D01*
X310344Y3054813D01*
X323256Y3072585D01*
X333818Y3093313D01*
X341007Y3115438D01*
X344646Y3138415D01*
Y3145047D01*
D02*
G37*
G36*
X3179295Y3052622D02*
X3170705D01*
X3162408Y3050399D01*
X3154970Y3046104D01*
X3148896Y3040030D01*
X3144601Y3032592D01*
X3142378Y3024295D01*
Y3015705D01*
X3144601Y3007408D01*
X3148896Y2999970D01*
X3154970Y2993896D01*
X3162408Y2989601D01*
X3170705Y2987378D01*
X3179295D01*
X3187592Y2989601D01*
X3195030Y2993896D01*
X3201104Y2999970D01*
X3205399Y3007408D01*
X3207622Y3015705D01*
Y3024295D01*
X3205399Y3032592D01*
X3201104Y3040030D01*
X3195030Y3046104D01*
X3187592Y3050399D01*
X3179295Y3052622D01*
D02*
G37*
G36*
X2814295D02*
X2805705D01*
X2797408Y3050399D01*
X2789970Y3046104D01*
X2783896Y3040030D01*
X2779601Y3032592D01*
X2777378Y3024295D01*
Y3015705D01*
X2779601Y3007408D01*
X2783896Y2999970D01*
X2789970Y2993896D01*
X2797408Y2989601D01*
X2805705Y2987378D01*
X2814295D01*
X2822592Y2989601D01*
X2830030Y2993896D01*
X2836104Y2999970D01*
X2840399Y3007408D01*
X2842622Y3015705D01*
Y3024295D01*
X2840399Y3032592D01*
X2836104Y3040030D01*
X2830030Y3046104D01*
X2822592Y3050399D01*
X2814295Y3052622D01*
D02*
G37*
G36*
X2564295D02*
X2555705D01*
X2547408Y3050399D01*
X2539970Y3046104D01*
X2533896Y3040030D01*
X2529601Y3032592D01*
X2527378Y3024295D01*
Y3015705D01*
X2529601Y3007408D01*
X2533896Y2999970D01*
X2539970Y2993896D01*
X2547408Y2989601D01*
X2555705Y2987378D01*
X2564295D01*
X2572592Y2989601D01*
X2580030Y2993896D01*
X2586104Y2999970D01*
X2590399Y3007408D01*
X2592622Y3015705D01*
Y3024295D01*
X2590399Y3032592D01*
X2586104Y3040030D01*
X2580030Y3046104D01*
X2572592Y3050399D01*
X2564295Y3052622D01*
D02*
G37*
G36*
X860733Y3028213D02*
X849267D01*
X838020Y3025976D01*
X827426Y3021587D01*
X817892Y3015217D01*
X809783Y3007108D01*
X803413Y2997574D01*
X799024Y2986980D01*
X796787Y2975733D01*
Y2964267D01*
X799024Y2953020D01*
X803413Y2942426D01*
X809783Y2932892D01*
X817892Y2924783D01*
X827426Y2918413D01*
X830020Y2917338D01*
Y2250220D01*
X804780D01*
Y2217779D01*
X794780Y2216462D01*
X793071Y2222840D01*
X786986Y2233380D01*
X778380Y2241985D01*
X767840Y2248070D01*
X756085Y2251220D01*
X755000D01*
Y2205000D01*
Y2158780D01*
X756085D01*
X767840Y2161930D01*
X778380Y2168015D01*
X786986Y2176620D01*
X793071Y2187160D01*
X794780Y2193538D01*
X804780Y2192221D01*
Y2159780D01*
X895220D01*
Y2180020D01*
X1020000D01*
X1029559Y2181921D01*
X1037664Y2187336D01*
X1100347Y2250020D01*
X1148474D01*
X1149121Y2249125D01*
X1151937Y2240020D01*
X1147793Y2235876D01*
X1143317Y2228124D01*
X1141000Y2219476D01*
Y2212248D01*
X1139182Y2207859D01*
X1138271Y2200941D01*
Y1936355D01*
X1137793Y1935877D01*
X1133317Y1928123D01*
X1131000Y1919476D01*
Y1910524D01*
X1133317Y1901877D01*
X1137793Y1894123D01*
X1138271Y1893645D01*
Y1565000D01*
X1139182Y1558082D01*
X1141852Y1551636D01*
X1146100Y1546100D01*
X1219000Y1473200D01*
X1214449Y1466938D01*
X1203959Y1446350D01*
X1196819Y1424375D01*
X1193205Y1401553D01*
Y1378447D01*
X1196819Y1355625D01*
X1203959Y1333650D01*
X1214449Y1313062D01*
X1228031Y1294369D01*
X1244369Y1278031D01*
X1263062Y1264449D01*
X1283650Y1253959D01*
X1305625Y1246819D01*
X1320020Y1244539D01*
Y476722D01*
X1315745Y472448D01*
X1310932Y464111D01*
X1308441Y454813D01*
Y445187D01*
X1310932Y435889D01*
X1315745Y427552D01*
X1322552Y420745D01*
X1330889Y415932D01*
X1340187Y413441D01*
X1349813D01*
X1359111Y415932D01*
X1367448Y420745D01*
X1374255Y427552D01*
X1379068Y435889D01*
X1381559Y445187D01*
Y454813D01*
X1379068Y464111D01*
X1374255Y472448D01*
X1369980Y476722D01*
Y1246123D01*
X1374375Y1246819D01*
X1396350Y1253959D01*
X1416938Y1264449D01*
X1435631Y1278031D01*
X1451969Y1294369D01*
X1465551Y1313062D01*
X1476041Y1333650D01*
X1483181Y1355625D01*
X1486795Y1378447D01*
Y1401553D01*
X1483181Y1424375D01*
X1476041Y1446350D01*
X1465551Y1466938D01*
X1451969Y1485631D01*
X1435631Y1501969D01*
X1416938Y1515551D01*
X1396350Y1526041D01*
X1374375Y1533181D01*
X1351553Y1536795D01*
X1328447D01*
X1305625Y1533181D01*
X1283650Y1526041D01*
X1263062Y1515551D01*
X1256800Y1511000D01*
X1191729Y1576071D01*
Y1893645D01*
X1192207Y1894123D01*
X1196683Y1901877D01*
X1199000Y1910524D01*
Y1919476D01*
X1196683Y1928123D01*
X1192207Y1935877D01*
X1191729Y1936355D01*
Y2185398D01*
X1191734Y2185401D01*
X1213992D01*
Y2176120D01*
X1224051D01*
Y2038284D01*
X1307208D01*
Y2038284D01*
X1312792D01*
Y2038284D01*
X1395949D01*
Y2130847D01*
X1396429Y2133261D01*
Y2176120D01*
X1406008D01*
Y2198602D01*
X1408079Y2201701D01*
X1409980Y2211260D01*
Y2224653D01*
X1482664Y2297336D01*
X1488079Y2305441D01*
X1489980Y2315000D01*
Y2444653D01*
X1517239Y2471912D01*
X1590737D01*
X1591861Y2470788D01*
X1599300Y2466493D01*
X1607597Y2464270D01*
X1616186D01*
X1624483Y2466493D01*
X1631922Y2470788D01*
X1637995Y2476862D01*
X1642290Y2484301D01*
X1644513Y2492597D01*
Y2501187D01*
X1642290Y2509484D01*
X1637995Y2516923D01*
X1631922Y2522996D01*
X1624483Y2527291D01*
X1616186Y2529514D01*
X1607597D01*
X1599300Y2527291D01*
X1591861Y2522996D01*
X1590737Y2521872D01*
X1506892D01*
X1497333Y2519971D01*
X1489229Y2514556D01*
X1447336Y2472664D01*
X1441921Y2464559D01*
X1440020Y2455000D01*
Y2325347D01*
X1367336Y2252664D01*
X1361921Y2244559D01*
X1357839Y2242977D01*
X1351286Y2242348D01*
X1300970Y2292664D01*
X1292866Y2298079D01*
X1283307Y2299980D01*
X1090000D01*
X1080441Y2298079D01*
X1072336Y2292664D01*
X1009653Y2229980D01*
X895220D01*
Y2250220D01*
X879980D01*
Y2917338D01*
X882574Y2918413D01*
X892108Y2924783D01*
X900217Y2932892D01*
X906229Y2941890D01*
X1042811D01*
Y2921551D01*
X1137189D01*
Y3015929D01*
X1042811D01*
Y2991850D01*
X908958D01*
X906587Y2997574D01*
X900217Y3007108D01*
X892108Y3015217D01*
X882574Y3021587D01*
X871980Y3025976D01*
X860733Y3028213D01*
D02*
G37*
G36*
X1495404Y2832398D02*
X1485778D01*
X1476479Y2829906D01*
X1468143Y2825093D01*
X1461336Y2818286D01*
X1456523Y2809950D01*
X1454032Y2800652D01*
Y2791026D01*
X1456523Y2781727D01*
X1461336Y2773391D01*
X1468143Y2766584D01*
X1476479Y2761771D01*
X1485778Y2759280D01*
X1495404D01*
X1504702Y2761771D01*
X1513039Y2766584D01*
X1519845Y2773391D01*
X1524658Y2781727D01*
X1527150Y2791026D01*
Y2800652D01*
X1524658Y2809950D01*
X1519845Y2818286D01*
X1513039Y2825093D01*
X1504702Y2829906D01*
X1495404Y2832398D01*
D02*
G37*
G36*
X3360000Y2787544D02*
Y2755000D01*
X3392544D01*
X3389999Y2764497D01*
X3385055Y2773062D01*
X3378062Y2780055D01*
X3369497Y2784999D01*
X3360000Y2787544D01*
D02*
G37*
G36*
X3350000D02*
X3340503Y2784999D01*
X3331938Y2780055D01*
X3324945Y2773062D01*
X3320001Y2764497D01*
X3317456Y2755000D01*
X3350000D01*
Y2787544D01*
D02*
G37*
G36*
X1709295Y2792622D02*
X1700705D01*
X1692408Y2790399D01*
X1684970Y2786104D01*
X1678896Y2780030D01*
X1674601Y2772592D01*
X1672378Y2764295D01*
Y2755705D01*
X1674601Y2747408D01*
X1678896Y2739970D01*
X1684970Y2733896D01*
X1692408Y2729601D01*
X1700705Y2727378D01*
X1709295D01*
X1717592Y2729601D01*
X1725030Y2733896D01*
X1731104Y2739970D01*
X1735399Y2747408D01*
X1737622Y2755705D01*
Y2764295D01*
X1735399Y2772592D01*
X1731104Y2780030D01*
X1725030Y2786104D01*
X1717592Y2790399D01*
X1709295Y2792622D01*
D02*
G37*
G36*
X2815000Y2753468D02*
Y2725000D01*
X2843468D01*
X2841331Y2732978D01*
X2836904Y2740644D01*
X2830644Y2746904D01*
X2822978Y2751331D01*
X2815000Y2753468D01*
D02*
G37*
G36*
X2565000D02*
Y2725000D01*
X2593468D01*
X2591331Y2732978D01*
X2586904Y2740644D01*
X2580644Y2746904D01*
X2572978Y2751331D01*
X2565000Y2753468D01*
D02*
G37*
G36*
X2805000D02*
X2797022Y2751331D01*
X2789356Y2746904D01*
X2783096Y2740644D01*
X2778669Y2732978D01*
X2776532Y2725000D01*
X2805000D01*
Y2753468D01*
D02*
G37*
G36*
X2555000D02*
X2547022Y2751331D01*
X2539356Y2746904D01*
X2533096Y2740644D01*
X2528669Y2732978D01*
X2526532Y2725000D01*
X2555000D01*
Y2753468D01*
D02*
G37*
G36*
X3392544Y2745000D02*
X3360000D01*
Y2712456D01*
X3369497Y2715001D01*
X3378062Y2719945D01*
X3385055Y2726938D01*
X3389999Y2735503D01*
X3392544Y2745000D01*
D02*
G37*
G36*
X3350000D02*
X3317456D01*
X3320001Y2735503D01*
X3324945Y2726938D01*
X3331938Y2719945D01*
X3340503Y2715001D01*
X3350000Y2712456D01*
Y2745000D01*
D02*
G37*
G36*
X3179295Y2752622D02*
X3170705D01*
X3162408Y2750399D01*
X3154970Y2746104D01*
X3148896Y2740030D01*
X3144601Y2732592D01*
X3142378Y2724295D01*
Y2715705D01*
X3144601Y2707408D01*
X3148896Y2699970D01*
X3154970Y2693896D01*
X3162408Y2689601D01*
X3170705Y2687378D01*
X3179295D01*
X3187592Y2689601D01*
X3195030Y2693896D01*
X3201104Y2699970D01*
X3205399Y2707408D01*
X3207622Y2715705D01*
Y2724295D01*
X3205399Y2732592D01*
X3201104Y2740030D01*
X3195030Y2746104D01*
X3187592Y2750399D01*
X3179295Y2752622D01*
D02*
G37*
G36*
X2843468Y2715000D02*
X2815000D01*
Y2686532D01*
X2822978Y2688669D01*
X2830644Y2693096D01*
X2836904Y2699356D01*
X2841331Y2707022D01*
X2843468Y2715000D01*
D02*
G37*
G36*
X2593468D02*
X2565000D01*
Y2686532D01*
X2572978Y2688669D01*
X2580644Y2693096D01*
X2586904Y2699356D01*
X2591331Y2707022D01*
X2593468Y2715000D01*
D02*
G37*
G36*
X2805000D02*
X2776532D01*
X2778669Y2707022D01*
X2783096Y2699356D01*
X2789356Y2693096D01*
X2797022Y2688669D01*
X2805000Y2686532D01*
Y2715000D01*
D02*
G37*
G36*
X2555000D02*
X2526532D01*
X2528669Y2707022D01*
X2533096Y2699356D01*
X2539356Y2693096D01*
X2547022Y2688669D01*
X2555000Y2686532D01*
Y2715000D01*
D02*
G37*
G36*
X2571614Y2489173D02*
X2557756D01*
Y2456614D01*
X2571614D01*
Y2489173D01*
D02*
G37*
G36*
Y2446614D02*
X2557756D01*
Y2414055D01*
X2571614D01*
Y2446614D01*
D02*
G37*
G36*
X1096344Y2409449D02*
X1095000D01*
Y2366260D01*
X1138189D01*
Y2367604D01*
X1134905Y2379860D01*
X1128561Y2390849D01*
X1119589Y2399821D01*
X1108600Y2406165D01*
X1096344Y2409449D01*
D02*
G37*
G36*
X1085000D02*
X1083656D01*
X1071400Y2406165D01*
X1060411Y2399821D01*
X1051439Y2390849D01*
X1045095Y2379860D01*
X1041811Y2367604D01*
Y2366260D01*
X1085000D01*
Y2409449D01*
D02*
G37*
G36*
X3445072Y2393528D02*
X3434928D01*
X3425129Y2390902D01*
X3416343Y2385830D01*
X3409170Y2378657D01*
X3404098Y2369871D01*
X3401472Y2360072D01*
Y2349928D01*
X3404098Y2340129D01*
X3409170Y2331343D01*
X3416343Y2324170D01*
X3425129Y2319098D01*
X3434928Y2316472D01*
X3445072D01*
X3454871Y2319098D01*
X3463657Y2324170D01*
X3470830Y2331343D01*
X3475902Y2340129D01*
X3478528Y2349928D01*
Y2360072D01*
X3475902Y2369871D01*
X3470830Y2378657D01*
X3463657Y2385830D01*
X3454871Y2390902D01*
X3445072Y2393528D01*
D02*
G37*
G36*
X1138189Y2356260D02*
X1095000D01*
Y2313071D01*
X1096344D01*
X1108600Y2316355D01*
X1119589Y2322699D01*
X1128561Y2331671D01*
X1134905Y2342660D01*
X1138189Y2354916D01*
Y2356260D01*
D02*
G37*
G36*
X1085000D02*
X1041811D01*
Y2354916D01*
X1045095Y2342660D01*
X1051439Y2331671D01*
X1060411Y2322699D01*
X1071400Y2316355D01*
X1083656Y2313071D01*
X1085000D01*
Y2356260D01*
D02*
G37*
G36*
X2571614Y2315945D02*
X2557756D01*
Y2283386D01*
X2571614D01*
Y2315945D01*
D02*
G37*
G36*
X2597204D02*
X2581614D01*
Y2278386D01*
X2576614D01*
D01*
X2581614D01*
Y2240827D01*
X2597204D01*
Y2278386D01*
Y2315945D01*
D02*
G37*
G36*
X2571614Y2273386D02*
X2557756D01*
Y2240827D01*
X2571614D01*
Y2273386D01*
D02*
G37*
G36*
X306553Y2351795D02*
X283447D01*
X260625Y2348181D01*
X238650Y2341041D01*
X218062Y2330551D01*
X199369Y2316969D01*
X183031Y2300631D01*
X169449Y2281938D01*
X158959Y2261350D01*
X151819Y2239375D01*
X148205Y2216553D01*
Y2193447D01*
X151819Y2170625D01*
X158959Y2148650D01*
X169449Y2128062D01*
X183031Y2109369D01*
X199369Y2093031D01*
X218062Y2079449D01*
X238650Y2068959D01*
X260625Y2061819D01*
X283447Y2058205D01*
X306553D01*
X329375Y2061819D01*
X351350Y2068959D01*
X371938Y2079449D01*
X390631Y2093031D01*
X406969Y2109369D01*
X420551Y2128062D01*
X431041Y2148650D01*
X438181Y2170625D01*
X439669Y2180020D01*
X612206D01*
X613815Y2177234D01*
X622234Y2168815D01*
X632546Y2162861D01*
X644047Y2159780D01*
X655953D01*
X667454Y2162861D01*
X677766Y2168815D01*
X686185Y2177234D01*
X692139Y2187546D01*
X694306Y2195634D01*
X704659D01*
X706929Y2187160D01*
X713014Y2176620D01*
X721620Y2168015D01*
X732160Y2161930D01*
X743915Y2158780D01*
X745000D01*
Y2205000D01*
Y2251220D01*
X743915D01*
X732160Y2248070D01*
X721620Y2241985D01*
X713014Y2233380D01*
X706929Y2222840D01*
X704659Y2214366D01*
X694306D01*
X692139Y2222454D01*
X686185Y2232766D01*
X677766Y2241185D01*
X667454Y2247139D01*
X655953Y2250220D01*
X644047D01*
X632546Y2247139D01*
X622234Y2241185D01*
X613815Y2232766D01*
X612206Y2229980D01*
X439669D01*
X438181Y2239375D01*
X431041Y2261350D01*
X420551Y2281938D01*
X406969Y2300631D01*
X390631Y2316969D01*
X371938Y2330551D01*
X351350Y2341041D01*
X329375Y2348181D01*
X306553Y2351795D01*
D02*
G37*
G36*
X2505000Y2184895D02*
Y2155000D01*
X2534895D01*
X2532615Y2163510D01*
X2528007Y2171490D01*
X2521490Y2178007D01*
X2513510Y2182615D01*
X2505000Y2184895D01*
D02*
G37*
G36*
X2495000D02*
X2486490Y2182615D01*
X2478510Y2178007D01*
X2471993Y2171490D01*
X2467385Y2163510D01*
X2465105Y2155000D01*
X2495000D01*
Y2184895D01*
D02*
G37*
G36*
X3545072Y1993527D02*
X3534928D01*
X3525129Y1990902D01*
X3516343Y1985830D01*
X3509170Y1978657D01*
X3504098Y1969871D01*
X3501472Y1960072D01*
Y1949928D01*
X3504098Y1940129D01*
X3509170Y1931343D01*
X3516343Y1924170D01*
X3525129Y1919098D01*
X3534928Y1916473D01*
X3545072D01*
X3554871Y1919098D01*
X3563657Y1924170D01*
X3570830Y1931343D01*
X3575902Y1940129D01*
X3578528Y1949928D01*
Y1960072D01*
X3575902Y1969871D01*
X3570830Y1978657D01*
X3563657Y1985830D01*
X3554871Y1990902D01*
X3545072Y1993527D01*
D02*
G37*
G36*
X3545204Y1894527D02*
X3545000D01*
Y1860000D01*
X3579528D01*
Y1860204D01*
X3576834Y1870257D01*
X3571630Y1879271D01*
X3564271Y1886630D01*
X3555257Y1891834D01*
X3545204Y1894527D01*
D02*
G37*
G36*
X3535000D02*
X3534796D01*
X3524743Y1891834D01*
X3515729Y1886630D01*
X3508370Y1879271D01*
X3503166Y1870257D01*
X3500472Y1860204D01*
Y1860000D01*
X3535000D01*
Y1894527D01*
D02*
G37*
G36*
X3579528Y1850000D02*
X3545000D01*
Y1815473D01*
X3545204D01*
X3555257Y1818166D01*
X3564271Y1823370D01*
X3571630Y1830729D01*
X3576834Y1839743D01*
X3579528Y1849796D01*
Y1850000D01*
D02*
G37*
G36*
X3535000D02*
X3500472D01*
Y1849796D01*
X3503166Y1839743D01*
X3508370Y1830729D01*
X3515729Y1823370D01*
X3524743Y1818166D01*
X3534796Y1815473D01*
X3535000D01*
Y1850000D01*
D02*
G37*
G36*
X2259504Y1945916D02*
X2250140Y1944053D01*
X2242201Y1938749D01*
X2241520Y1937730D01*
X2238256Y1937081D01*
X2235012Y1934913D01*
X2232844Y1931669D01*
X2232083Y1927843D01*
Y1916228D01*
X2232844Y1912402D01*
X2235012Y1909158D01*
X2235034Y1909143D01*
Y1868051D01*
X2232297Y1865314D01*
X2227821Y1857561D01*
X2225504Y1848914D01*
Y1839961D01*
X2227821Y1831314D01*
X2232297Y1823561D01*
X2238628Y1817231D01*
X2246381Y1812755D01*
X2255028Y1810438D01*
X2263980D01*
X2272628Y1812755D01*
X2280381Y1817231D01*
X2286711Y1823561D01*
X2291187Y1831314D01*
X2293504Y1839961D01*
Y1848914D01*
X2291187Y1857561D01*
X2286711Y1865314D01*
X2283974Y1868051D01*
Y1908355D01*
X2285176Y1909158D01*
X2287344Y1912402D01*
X2288105Y1916228D01*
Y1927843D01*
X2287344Y1931669D01*
X2285176Y1934913D01*
X2281932Y1937081D01*
X2278106Y1937842D01*
X2277413D01*
X2276807Y1938749D01*
X2268868Y1944053D01*
X2259504Y1945916D01*
D02*
G37*
G36*
X3055000Y1713468D02*
Y1685000D01*
X3083468D01*
X3081331Y1692978D01*
X3076904Y1700644D01*
X3070644Y1706904D01*
X3062978Y1711331D01*
X3055000Y1713468D01*
D02*
G37*
G36*
X3045000D02*
X3037022Y1711331D01*
X3029356Y1706904D01*
X3023096Y1700644D01*
X3018669Y1692978D01*
X3016532Y1685000D01*
X3045000D01*
Y1713468D01*
D02*
G37*
G36*
X3083468Y1675000D02*
X3055000D01*
Y1646532D01*
X3062978Y1648669D01*
X3070644Y1653096D01*
X3076904Y1659356D01*
X3081331Y1667022D01*
X3083468Y1675000D01*
D02*
G37*
G36*
X3045000D02*
X3016532D01*
X3018669Y1667022D01*
X3023096Y1659356D01*
X3029356Y1653096D01*
X3037022Y1648669D01*
X3045000Y1646532D01*
Y1675000D01*
D02*
G37*
G36*
X3270000Y1647544D02*
Y1615000D01*
X3302544D01*
X3299999Y1624497D01*
X3295055Y1633062D01*
X3288062Y1640055D01*
X3279497Y1644999D01*
X3270000Y1647544D01*
D02*
G37*
G36*
X3260000D02*
X3250503Y1644999D01*
X3241938Y1640055D01*
X3234945Y1633062D01*
X3230001Y1624497D01*
X3227456Y1615000D01*
X3260000D01*
Y1647544D01*
D02*
G37*
G36*
X3302544Y1605000D02*
X3270000D01*
Y1572456D01*
X3279497Y1575001D01*
X3288062Y1579945D01*
X3295055Y1586938D01*
X3299999Y1595503D01*
X3302544Y1605000D01*
D02*
G37*
G36*
X3260000D02*
X3227456D01*
X3230001Y1595503D01*
X3234945Y1586938D01*
X3241938Y1579945D01*
X3250503Y1575001D01*
X3260000Y1572456D01*
Y1605000D01*
D02*
G37*
G36*
X2594504Y1487906D02*
Y1459438D01*
X2622972D01*
X2620835Y1467415D01*
X2616408Y1475082D01*
X2610148Y1481342D01*
X2602482Y1485768D01*
X2594504Y1487906D01*
D02*
G37*
G36*
X2584504D02*
X2576526Y1485768D01*
X2568860Y1481342D01*
X2562600Y1475082D01*
X2558173Y1467415D01*
X2556036Y1459438D01*
X2584504D01*
Y1487906D01*
D02*
G37*
G36*
X2622972Y1449438D02*
X2594504D01*
Y1420969D01*
X2602482Y1423107D01*
X2610148Y1427533D01*
X2616408Y1433793D01*
X2620835Y1441460D01*
X2622972Y1449438D01*
D02*
G37*
G36*
X2584504D02*
X2556036D01*
X2558173Y1441460D01*
X2562600Y1433793D01*
X2568860Y1427533D01*
X2576526Y1423107D01*
X2584504Y1420969D01*
Y1449438D01*
D02*
G37*
G36*
X1662544Y1295000D02*
X1630000D01*
Y1262456D01*
X1639497Y1265001D01*
X1648062Y1269945D01*
X1655055Y1276938D01*
X1659999Y1285503D01*
X1662544Y1295000D01*
D02*
G37*
G36*
X1916553Y1541795D02*
X1893447D01*
X1870625Y1538181D01*
X1848650Y1531041D01*
X1828062Y1520551D01*
X1809369Y1506969D01*
X1793031Y1490631D01*
X1779449Y1471938D01*
X1768959Y1451350D01*
X1761819Y1429375D01*
X1760331Y1419980D01*
X1640000D01*
X1630441Y1418079D01*
X1622336Y1412664D01*
X1507336Y1297664D01*
X1501921Y1289559D01*
X1500020Y1280000D01*
Y1058777D01*
X1495745Y1054503D01*
X1490932Y1046166D01*
X1488441Y1036868D01*
Y1027242D01*
X1490932Y1017944D01*
X1495745Y1009607D01*
X1502552Y1002801D01*
X1510889Y997987D01*
X1520187Y995496D01*
X1529813D01*
X1539111Y997987D01*
X1547448Y1002801D01*
X1554255Y1009607D01*
X1559068Y1017944D01*
X1561559Y1027242D01*
Y1036868D01*
X1559068Y1046166D01*
X1554255Y1054503D01*
X1549980Y1058777D01*
Y1269653D01*
X1577441Y1297114D01*
X1582836Y1296003D01*
X1587881Y1293412D01*
X1590001Y1285503D01*
X1594945Y1276938D01*
X1601938Y1269945D01*
X1610503Y1265001D01*
X1620000Y1262456D01*
Y1300000D01*
X1625000D01*
Y1305000D01*
X1662544D01*
X1659999Y1314497D01*
X1655055Y1323062D01*
X1648062Y1330055D01*
X1639497Y1334999D01*
X1631588Y1337119D01*
X1628997Y1342164D01*
X1627886Y1347559D01*
X1650347Y1370020D01*
X1760331D01*
X1761819Y1360625D01*
X1768959Y1338650D01*
X1779449Y1318062D01*
X1793031Y1299369D01*
X1809369Y1283031D01*
X1828062Y1269449D01*
X1848650Y1258959D01*
X1870625Y1251819D01*
X1893447Y1248205D01*
X1916553D01*
X1939375Y1251819D01*
X1961350Y1258959D01*
X1981938Y1269449D01*
X2000631Y1283031D01*
X2016969Y1299369D01*
X2030551Y1318062D01*
X2041041Y1338650D01*
X2048181Y1360625D01*
X2051795Y1383447D01*
Y1406553D01*
X2048181Y1429375D01*
X2041041Y1451350D01*
X2030551Y1471938D01*
X2016969Y1490631D01*
X2000631Y1506969D01*
X1981938Y1520551D01*
X1961350Y1531041D01*
X1939375Y1538181D01*
X1916553Y1541795D01*
D02*
G37*
G36*
X2399504Y1176982D02*
Y1144438D01*
X2432048D01*
X2429503Y1153935D01*
X2424559Y1162499D01*
X2417566Y1169492D01*
X2409001Y1174437D01*
X2399504Y1176982D01*
D02*
G37*
G36*
X2389504D02*
X2380007Y1174437D01*
X2371442Y1169492D01*
X2364449Y1162499D01*
X2359505Y1153935D01*
X2356960Y1144438D01*
X2389504D01*
Y1176982D01*
D02*
G37*
G36*
X2432048Y1134438D02*
X2399504D01*
Y1101893D01*
X2409001Y1104438D01*
X2417566Y1109383D01*
X2424559Y1116376D01*
X2429503Y1124940D01*
X2432048Y1134438D01*
D02*
G37*
G36*
X2389504D02*
X2356960D01*
X2359505Y1124940D01*
X2364449Y1116376D01*
X2371442Y1109383D01*
X2380007Y1104438D01*
X2389504Y1101893D01*
Y1134438D01*
D02*
G37*
G36*
X3445072Y1893527D02*
X3434928D01*
X3425129Y1890902D01*
X3416343Y1885830D01*
X3409170Y1878657D01*
X3404098Y1869871D01*
X3401472Y1860072D01*
Y1849928D01*
X3404098Y1840129D01*
X3409170Y1831343D01*
X3415020Y1825494D01*
Y1565347D01*
X2906708Y1057035D01*
X2266722D01*
X2262448Y1061310D01*
X2254111Y1066123D01*
X2244813Y1068614D01*
X2235187D01*
X2225889Y1066123D01*
X2217552Y1061310D01*
X2210745Y1054503D01*
X2205932Y1046166D01*
X2203441Y1036868D01*
Y1027242D01*
X2205932Y1017944D01*
X2210745Y1009607D01*
X2215020Y1005333D01*
Y900859D01*
X2197535D01*
Y839552D01*
X2282465D01*
Y900859D01*
X2264980D01*
Y1005333D01*
X2266722Y1007075D01*
X2917055D01*
X2926614Y1008976D01*
X2934718Y1014391D01*
X3457664Y1537336D01*
X3463079Y1545440D01*
X3464980Y1555000D01*
Y1825494D01*
X3470830Y1831343D01*
X3475902Y1840129D01*
X3478528Y1849928D01*
Y1860072D01*
X3475902Y1869871D01*
X3470830Y1878657D01*
X3463657Y1885830D01*
X3454871Y1890902D01*
X3445072Y1893527D01*
D02*
G37*
G36*
X1944813Y1068614D02*
X1935187D01*
X1925889Y1066123D01*
X1917552Y1061310D01*
X1913278Y1057035D01*
X1851722D01*
X1847448Y1061310D01*
X1839111Y1066123D01*
X1829813Y1068614D01*
X1820187D01*
X1810889Y1066123D01*
X1802552Y1061310D01*
X1795745Y1054503D01*
X1790932Y1046166D01*
X1788441Y1036868D01*
Y1027242D01*
X1790932Y1017944D01*
X1795745Y1009607D01*
X1802552Y1002801D01*
X1810889Y997987D01*
X1820187Y995496D01*
X1829813D01*
X1839111Y997987D01*
X1847448Y1002801D01*
X1851722Y1007075D01*
X1877907D01*
X1882847Y997075D01*
X1879819Y993118D01*
X1879006D01*
X1869708Y990627D01*
X1861371Y985813D01*
X1854565Y979007D01*
X1849752Y970670D01*
X1847260Y961372D01*
Y951746D01*
X1849752Y942448D01*
X1854565Y934111D01*
X1861371Y927304D01*
X1869708Y922491D01*
X1879006Y920000D01*
X1888632D01*
X1897930Y922491D01*
X1906267Y927304D01*
X1913074Y934111D01*
X1917887Y942448D01*
X1920378Y951746D01*
Y959394D01*
X1953049Y992065D01*
X1958464Y1000169D01*
X1958538Y1000543D01*
X1962448Y1002801D01*
X1969255Y1009607D01*
X1974068Y1017944D01*
X1976559Y1027242D01*
Y1036868D01*
X1974068Y1046166D01*
X1969255Y1054503D01*
X1962448Y1061310D01*
X1954111Y1066123D01*
X1944813Y1068614D01*
D02*
G37*
G36*
X2283465Y795558D02*
X2245000D01*
Y768905D01*
X2283465D01*
Y795558D01*
D02*
G37*
G36*
X2235000D02*
X2196535D01*
Y768905D01*
X2235000D01*
Y795558D01*
D02*
G37*
G36*
X2283465Y758905D02*
X2245000D01*
Y732251D01*
X2283465D01*
Y758905D01*
D02*
G37*
G36*
X2235000D02*
X2196535D01*
Y732251D01*
X2235000D01*
Y758905D01*
D02*
G37*
G36*
X1888819Y694103D02*
Y661559D01*
X1921363D01*
X1918819Y671056D01*
X1913874Y679621D01*
X1906881Y686614D01*
X1898316Y691558D01*
X1888819Y694103D01*
D02*
G37*
G36*
X1878819D02*
X1869322Y691558D01*
X1860757Y686614D01*
X1853764Y679621D01*
X1848820Y671056D01*
X1846275Y661559D01*
X1878819D01*
Y694103D01*
D02*
G37*
G36*
X1921363Y651559D02*
X1888819D01*
Y619015D01*
X1898316Y621560D01*
X1906881Y626504D01*
X1913874Y633497D01*
X1918819Y642062D01*
X1921363Y651559D01*
D02*
G37*
G36*
X1878819D02*
X1846275D01*
X1848820Y642062D01*
X1853764Y633497D01*
X1860757Y626504D01*
X1869322Y621560D01*
X1878819Y619015D01*
Y651559D01*
D02*
G37*
G36*
X1814813Y486559D02*
X1805187D01*
X1795889Y484068D01*
X1787552Y479255D01*
X1783278Y474980D01*
X1671722D01*
X1667448Y479255D01*
X1659111Y484068D01*
X1649813Y486559D01*
X1640187D01*
X1630889Y484068D01*
X1622552Y479255D01*
X1615745Y472448D01*
X1610932Y464111D01*
X1608441Y454813D01*
Y445187D01*
X1610932Y435889D01*
X1615745Y427552D01*
X1622552Y420745D01*
X1630889Y415932D01*
X1640187Y413441D01*
X1649813D01*
X1659111Y415932D01*
X1667448Y420745D01*
X1671722Y425020D01*
X1737348D01*
X1741175Y415781D01*
X1731953Y406559D01*
X1725187D01*
X1715889Y404068D01*
X1707552Y399255D01*
X1700745Y392448D01*
X1695932Y384111D01*
X1693441Y374813D01*
Y365187D01*
X1695932Y355889D01*
X1700745Y347552D01*
X1707552Y340745D01*
X1715889Y335932D01*
X1725187Y333441D01*
X1734813D01*
X1744111Y335932D01*
X1752448Y340745D01*
X1759255Y347552D01*
X1764068Y355889D01*
X1766559Y365187D01*
Y371953D01*
X1808047Y413441D01*
X1814813D01*
X1824111Y415932D01*
X1832448Y420745D01*
X1839255Y427552D01*
X1844068Y435889D01*
X1846559Y445187D01*
Y454813D01*
X1844068Y464111D01*
X1839255Y472448D01*
X1832448Y479255D01*
X1824111Y484068D01*
X1814813Y486559D01*
D02*
G37*
G36*
X3554939Y345086D02*
X3548307D01*
Y202291D01*
X3691102D01*
Y208923D01*
X3687463Y231900D01*
X3680274Y254025D01*
X3669713Y274753D01*
X3656039Y293573D01*
X3639589Y310023D01*
X3620769Y323697D01*
X3600041Y334258D01*
X3577916Y341447D01*
X3554939Y345086D01*
D02*
G37*
G36*
X3538307D02*
X3531675D01*
X3508698Y341447D01*
X3486573Y334258D01*
X3465845Y323697D01*
X3447025Y310023D01*
X3430575Y293573D01*
X3416901Y274753D01*
X3406340Y254025D01*
X3399151Y231900D01*
X3395512Y208923D01*
Y202291D01*
X3538307D01*
Y345086D01*
D02*
G37*
G36*
X208482Y344646D02*
X201850D01*
Y201850D01*
X344646D01*
Y208482D01*
X341007Y231459D01*
X333818Y253584D01*
X323256Y274312D01*
X309582Y293133D01*
X293133Y309582D01*
X274312Y323256D01*
X253584Y333818D01*
X231459Y341007D01*
X208482Y344646D01*
D02*
G37*
G36*
X191850D02*
X185219D01*
X162242Y341007D01*
X140117Y333818D01*
X119389Y323256D01*
X100568Y309582D01*
X84118Y293133D01*
X70445Y274312D01*
X59883Y253584D01*
X52694Y231459D01*
X49055Y208482D01*
Y201850D01*
X191850D01*
Y344646D01*
D02*
G37*
G36*
X2265000Y183468D02*
Y155000D01*
X2293468D01*
X2291331Y162978D01*
X2286904Y170644D01*
X2280644Y176904D01*
X2272978Y181331D01*
X2265000Y183468D01*
D02*
G37*
G36*
X2255000D02*
X2247022Y181331D01*
X2239356Y176904D01*
X2233096Y170644D01*
X2228669Y162978D01*
X2226532Y155000D01*
X2255000D01*
Y183468D01*
D02*
G37*
G36*
X2293468Y145000D02*
X2265000D01*
Y116532D01*
X2272978Y118669D01*
X2280644Y123096D01*
X2286904Y129356D01*
X2291331Y137022D01*
X2293468Y145000D01*
D02*
G37*
G36*
X2255000D02*
X2226532D01*
X2228669Y137022D01*
X2233096Y129356D01*
X2239356Y123096D01*
X2247022Y118669D01*
X2255000Y116532D01*
Y145000D01*
D02*
G37*
G36*
X1735000Y107544D02*
Y75000D01*
X1767544D01*
X1764999Y84497D01*
X1760055Y93062D01*
X1753062Y100055D01*
X1744497Y104999D01*
X1735000Y107544D01*
D02*
G37*
G36*
X1725000D02*
X1715503Y104999D01*
X1706938Y100055D01*
X1699945Y93062D01*
X1695001Y84497D01*
X1692456Y75000D01*
X1725000D01*
Y107544D01*
D02*
G37*
G36*
X3691102Y192291D02*
X3548307D01*
Y49496D01*
X3554939D01*
X3577916Y53135D01*
X3600041Y60324D01*
X3620769Y70885D01*
X3639589Y84559D01*
X3656039Y101009D01*
X3669713Y119829D01*
X3680274Y140557D01*
X3687463Y162682D01*
X3691102Y185659D01*
Y192291D01*
D02*
G37*
G36*
X3538307D02*
X3395512D01*
Y185659D01*
X3399151Y162682D01*
X3406340Y140557D01*
X3416901Y119829D01*
X3430575Y101009D01*
X3447025Y84559D01*
X3465845Y70885D01*
X3486573Y60324D01*
X3508698Y53135D01*
X3531675Y49496D01*
X3538307D01*
Y192291D01*
D02*
G37*
G36*
X344646Y191850D02*
X201850D01*
Y49055D01*
X208482D01*
X231459Y52694D01*
X253584Y59883D01*
X274312Y70445D01*
X293133Y84118D01*
X309582Y100568D01*
X323256Y119389D01*
X333818Y140117D01*
X341007Y162242D01*
X344646Y185219D01*
Y191850D01*
D02*
G37*
G36*
X191850D02*
X49055D01*
Y185219D01*
X52694Y162242D01*
X59883Y140117D01*
X70445Y119389D01*
X84118Y100568D01*
X100568Y84118D01*
X119389Y70445D01*
X140117Y59883D01*
X162242Y52694D01*
X185219Y49055D01*
X191850D01*
Y191850D01*
D02*
G37*
G36*
X1767544Y65000D02*
X1735000D01*
Y32456D01*
X1744497Y35001D01*
X1753062Y39945D01*
X1760055Y46938D01*
X1764999Y55503D01*
X1767544Y65000D01*
D02*
G37*
G36*
X1725000D02*
X1692456D01*
X1695001Y55503D01*
X1699945Y46938D01*
X1706938Y39945D01*
X1715503Y35001D01*
X1725000Y32456D01*
Y65000D01*
D02*
G37*
%LPD*%
G36*
X2010047Y3197923D02*
X2012651Y3196405D01*
X2014766Y3188510D01*
X2019243Y3180757D01*
X2025573Y3174427D01*
X2033326Y3169951D01*
X2041973Y3167634D01*
X2050926D01*
X2058289Y3169607D01*
X2067930Y3159967D01*
Y3042543D01*
X2019274D01*
Y3083981D01*
X2025877Y3087793D01*
X2032207Y3094124D01*
X2036683Y3101876D01*
X2039000Y3110524D01*
Y3119476D01*
X2036683Y3128124D01*
X2032207Y3135876D01*
X2025877Y3142207D01*
X2018123Y3146683D01*
X2009476Y3149000D01*
X2000524D01*
X1991877Y3146683D01*
X1984123Y3142207D01*
X1977793Y3135876D01*
X1973317Y3128124D01*
X1971000Y3119476D01*
Y3110524D01*
X1973317Y3101876D01*
X1977793Y3094124D01*
X1984123Y3087793D01*
X1985233Y3087152D01*
X1985045Y3084284D01*
X1974770Y3080417D01*
X1970093Y3085093D01*
X1965463Y3088188D01*
X1960000Y3089274D01*
X1959999Y3089274D01*
X1935001D01*
X1935000Y3089274D01*
X1929537Y3088188D01*
X1924907Y3085093D01*
X1924906Y3085093D01*
X1882560Y3042747D01*
X1879466Y3038116D01*
X1878379Y3032654D01*
X1878379Y3032653D01*
Y3028425D01*
X1871877Y3026683D01*
X1864123Y3022207D01*
X1857793Y3015876D01*
X1853317Y3008124D01*
X1851000Y2999476D01*
Y2990524D01*
X1853317Y2981876D01*
X1857793Y2974124D01*
X1863514Y2968402D01*
X1864123Y2967081D01*
Y2957919D01*
X1863514Y2956598D01*
X1857793Y2950876D01*
X1853317Y2943124D01*
X1851000Y2934476D01*
Y2925524D01*
X1853317Y2916876D01*
X1857793Y2909124D01*
X1864123Y2902793D01*
X1871877Y2898317D01*
X1880524Y2896000D01*
X1889476D01*
X1898123Y2898317D01*
X1905877Y2902793D01*
X1912207Y2909124D01*
X1916019Y2915726D01*
X1974999D01*
X1975000Y2915726D01*
X1980463Y2916812D01*
X1985093Y2919907D01*
X1999084Y2933897D01*
X2008323Y2930070D01*
Y2821945D01*
X2076515D01*
X2080342Y2812706D01*
X2075969Y2808333D01*
X2072875Y2803702D01*
X2072613Y2802387D01*
X1998700D01*
Y2808387D01*
X1984842D01*
Y2764922D01*
X1979842D01*
Y2759922D01*
X1960984D01*
Y2721457D01*
X1982128D01*
X1986271Y2711457D01*
X1932164Y2657351D01*
X1928123Y2659683D01*
X1919476Y2662000D01*
X1910524D01*
X1901877Y2659683D01*
X1894123Y2655207D01*
X1887793Y2648876D01*
X1883317Y2641124D01*
X1881000Y2632476D01*
Y2623524D01*
X1883317Y2614876D01*
X1887793Y2607124D01*
X1894123Y2600793D01*
X1900669Y2597014D01*
X1901783Y2592261D01*
X1901640Y2586028D01*
X1899705Y2584910D01*
X1893374Y2578580D01*
X1888898Y2570827D01*
X1886581Y2562180D01*
Y2553227D01*
X1888898Y2544580D01*
X1893374Y2536827D01*
X1899705Y2530497D01*
X1907457Y2526020D01*
X1916105Y2523703D01*
X1925057D01*
X1933705Y2526020D01*
X1941457Y2530497D01*
X1947788Y2536827D01*
X1952264Y2544580D01*
X1954581Y2553227D01*
Y2562180D01*
X1953056Y2567869D01*
X2032340Y2647153D01*
X2042340Y2643011D01*
Y2551615D01*
X2042340Y2551614D01*
X2043426Y2546151D01*
X2046521Y2541521D01*
X2178122Y2409919D01*
X2178122Y2409919D01*
X2182753Y2406824D01*
X2188216Y2405738D01*
X2188216Y2405738D01*
X2197688D01*
X2198538Y2404266D01*
X2204869Y2397935D01*
X2212622Y2393459D01*
X2221269Y2391142D01*
X2220607Y2381416D01*
X2180802D01*
X2112799Y2449419D01*
X2108168Y2452514D01*
X2102705Y2453600D01*
X2102705Y2453600D01*
X1748569D01*
X1744742Y2462839D01*
X1815093Y2533191D01*
X1815093Y2533191D01*
X1818188Y2537822D01*
X1819274Y2543284D01*
X1819274Y2543285D01*
Y3017171D01*
X2002449Y3200346D01*
X2010047Y3197923D01*
D02*
G37*
G36*
X2208554Y2726812D02*
X2214016Y2725726D01*
X2214017Y2725726D01*
X2238981D01*
X2242793Y2719124D01*
X2247782Y2714134D01*
X2248321Y2706341D01*
X2247618Y2702115D01*
X2241993Y2696490D01*
X2237385Y2688510D01*
X2235105Y2680000D01*
X2270000D01*
Y2675000D01*
X2275000D01*
Y2640105D01*
X2283510Y2642385D01*
X2285987Y2643816D01*
X2295987Y2638042D01*
Y2433547D01*
X2260297Y2397857D01*
X2252952Y2404266D01*
X2257428Y2412019D01*
X2259745Y2420666D01*
Y2429618D01*
X2257428Y2438266D01*
X2252952Y2446019D01*
X2247048Y2451923D01*
X2246608Y2452547D01*
X2246249Y2457572D01*
X2246848Y2463765D01*
X2252207Y2469124D01*
X2256683Y2476876D01*
X2259000Y2485524D01*
Y2494476D01*
X2256683Y2503124D01*
X2252207Y2510876D01*
X2246485Y2516598D01*
X2245876Y2517919D01*
Y2527081D01*
X2246485Y2528402D01*
X2252207Y2534124D01*
X2256683Y2541876D01*
X2259000Y2550524D01*
Y2559476D01*
X2256683Y2568124D01*
X2252207Y2575876D01*
X2245876Y2582207D01*
X2241910Y2584497D01*
Y2595503D01*
X2245876Y2597793D01*
X2252207Y2604124D01*
X2256683Y2611876D01*
X2259000Y2620524D01*
Y2629476D01*
X2258456Y2631506D01*
X2264280Y2638637D01*
X2265000Y2639073D01*
Y2670000D01*
X2235105D01*
X2235727Y2667678D01*
X2232390Y2663045D01*
X2227700Y2659000D01*
X2220524D01*
X2211876Y2656683D01*
X2204124Y2652207D01*
X2197793Y2645876D01*
X2193317Y2638124D01*
X2192560Y2635298D01*
X2173250D01*
Y2727457D01*
X2207588D01*
X2208554Y2726812D01*
D02*
G37*
G36*
X2282500Y2072500D02*
X2247500D01*
X2282500Y2107500D01*
Y2072500D01*
D02*
G37*
G36*
X2471547Y1877090D02*
X2480057Y1879370D01*
X2483589Y1881409D01*
X2493589Y1876035D01*
Y1828942D01*
X2495218Y1820748D01*
X2499860Y1813802D01*
X2556882Y1756779D01*
Y1750143D01*
X2559105Y1741846D01*
X2563400Y1734407D01*
X2569474Y1728333D01*
X2572803Y1726411D01*
X2570123Y1716411D01*
X2527811D01*
X2430753Y1813468D01*
X2431063Y1814624D01*
Y1824251D01*
X2428572Y1833549D01*
X2426254Y1837563D01*
X2426411Y1838354D01*
Y1891502D01*
X2436411Y1894181D01*
X2438540Y1890494D01*
X2445057Y1883978D01*
X2453038Y1879370D01*
X2461547Y1877090D01*
Y1911985D01*
X2471547D01*
Y1877090D01*
D02*
G37*
G36*
X1905181Y2415813D02*
X1789600Y2300232D01*
X1785352Y2294696D01*
X1782682Y2288250D01*
X1781771Y2281332D01*
Y2091696D01*
X1782682Y2084778D01*
X1785352Y2078332D01*
X1789600Y2072796D01*
X1867298Y1995098D01*
X1766100Y1893900D01*
X1761852Y1888364D01*
X1759182Y1881918D01*
X1758271Y1875000D01*
Y1791355D01*
X1757793Y1790877D01*
X1753317Y1783123D01*
X1751000Y1774476D01*
Y1765524D01*
X1753317Y1756877D01*
X1757793Y1749123D01*
X1764123Y1742793D01*
X1771877Y1738317D01*
X1780524Y1736000D01*
X1789476D01*
X1798123Y1738317D01*
X1805877Y1742793D01*
X1812207Y1749123D01*
X1816683Y1756877D01*
X1819000Y1765524D01*
Y1774476D01*
X1816683Y1783123D01*
X1812207Y1790877D01*
X1811729Y1791355D01*
Y1863929D01*
X1902389Y1954589D01*
X1903878D01*
X1905616Y1954818D01*
X1928362D01*
X1930378Y1954818D01*
Y1954818D01*
X1938362D01*
Y1954818D01*
X1980378D01*
X1984390Y1946480D01*
Y1885000D01*
Y1850000D01*
Y1759717D01*
X1849653Y1624980D01*
X1651722D01*
X1647448Y1629255D01*
X1639111Y1634068D01*
X1629813Y1636559D01*
X1620187D01*
X1610889Y1634068D01*
X1602552Y1629255D01*
X1598278Y1624980D01*
X1390347D01*
X1260610Y1754717D01*
Y1937539D01*
X1270610Y1945821D01*
X1270726Y1945799D01*
Y1890001D01*
X1270726Y1890000D01*
X1271812Y1884537D01*
X1274907Y1879907D01*
X1298906Y1855907D01*
X1298907Y1855907D01*
X1303537Y1852812D01*
X1309000Y1851726D01*
X1385798D01*
X1385799Y1851726D01*
X1391261Y1852812D01*
X1395892Y1855907D01*
X1539093Y1999107D01*
X1539093Y1999108D01*
X1542188Y2003738D01*
X1543274Y2009201D01*
Y2233087D01*
X1735238Y2425052D01*
X1901354D01*
X1905181Y2415813D01*
D02*
G37*
%LPC*%
G36*
X1974842Y2808387D02*
X1960984D01*
Y2769922D01*
X1974842D01*
Y2808387D01*
D02*
G37*
G36*
X1616891Y2230361D02*
Y2201892D01*
X1645360D01*
X1643222Y2209870D01*
X1638796Y2217537D01*
X1632536Y2223797D01*
X1624869Y2228223D01*
X1616891Y2230361D01*
D02*
G37*
G36*
X1606891D02*
X1598914Y2228223D01*
X1591247Y2223797D01*
X1584987Y2217537D01*
X1580561Y2209870D01*
X1578423Y2201892D01*
X1606891D01*
Y2230361D01*
D02*
G37*
G36*
X1645360Y2191892D02*
X1616891D01*
Y2163424D01*
X1624869Y2165562D01*
X1632536Y2169988D01*
X1638796Y2176248D01*
X1643222Y2183915D01*
X1645360Y2191892D01*
D02*
G37*
G36*
X1606891D02*
X1578423D01*
X1580561Y2183915D01*
X1584987Y2176248D01*
X1591247Y2169988D01*
X1598914Y2165562D01*
X1606891Y2163424D01*
Y2191892D01*
D02*
G37*
%LPD*%
D11*
X3610000Y2135000D02*
X3670000Y2195000D01*
X3615000Y2600000D02*
X3670000Y2545000D01*
Y2195000D02*
Y2545000D01*
X3540000Y2155000D02*
X3550385D01*
X3570385Y2135000D01*
X3610000D01*
X3165000Y2350000D02*
X3190000Y2375000D01*
X3279142D01*
X3165000Y2315000D02*
Y2350000D01*
X3279142Y2375000D02*
X3335000Y2319142D01*
X3240757Y2329243D02*
X3250757D01*
X3280000Y2300000D01*
X2069618Y2962613D02*
X2177387D01*
X2064346Y2967885D02*
X2069618Y2962613D01*
X2064346Y2967885D02*
Y2972740D01*
X2027166Y2965858D02*
Y3001220D01*
X2005000Y2960000D02*
X2021308D01*
X2027166Y2965858D01*
Y3001220D02*
X2031024Y3005078D01*
X2105062Y3007812D02*
Y3198175D01*
X1805000Y3023083D02*
X2022551Y3240634D01*
X2046449Y3201634D02*
X2082204Y3165879D01*
X2022551Y3240634D02*
X2062604D01*
X2105062Y3198175D01*
X2082204Y3005078D02*
Y3165879D01*
X1425000Y1990000D02*
X1509000Y2074000D01*
X1385000Y1990000D02*
X1425000D01*
X1509000Y2074000D02*
Y2247284D01*
X3230000Y2055000D02*
Y2180458D01*
X3330000Y1955000D02*
X3440000D01*
X3230000Y2055000D02*
X3330000Y1955000D01*
X3236367Y1918633D02*
X3256367D01*
X3265000Y1910000D01*
X3165000Y1990000D02*
X3236367Y1918633D01*
X3057204Y1990000D02*
X3165000D01*
X3050000Y1980000D02*
X3058602Y1988602D01*
Y1993082D01*
X3050000Y2115000D02*
X3105000Y2170000D01*
X3050000Y1980000D02*
Y2115000D01*
X3105000Y2170000D02*
Y2335000D01*
X3280000Y2120000D02*
X3355000Y2045000D01*
X3280000Y2120000D02*
Y2300000D01*
X2560000Y2712134D02*
X2576614Y2695520D01*
Y2278386D02*
Y2695520D01*
X2560000Y2712134D02*
Y2720000D01*
X2400407Y3055407D02*
X2535000Y3190000D01*
X2680000D01*
X2400407Y2480000D02*
Y3055407D01*
X2259438Y2803368D02*
X2270262D01*
X2102823Y2815000D02*
X2247806D01*
X2259438Y2803368D01*
X2086062Y2798239D02*
X2102823Y2815000D01*
X2333754Y2297324D02*
Y2891099D01*
X2067532Y2031102D02*
X2333754Y2297324D01*
X2018917Y1859547D02*
X2028464Y1869094D01*
X2044094D02*
X2265000Y2090000D01*
X2028464Y1869094D02*
X2044094D01*
X2009370Y1885000D02*
X2017323Y1877047D01*
X2025276Y1869094D01*
X2265000Y2090000D02*
X2380407Y2205407D01*
X2265000Y2090000D02*
X2300000Y2055000D01*
X2650000D01*
X2455000Y2090000D02*
X2525000D01*
X2631654Y2196654D01*
X2400000Y2140000D02*
X2450500Y2089500D01*
X2455000Y2094000D01*
X2650000Y2055000D02*
X2740000Y2145000D01*
X2649528Y2265710D02*
X2653386Y2269568D01*
X2009370Y1869094D02*
X2025276D01*
X2060046Y1954676D02*
Y1988142D01*
Y1954676D02*
X2070580Y1944142D01*
X2078864D01*
X2352754Y2218032D02*
Y3012246D01*
X2059370Y1988818D02*
X2060046Y1988142D01*
X2078864Y1944142D02*
X2352754Y2218032D01*
X2380407Y2205407D02*
Y2380430D01*
X1988662Y2031102D02*
X2067532D01*
X1285000Y2135552D02*
Y2211260D01*
X1385799Y1866000D02*
X1529000Y2009201D01*
X1285000Y1890000D02*
X1309000Y1866000D01*
X1385799D01*
X1285000Y1890000D02*
Y1990000D01*
X1265630Y2116182D02*
X1285000Y2135552D01*
X1284871Y2211260D02*
X1284936Y2211324D01*
X1235000Y2211260D02*
X1284871D01*
X1963390Y2458326D02*
X2110575D01*
X1729326Y2439326D02*
X2102705D01*
X1529000Y2239000D02*
X1729326Y2439326D01*
X1875000Y2546716D02*
X1963390Y2458326D01*
X2009370Y2134370D02*
Y2210078D01*
X2275000Y2419243D02*
Y2670000D01*
X2241899Y2386142D02*
X2275000Y2419243D01*
X2182759Y2386142D02*
X2241899D01*
X2174889Y2367142D02*
X2249769D01*
X2310262Y2427634D01*
X2102705Y2439326D02*
X2174889Y2367142D01*
X2110575Y2458326D02*
X2182759Y2386142D01*
X2310262Y2427634D02*
Y2886307D01*
X1967559Y2260487D02*
X2063397Y2356326D01*
X2068326D01*
X1920581Y2557703D02*
X1922703D01*
X1875000Y2546716D02*
Y2650780D01*
X1915000Y2628000D02*
X1923000D01*
X1922703Y2557703D02*
X2031024Y2666024D01*
X1875000Y2650780D02*
X1962724Y2738504D01*
X1923000Y2628000D02*
X2005434Y2710434D01*
X2162778Y2555000D02*
X2225000D01*
X2221024Y2621024D02*
X2225000Y2625000D01*
X2164834Y2621024D02*
X2221024D01*
X2155000Y2490000D02*
X2225000D01*
X2188216Y2420012D02*
X2220615D01*
X2225745Y2425142D01*
X2270000Y2675000D02*
X2275000Y2670000D01*
X1967559Y2210078D02*
Y2260487D01*
X1284936Y2211324D02*
X1285000Y2211260D01*
X3229458Y2181000D02*
X3230000Y2180458D01*
X2086062Y2768780D02*
Y2798239D01*
X2177387Y2962613D02*
X2270000Y2870000D01*
X1975000Y2930000D02*
X2005000Y2960000D01*
X2056614Y2980472D02*
Y3005078D01*
Y2980472D02*
X2064346Y2972740D01*
X1885000Y2930000D02*
X1975000D01*
X2400000Y2140000D02*
Y2365000D01*
X2480407Y2445407D01*
Y2815407D01*
X2440407Y2440430D02*
Y2764843D01*
X2480407Y2815407D02*
X2855000Y3190000D01*
X2980000D01*
X2350000Y3015000D02*
X2352754Y3012246D01*
X2310000Y2914853D02*
X2333754Y2891099D01*
X2105062Y3007812D02*
X2107796Y3005078D01*
X2133386Y3061628D02*
X2145855Y3074097D01*
Y3084921D01*
X2133386Y3005078D02*
Y3061628D01*
X2161708Y3007810D02*
Y3045619D01*
X2158976Y3005078D02*
X2161708Y3007810D01*
Y3045619D02*
X2220088Y3104000D01*
X2276000D01*
X2197958Y3055000D02*
X2268568D01*
X2187300Y3007812D02*
Y3044341D01*
X2184566Y3005078D02*
X2187300Y3007812D01*
Y3044341D02*
X2197958Y3055000D01*
X3180000Y2575000D02*
X3590000D01*
X2870000Y2265000D02*
X3180000Y2575000D01*
X3590000D02*
X3635000Y2530000D01*
X2210158Y2743858D02*
Y2764922D01*
X3635000Y2450000D02*
Y2530000D01*
X2775000Y2470000D02*
X2870000Y2565000D01*
X2210158Y3011142D02*
X2214016Y3015000D01*
X2005000Y3005512D02*
Y3115000D01*
X2056614Y2551614D02*
Y2764922D01*
X2810000Y2720000D02*
X2880000Y2650000D01*
X2602204Y2259685D02*
Y2278386D01*
X3490000Y2305000D02*
X3540000Y2355000D01*
X1892654Y3032654D02*
X1935000Y3075000D01*
X3430614Y2045614D02*
X3440000Y2055000D01*
X292500Y2207500D02*
X295000Y2205000D01*
X2107796Y2537204D02*
Y2764922D01*
X3335000Y2180000D02*
Y2319142D01*
X1975984Y2738504D02*
X1979842Y2742362D01*
X2290000Y2906568D02*
X2310262Y2886307D01*
X1962724Y2738504D02*
X1975984D01*
X1885000Y2995000D02*
X1892654Y3002654D01*
X2653386Y2268858D02*
X2657244Y2265000D01*
X3409615Y2045000D02*
X3410228Y2045614D01*
X2631654Y2196654D02*
Y2265710D01*
X2009370Y2134370D02*
X2028740Y2115000D01*
X2133386Y2584392D02*
X2162778Y2555000D01*
X2631654Y2265710D02*
X2649528D01*
X3335000Y2180000D02*
X3360000Y2155000D01*
X2672130Y2584000D02*
X2710000Y2620000D01*
X3650000D02*
X3710000Y2560000D01*
X3635000Y2450000D02*
X3635858Y2449142D01*
X2268568Y3055000D02*
X2290000Y3033568D01*
X3635858Y2440858D02*
Y2449142D01*
X2627796Y2451614D02*
Y2512796D01*
X2380407Y2380430D02*
X2440407Y2440430D01*
X2602204Y2451614D02*
Y2514074D01*
X3492929Y2127071D02*
X3510000Y2110000D01*
X3660000D01*
X3710000Y2160000D01*
X2210158Y2743858D02*
X2214016Y2740000D01*
X2276000Y3104000D02*
X2310000Y3070000D01*
X3410228Y2045614D02*
X3430614D01*
X1960000Y3075000D02*
X1976691Y3058309D01*
X2507654Y2192654D02*
X2570827Y2255827D01*
X3490000Y2146753D02*
X3490000Y2130000D01*
X1892654Y3002654D02*
Y3032654D01*
X2507654Y2157654D02*
Y2192654D01*
X2627796Y2269568D02*
Y2278386D01*
X3355000Y2045000D02*
X3409615D01*
X2657244Y2265000D02*
X2775000D01*
X2158976Y2626882D02*
Y2764922D01*
X2056614Y2551614D02*
X2188216Y2420012D01*
X2133386Y2584392D02*
Y2764922D01*
X2210158Y3005078D02*
Y3011142D01*
X2775000Y2265000D02*
X2870000D01*
X1959370Y1988818D02*
Y2001810D01*
X1727500Y450000D02*
X1730000Y447500D01*
X3440000Y2455000D02*
X3490000Y2405000D01*
X3600000D01*
X3635858Y2440858D01*
X2009370Y2210078D02*
X2059370D01*
X2158976Y2626882D02*
X2164834Y2621024D01*
X2576614Y2278386D02*
X2602204D01*
X1976691Y3008229D02*
X1979842Y3005078D01*
X2082204Y2764922D02*
X2086062Y2768780D01*
X3490000Y2130000D02*
X3492929Y2127071D01*
X1959370Y2001810D02*
X1988662Y2031102D01*
X2005434Y2710434D02*
Y2764922D01*
X2627796Y2269568D02*
X2631654Y2265710D01*
X2031024Y2666024D02*
Y2764922D01*
X1979842Y2742362D02*
Y2764922D01*
X2310000Y2914853D02*
Y3070000D01*
X650000Y2205000D02*
X652500Y2202500D01*
X2259504Y1921446D02*
X2260094Y1922036D01*
X2627796Y2512796D02*
X2680000Y2565000D01*
X2710000Y2620000D02*
X3650000D01*
X2880000Y2650000D02*
X3255000D01*
X1280000Y2890000D02*
X1485000Y3095000D01*
X1525000Y1032055D02*
X1533527D01*
X1805000Y2543284D02*
Y3023083D01*
X3490000Y2146753D02*
Y2305000D01*
X2602204Y2514074D02*
X2672130Y2584000D01*
X2214016Y2740000D02*
X2270000D01*
X2657244Y2470000D02*
X2775000D01*
X2870000Y2565000D02*
X2905000Y2600000D01*
X1509000Y2247284D02*
X1805000Y2543284D01*
X2653386Y2269568D02*
Y2278386D01*
X2214016Y3015000D02*
X2250000D01*
X2653386Y2451614D02*
Y2466142D01*
X3710000Y2160000D02*
Y2560000D01*
X2598346Y2255827D02*
X2602204Y2259685D01*
X2290000Y2906568D02*
Y3033568D01*
X3255000Y2650000D02*
X3355000Y2750000D01*
X2500000Y2150000D02*
X2507654Y2157654D01*
X3360000Y2155000D02*
X3440000D01*
X1280000Y2760000D02*
Y2890000D01*
X2107796Y2537204D02*
X2155000Y2490000D01*
X2680000Y2565000D02*
X2775000D01*
X2653386Y2466142D02*
X2657244Y2470000D01*
X2905000Y2600000D02*
X3615000D01*
X1935000Y3075000D02*
X1960000D01*
X1529000Y2009201D02*
Y2239000D01*
X1976691Y3008229D02*
Y3058309D01*
D28*
X850000Y2205000D02*
D03*
D29*
X750000D02*
D03*
X650000D02*
D03*
D37*
X2260094Y1922036D02*
D03*
X2358914Y1959438D02*
D03*
Y1922036D02*
D03*
Y1996840D02*
D03*
X2260094D02*
D03*
D38*
X1959370Y1988818D02*
D03*
X2059370D02*
D03*
X1909370D02*
D03*
X2009370D02*
D03*
X1385000Y1990000D02*
D03*
X1285000D02*
D03*
X1335000D02*
D03*
X1235000D02*
D03*
D39*
X1959370Y2210078D02*
D03*
X2059370D02*
D03*
X2009370D02*
D03*
X1909370D02*
D03*
X1385000Y2211260D02*
D03*
X1285000D02*
D03*
X1335000D02*
D03*
X1235000D02*
D03*
D40*
X2033780Y2190038D02*
D03*
X1934960D02*
D03*
X1359410Y2191222D02*
D03*
X1260590D02*
D03*
D41*
X2028740Y2115000D02*
D03*
X1940000D02*
D03*
X1354370Y2116182D02*
D03*
X1265630D02*
D03*
D42*
X2095000Y2885000D02*
D03*
D43*
X1979842Y3005078D02*
D03*
X2005434D02*
D03*
X2031024D02*
D03*
X2056614D02*
D03*
X2082204D02*
D03*
X2107796D02*
D03*
X2133386D02*
D03*
X2158976D02*
D03*
X2184566D02*
D03*
X2210158D02*
D03*
Y2764922D02*
D03*
X2184566D02*
D03*
X2158976D02*
D03*
X2133386D02*
D03*
X2107796D02*
D03*
X2082204D02*
D03*
X2056614D02*
D03*
X2031024D02*
D03*
X2005434D02*
D03*
X1979842D02*
D03*
D44*
X2240000Y763905D02*
D03*
Y870205D02*
D03*
D45*
X2627796Y2278386D02*
D03*
X2653386D02*
D03*
X2576614D02*
D03*
Y2451614D02*
D03*
X2602204Y2278386D02*
D03*
Y2451614D02*
D03*
X2627796D02*
D03*
X2653386D02*
D03*
D46*
X296369Y2694094D02*
Y2991369D01*
X353740Y3048740D01*
X453424D01*
X2009370Y1850000D02*
Y1869094D01*
Y1885000D02*
Y1988818D01*
Y1869094D02*
Y1885000D01*
Y1749370D02*
Y1850000D01*
X1235630Y1744370D02*
Y1980500D01*
X1380000Y1600000D02*
X1625000D01*
X1235630Y1744370D02*
X1380000Y1600000D01*
X1345000Y450000D02*
Y1400000D01*
X2240000Y685000D02*
Y763905D01*
X1883819Y656559D02*
X2211559D01*
X2240000Y685000D01*
Y1032055D02*
X2917055D01*
X3440000Y1555000D01*
X2240000Y870205D02*
Y1032055D01*
X2600000Y450000D02*
X3633696Y1483696D01*
X2260000Y450000D02*
X2600000D01*
X3633696Y1483696D02*
Y2036841D01*
X2110000Y450000D02*
X2260000D01*
X1625000Y1600000D02*
X1625000Y1600000D01*
X1860000D01*
X2009370Y1749370D01*
X1909370Y2210078D02*
X1959370D01*
X1371449Y2133261D02*
Y2197709D01*
X1922921Y2132079D02*
Y2196527D01*
X1081870Y2966870D02*
X1085000Y2963740D01*
X1283307Y2275000D02*
X1335000Y2223307D01*
Y2211260D02*
Y2223307D01*
X1020000Y2205000D02*
X1090000Y2275000D01*
X1283307D01*
X850000Y2205000D02*
X1020000D01*
X1860000Y2259448D02*
Y2260000D01*
Y2259448D02*
X1909370Y2210078D01*
X3540000Y2055000D02*
X3615537D01*
X3633696Y2036841D01*
X1935385Y1027440D02*
X1940000Y1032055D01*
X1935385Y1009728D02*
Y1027440D01*
X1883819Y958162D02*
X1935385Y1009728D01*
X1883819Y956559D02*
Y958162D01*
X1506892Y2496892D02*
X1611891D01*
X2462912Y1915620D02*
Y1935414D01*
X1727500Y450000D02*
X1810000D01*
X1525000Y1032055D02*
Y1280000D01*
X3440000Y1555000D02*
Y1855000D01*
X1922921Y2132079D02*
X1940000Y2115000D01*
X1354370Y2116182D02*
X1371449Y2133261D01*
X855000Y2210000D02*
Y2970000D01*
X1730000Y70000D02*
X1810000Y150000D01*
X1640000Y1395000D02*
X1905000D01*
X1645000Y450000D02*
X1727500D01*
X1611891Y2496892D02*
X1614999Y2500000D01*
X2438888Y1959438D02*
X2462912Y1935414D01*
Y1915620D02*
X2466547Y1911985D01*
X750000Y2205000D02*
X754992Y2200008D01*
X858130Y2966870D02*
X1081870D01*
X1385000Y2235000D02*
X1465000Y2315000D01*
X855000Y2970000D02*
X858130Y2966870D01*
X1909370Y2210078D02*
X1922921Y2196527D01*
X1385000Y2211260D02*
Y2235000D01*
X295000Y2205000D02*
X650000D01*
X1825000Y1032055D02*
X1940000D01*
X1525000Y1280000D02*
X1640000Y1395000D01*
X1882500Y957878D02*
X1883819Y956559D01*
X1465000Y2455000D02*
X1506892Y2496892D01*
X2367233Y1959438D02*
X2438888D01*
X850000Y2205000D02*
X855000Y2210000D01*
X1810000Y150000D02*
X2260000D01*
X1371449Y2197709D02*
X1385000Y2211260D01*
X1465000Y2315000D02*
Y2455000D01*
D47*
X1165000Y1565000D02*
X1340000Y1390000D01*
X1165000Y1915000D02*
Y2200941D01*
Y1565000D02*
Y1915000D01*
Y2200941D02*
X1175000Y2210941D01*
Y2215000D01*
X1255502Y2106054D02*
X1265630Y2116182D01*
X1335000Y1905000D02*
Y1990000D01*
X1177870Y2212130D02*
X1234130D01*
X1175000Y2215000D02*
X1177870Y2212130D01*
X1234130D02*
X1235000Y2211260D01*
X1255038Y2191222D01*
X1263110Y2118702D02*
Y2179824D01*
Y2118702D02*
X1265630Y2116182D01*
X2137130Y2287838D02*
Y2317130D01*
X2140000Y2320000D01*
X2059370Y2210078D02*
X2137130Y2287838D01*
X1808500Y2281332D02*
X1934994Y2407826D01*
X2089658D01*
X1891318Y1981318D02*
X1903878D01*
X1785000Y1770000D02*
Y1875000D01*
X1891318Y1981318D01*
X1903878D02*
X1909370Y1986810D01*
X1808500Y2091696D02*
X1900098Y2000098D01*
X1909370Y1990826D01*
Y1986810D02*
Y1990826D01*
X2137130Y2322870D02*
X2140000Y2320000D01*
X2137130Y2322870D02*
Y2360353D01*
X2089658Y2407826D02*
X2137130Y2360353D01*
X1808500Y2091696D02*
Y2281332D01*
D48*
X1730000Y370000D02*
X1810000Y450000D01*
X2259504Y1844438D02*
Y1921446D01*
X2394504Y1439438D02*
Y1519438D01*
X2172354Y1566587D02*
Y1947288D01*
X2219504Y1519438D02*
X2394504D01*
X2221906Y1996840D02*
X2260094D01*
X2172354Y1566587D02*
X2219504Y1519438D01*
X2172354Y1947288D02*
X2221906Y1996840D01*
D49*
X2936606Y2291606D02*
X3190000Y2545000D01*
X3448385D01*
X3538385Y2455000D01*
X2589504Y1754438D02*
X2649438D01*
X2394504Y1819438D02*
Y1827858D01*
X2359012Y1996938D02*
X2454421D01*
X2358914Y1922036D02*
X2359012Y1921938D01*
X2405000Y1838354D02*
Y1900000D01*
X2394504Y1819438D02*
X2518942Y1695000D01*
X2665000D01*
X2383062Y1921938D02*
X2405000Y1900000D01*
X2359012Y1921938D02*
X2383062D01*
X2665000Y1695000D02*
X2936606Y1966607D01*
X2358914Y1996840D02*
X2359012Y1996938D01*
X3538385Y2455000D02*
X3540000D01*
X2936606Y1966607D02*
Y2291606D01*
X2515000Y1828942D02*
X2589504Y1754438D01*
X2649438D02*
X2740000Y1845000D01*
X2515000Y1828942D02*
Y1936358D01*
X2454421Y1996938D02*
X2515000Y1936358D01*
X2394504Y1827858D02*
X2405000Y1838354D01*
D50*
X196850Y3150047D02*
D03*
X3543307D02*
D03*
Y197291D02*
D03*
X196850Y196850D02*
D03*
X1340000Y1390000D02*
D03*
X295000Y2205000D02*
D03*
X296369Y2694094D02*
D03*
X1905000Y1395000D02*
D03*
D51*
X3050000Y1680000D02*
D03*
Y1980000D02*
D03*
X1611891Y2196892D02*
D03*
Y2496892D02*
D03*
X3175000Y2720000D02*
D03*
Y3020000D02*
D03*
X1280000Y2760000D02*
D03*
Y3060000D02*
D03*
X1705000D02*
D03*
Y2760000D02*
D03*
X2560000Y2720000D02*
D03*
Y3020000D02*
D03*
X2589504Y1454438D02*
D03*
Y1754438D02*
D03*
X2810000Y2720000D02*
D03*
Y3020000D02*
D03*
X2260000Y150000D02*
D03*
Y450000D02*
D03*
D52*
X1090000Y2361260D02*
D03*
D53*
Y2968740D02*
D03*
D54*
X2394504Y1139438D02*
D03*
Y1439438D02*
D03*
X2740000Y1845000D02*
D03*
Y2145000D02*
D03*
X3265000Y1610000D02*
D03*
Y1910000D02*
D03*
X2110000Y450000D02*
D03*
X1810000D02*
D03*
X1625000Y1300000D02*
D03*
Y1600000D02*
D03*
X2240000Y1032055D02*
D03*
X1940000D02*
D03*
X2980000Y3190000D02*
D03*
X2680000D02*
D03*
X2775000Y2565000D02*
D03*
Y2265000D02*
D03*
X2870000D02*
D03*
Y2565000D02*
D03*
X3355000Y2750000D02*
D03*
Y3050000D02*
D03*
X1490591Y3095839D02*
D03*
Y2795839D02*
D03*
X1730000Y70000D02*
D03*
Y370000D02*
D03*
X1345000Y450000D02*
D03*
X1645000D02*
D03*
X1525000Y1032055D02*
D03*
X1825000D02*
D03*
X1883819Y656559D02*
D03*
Y956559D02*
D03*
X2394504Y1819438D02*
D03*
Y1519438D02*
D03*
D55*
X3540000Y1855000D02*
D03*
X3440000D02*
D03*
X3540000Y1955000D02*
D03*
X3440000D02*
D03*
X3540000Y2055000D02*
D03*
X3440000D02*
D03*
X3540000Y2155000D02*
D03*
X3440000D02*
D03*
X3540000Y2255000D02*
D03*
X3440000D02*
D03*
X3540000Y2355000D02*
D03*
X3440000D02*
D03*
X3540000Y2455000D02*
D03*
D56*
X3440000D02*
D03*
D57*
X453424Y3048740D02*
D03*
X855000Y2970000D02*
D03*
D58*
X3240757Y2329243D02*
D03*
X2046449Y3201634D02*
D03*
X3105000Y2335000D02*
D03*
X2455000Y2094000D02*
D03*
X1335000Y1905000D02*
D03*
X1165000Y1915000D02*
D03*
X1175000Y2215000D02*
D03*
X2068326Y2356326D02*
D03*
X1920581Y2557703D02*
D03*
X1915000Y2628000D02*
D03*
X2225000Y2490000D02*
D03*
Y2625000D02*
D03*
Y2555000D02*
D03*
X2225745Y2425142D02*
D03*
X2270000Y2675000D02*
D03*
X2140000Y2320000D02*
D03*
X1860000Y2260000D02*
D03*
X3229458Y2181000D02*
D03*
X2145855Y3084921D02*
D03*
X2270000Y2870000D02*
D03*
X2466547Y1911985D02*
D03*
X2270000Y2740000D02*
D03*
X2259504Y1844438D02*
D03*
X2440407Y2764843D02*
D03*
X1785000Y1770000D02*
D03*
X2270262Y2803368D02*
D03*
X2500000Y2150000D02*
D03*
X2350000Y3015000D02*
D03*
X1885000Y2930000D02*
D03*
X2250000Y3015000D02*
D03*
X2005000Y3115000D02*
D03*
X2400407Y2480000D02*
D03*
X3165000Y2315000D02*
D03*
X1885000Y2995000D02*
D03*
M02*
