M48
;Layer_Color=9474304
;FILE_FORMAT=2:4
INCH
;TYPE=PLATED
T01F00S00C0.0276
T02F00S00C0.0280
T03F00S00C0.0335
T04F00S00C0.0354
T05F00S00C0.0488
T06F00S00C0.0508
T07F00S00C0.0591
T08F00S00C0.1575
T09F00S00C0.2165
%
T01
X022600Y001500
Y004500
X025895Y014544
X031750Y027200
Y030200
X028100
X025600
Y027200
X028100
X030500Y019800
Y016800
X025895Y017544
X016119Y021969
Y024969
X017050Y027600
Y030600
X012800
Y027600
T02
X032295Y021810
X032408Y023292
X031650Y023150
X031050Y023350
X025000Y021500
X024550Y020940
X024665Y019120
X022595Y018444
X017850Y017700
X018600Y022600
X020683Y023563
X021400Y023200
X022257Y024251
X022250Y024900
Y025550
Y026250
X022700Y026750
Y027400
X022703Y028034
X022700Y028700
X022500Y030150
X023500
X021459Y030849
X020050Y031150
X018850Y029950
Y029300
X019150Y026280
X019206Y025577
X024004Y024800
X024404Y027648
X011750Y022150
X011650Y019150
X013350Y019050
X020464Y032016
T03
X013450Y004500
X015250Y010321
X018250
X019400
X018838Y009566
Y006566
X018100Y004500
X017300Y003700
X016450Y004500
X021100
X022400Y010321
X023945Y011394
Y014394
Y015194
X016250Y013000
X017300Y000700
X032650Y016100
Y019100
X033550Y027500
Y030500
X028700Y025650
X027750
Y022650
X028700
X027400Y021450
Y018450
X023945Y018194
X016250Y016000
X014906Y027958
Y030958
X026800Y031900
X029800
T04
X034400Y018550
X035400
Y019550
X034400
Y020550
X035400
Y021550
X034400
Y022550
X035400
Y023550
X034400
Y024550
X035400
T05
X006500Y022050
X007500
X008500
T06
X010900Y023613
Y029687
T07
X004534Y030487
X008550Y029700
T08
X013400Y013900
X019050Y013950
X002950Y022050
X002964Y026941
T09
X001969Y001969
X035433Y001973
X001969Y031500
X035433
M30
