G04*
G04 #@! TF.GenerationSoftware,Altium Limited,Altium Designer,25.3.3 (18)*
G04*
G04 Layer_Color=65535*
%FSLAX26Y26*%
%MOIN*%
G70*
G04*
G04 #@! TF.SameCoordinates,14895927-405C-4533-9FDA-7E114B43C09E*
G04*
G04*
G04 #@! TF.FilePolarity,Positive*
G04*
G01*
G75*
%ADD10C,0.007874*%
%ADD11C,0.010000*%
%ADD12C,0.009842*%
%ADD13C,0.003937*%
%ADD14C,0.001968*%
%ADD15C,0.005000*%
%ADD16C,0.008000*%
G36*
X3094578Y782507D02*
X3097288D01*
Y781604D01*
X3099095D01*
Y780701D01*
X3099998D01*
Y779797D01*
X3100901D01*
Y778894D01*
X3101805D01*
Y777991D01*
X3102708D01*
Y776184D01*
X3103611D01*
Y774377D01*
X3104515D01*
Y712048D01*
X3132518D01*
Y712952D01*
X3135228D01*
Y712048D01*
X3137938D01*
Y710242D01*
X3138841D01*
Y680432D01*
X3137938D01*
Y679529D01*
X3137034D01*
Y678625D01*
X3136131D01*
Y677722D01*
X3124388D01*
Y627136D01*
X3123485D01*
Y619006D01*
X3122581D01*
Y614490D01*
X3121678D01*
Y610876D01*
X3120775D01*
Y608166D01*
X3119871D01*
Y605457D01*
X3118968D01*
Y603650D01*
X3118065D01*
Y601843D01*
X3117161D01*
Y600037D01*
X3116258D01*
Y598230D01*
X3115355D01*
Y597327D01*
X3114451D01*
Y595520D01*
X3113548D01*
Y593713D01*
X3112645D01*
Y592810D01*
X3111741D01*
Y591907D01*
X3110838D01*
Y591003D01*
X3109935D01*
Y589197D01*
X3109031D01*
Y588293D01*
X3108128D01*
Y587390D01*
X3107225D01*
Y586487D01*
X3106321D01*
Y585583D01*
X3105418D01*
Y584680D01*
X3104515D01*
Y583777D01*
X3103611D01*
Y582874D01*
X3102708D01*
Y581970D01*
X3101805D01*
Y581067D01*
X3099998D01*
Y580163D01*
X3099095D01*
Y579260D01*
X3098191D01*
Y578357D01*
X3096385D01*
Y577453D01*
X3095482D01*
Y576550D01*
X3093675D01*
Y575647D01*
X3091868D01*
Y574744D01*
X3090965D01*
Y573840D01*
X3088255D01*
Y572937D01*
X3086448D01*
Y572034D01*
X3083738D01*
Y571130D01*
X3081932D01*
Y570227D01*
X3079222D01*
Y569324D01*
X3075608D01*
Y568420D01*
X3070189D01*
Y567517D01*
X3065672D01*
Y566614D01*
X3064769D01*
Y563904D01*
X3065672D01*
Y562097D01*
X3064769D01*
Y546741D01*
X3063865D01*
Y540417D01*
X3062962D01*
Y536804D01*
X3062059D01*
Y533191D01*
X3061155D01*
Y529578D01*
X3060252D01*
Y526868D01*
X3059349D01*
Y524158D01*
X3058445D01*
Y522351D01*
X3057542D01*
Y519641D01*
X3056639D01*
Y517834D01*
X3055735D01*
Y516028D01*
X3054832D01*
Y514221D01*
X3053929D01*
Y512414D01*
X3053026D01*
Y511511D01*
X3052122D01*
Y509704D01*
X3051219D01*
Y507898D01*
X3050316D01*
Y506091D01*
X3049412D01*
Y505188D01*
X3048509D01*
Y504285D01*
X3047606D01*
Y502478D01*
X3046702D01*
Y501575D01*
X3045799D01*
Y500671D01*
X3044896D01*
Y498865D01*
X3043992D01*
Y497961D01*
X3043089D01*
Y497058D01*
X3042186D01*
Y496155D01*
X3041282D01*
Y495251D01*
X3040379D01*
Y494348D01*
X3039476D01*
Y493445D01*
X3038572D01*
Y492541D01*
X3037669D01*
Y491638D01*
X3036766D01*
Y490735D01*
X3035862D01*
Y489832D01*
X3034959D01*
Y488928D01*
X3034056D01*
Y488025D01*
X3033153D01*
Y487122D01*
X3032249D01*
Y486218D01*
X3031346D01*
Y485315D01*
X3030443D01*
Y484411D01*
X3029539D01*
Y483508D01*
X3027733D01*
Y482605D01*
X3026829D01*
Y481702D01*
X3025926D01*
Y480798D01*
X3024119D01*
Y479895D01*
X3023216D01*
Y478992D01*
X3022313D01*
Y478088D01*
X3020506D01*
Y477185D01*
X3019603D01*
Y476282D01*
X3018699D01*
Y475378D01*
X3016893D01*
Y474475D01*
X3015989D01*
Y473572D01*
X3014183D01*
Y472668D01*
X3013279D01*
Y471765D01*
X3012376D01*
Y470862D01*
X3010570D01*
Y469958D01*
X3009666D01*
Y469055D01*
X3008763D01*
Y468152D01*
X3007860D01*
Y467248D01*
X3006956D01*
Y466345D01*
X3005150D01*
Y465442D01*
X3004246D01*
Y464538D01*
X3003343D01*
Y463635D01*
X3002440D01*
Y462732D01*
X3001536D01*
Y461829D01*
X3000633D01*
Y460925D01*
X2999730D01*
Y459119D01*
X2998826D01*
Y458215D01*
X2997923D01*
Y457312D01*
X2997020D01*
Y456409D01*
X2996116D01*
Y454602D01*
X2995213D01*
Y453699D01*
X2994310D01*
Y451892D01*
X2993406D01*
Y450989D01*
X2992503D01*
Y449182D01*
X2991600D01*
Y447375D01*
X2990696D01*
Y445569D01*
X2989793D01*
Y443762D01*
X2988890D01*
Y441052D01*
X2987986D01*
Y439245D01*
X2987083D01*
Y436536D01*
X2986180D01*
Y432922D01*
X2985276D01*
Y426599D01*
X2984373D01*
Y411243D01*
X2985276D01*
Y404919D01*
X2986180D01*
Y401306D01*
X2987083D01*
Y397693D01*
X2987986D01*
Y395886D01*
X2988890D01*
Y393176D01*
X2989793D01*
Y391370D01*
X2990696D01*
Y389563D01*
X2991600D01*
Y387756D01*
X2992503D01*
Y385950D01*
X2993406D01*
Y385046D01*
X2994310D01*
Y383240D01*
X2995213D01*
Y382336D01*
X2996116D01*
Y380530D01*
X2997020D01*
Y379626D01*
X2997923D01*
Y378723D01*
X2998826D01*
Y376916D01*
X2999730D01*
Y376013D01*
X3000633D01*
Y375110D01*
X3001536D01*
Y374207D01*
X3002440D01*
Y373303D01*
X3003343D01*
Y372400D01*
X3004246D01*
Y371497D01*
X3005150D01*
Y370593D01*
X3006053D01*
Y369690D01*
X3006956D01*
Y368786D01*
X3007860D01*
Y367883D01*
X3009666D01*
Y366980D01*
X3010570D01*
Y366077D01*
X3012376D01*
Y365173D01*
X3013279D01*
Y364270D01*
X3015086D01*
Y363367D01*
X3015989D01*
Y362463D01*
X3017796D01*
Y361560D01*
X3019603D01*
Y360657D01*
X3021409D01*
Y359753D01*
X3023216D01*
Y358850D01*
X3025926D01*
Y357947D01*
X3028636D01*
Y357043D01*
X3031346D01*
Y356140D01*
X3034959D01*
Y355237D01*
X3039476D01*
Y354333D01*
X3048509D01*
Y353430D01*
X3245433D01*
Y324524D01*
X3044896D01*
Y325427D01*
X3035862D01*
Y326330D01*
X3031346D01*
Y327234D01*
X3027733D01*
Y328137D01*
X3025023D01*
Y329040D01*
X3022313D01*
Y329944D01*
X3019603D01*
Y330847D01*
X3016893D01*
Y331750D01*
X3014183D01*
Y332654D01*
X3012376D01*
Y333557D01*
X3009666D01*
Y334460D01*
X3008763D01*
Y335364D01*
X3006956D01*
Y336267D01*
X3005150D01*
Y337170D01*
X3003343D01*
Y338074D01*
X3001536D01*
Y338977D01*
X2999730D01*
Y339880D01*
X2998826D01*
Y340784D01*
X2997020D01*
Y341687D01*
X2995213D01*
Y342590D01*
X2994310D01*
Y343494D01*
X2993406D01*
Y344397D01*
X2991600D01*
Y345300D01*
X2990696D01*
Y346204D01*
X2989793D01*
Y347107D01*
X2988890D01*
Y348010D01*
X2987083D01*
Y348913D01*
X2986180D01*
Y349817D01*
X2985276D01*
Y350720D01*
X2984373D01*
Y351623D01*
X2983470D01*
Y352527D01*
X2982566D01*
Y353430D01*
X2981663D01*
Y354333D01*
X2980760D01*
Y355237D01*
X2979857D01*
Y356140D01*
X2978953D01*
Y357043D01*
X2978050D01*
Y357947D01*
X2977147D01*
Y358850D01*
X2976243D01*
Y360657D01*
X2975340D01*
Y361560D01*
X2974437D01*
Y362463D01*
X2973533D01*
Y363367D01*
X2972630D01*
Y365173D01*
X2971727D01*
Y366077D01*
X2970823D01*
Y366980D01*
X2969920D01*
Y368786D01*
X2969017D01*
Y370593D01*
X2968113D01*
Y371497D01*
X2967210D01*
Y373303D01*
X2966307D01*
Y375110D01*
X2965403D01*
Y376916D01*
X2964500D01*
Y378723D01*
X2963597D01*
Y380530D01*
X2962693D01*
Y383240D01*
X2961790D01*
Y385950D01*
X2960887D01*
Y387756D01*
X2959983D01*
Y390466D01*
X2959080D01*
Y394079D01*
X2958177D01*
Y398596D01*
X2957274D01*
Y403113D01*
X2956370D01*
Y411243D01*
X2955467D01*
Y422986D01*
X2956370D01*
Y433826D01*
X2957274D01*
Y439245D01*
X2958177D01*
Y442859D01*
X2959080D01*
Y446472D01*
X2959983D01*
Y449182D01*
X2960887D01*
Y450989D01*
X2961790D01*
Y453699D01*
X2962693D01*
Y455505D01*
X2963597D01*
Y458215D01*
X2964500D01*
Y460022D01*
X2965403D01*
Y461829D01*
X2966307D01*
Y463635D01*
X2967210D01*
Y465442D01*
X2968113D01*
Y466345D01*
X2969017D01*
Y468152D01*
X2969920D01*
Y469958D01*
X2970823D01*
Y470862D01*
X2971727D01*
Y472668D01*
X2972630D01*
Y473572D01*
X2973533D01*
Y474475D01*
X2974437D01*
Y476282D01*
X2975340D01*
Y477185D01*
X2976243D01*
Y478088D01*
X2977147D01*
Y478992D01*
X2978050D01*
Y480798D01*
X2978953D01*
Y481702D01*
X2979857D01*
Y482605D01*
X2980760D01*
Y483508D01*
X2981663D01*
Y484411D01*
X2982566D01*
Y485315D01*
X2983470D01*
Y486218D01*
X2984373D01*
Y487122D01*
X2985276D01*
Y488025D01*
X2986180D01*
Y488928D01*
X2987083D01*
Y489832D01*
X2988890D01*
Y490735D01*
X2989793D01*
Y491638D01*
X2990696D01*
Y492541D01*
X2991600D01*
Y493445D01*
X2992503D01*
Y494348D01*
X2994310D01*
Y495251D01*
X2995213D01*
Y496155D01*
X2996116D01*
Y497058D01*
X2997020D01*
Y497961D01*
X2998826D01*
Y498865D01*
X2999730D01*
Y499768D01*
X3001536D01*
Y500671D01*
X3002440D01*
Y501575D01*
X3003343D01*
Y502478D01*
X3005150D01*
Y503381D01*
X3006053D01*
Y504285D01*
X3006956D01*
Y505188D01*
X3008763D01*
Y506091D01*
X3009666D01*
Y506995D01*
X3010570D01*
Y507898D01*
X3012376D01*
Y508801D01*
X3013279D01*
Y509704D01*
X3014183D01*
Y510608D01*
X3015086D01*
Y511511D01*
X3015989D01*
Y512414D01*
X3016893D01*
Y513318D01*
X3017796D01*
Y514221D01*
X3018699D01*
Y515124D01*
X3019603D01*
Y516931D01*
X3020506D01*
Y517834D01*
X3021409D01*
Y518738D01*
X3022313D01*
Y520544D01*
X3023216D01*
Y521448D01*
X3024119D01*
Y523254D01*
X3025023D01*
Y525061D01*
X3025926D01*
Y525964D01*
X3026829D01*
Y528674D01*
X3027733D01*
Y530481D01*
X3028636D01*
Y532288D01*
X3029539D01*
Y534997D01*
X3030443D01*
Y537707D01*
X3031346D01*
Y541321D01*
X3032249D01*
Y544934D01*
X3033153D01*
Y550354D01*
X3034056D01*
Y567517D01*
X3029539D01*
Y568420D01*
X3025023D01*
Y569324D01*
X3021409D01*
Y570227D01*
X3017796D01*
Y571130D01*
X3015989D01*
Y572034D01*
X3013279D01*
Y572937D01*
X3011473D01*
Y573840D01*
X3009666D01*
Y574744D01*
X3007860D01*
Y575647D01*
X3006956D01*
Y576550D01*
X3005150D01*
Y577453D01*
X3003343D01*
Y578357D01*
X3002440D01*
Y579260D01*
X3001536D01*
Y580163D01*
X2999730D01*
Y581067D01*
X2998826D01*
Y581970D01*
X2997923D01*
Y582874D01*
X2997020D01*
Y583777D01*
X2996116D01*
Y584680D01*
X2995213D01*
Y585583D01*
X2994310D01*
Y586487D01*
X2993406D01*
Y587390D01*
X2992503D01*
Y588293D01*
X2991600D01*
Y589197D01*
X2990696D01*
Y591003D01*
X2989793D01*
Y591907D01*
X2988890D01*
Y592810D01*
X2987986D01*
Y594617D01*
X2987083D01*
Y595520D01*
X2986180D01*
Y597327D01*
X2985276D01*
Y598230D01*
X2984373D01*
Y600037D01*
X2983470D01*
Y601843D01*
X2982566D01*
Y603650D01*
X2981663D01*
Y606360D01*
X2980760D01*
Y609070D01*
X2979857D01*
Y610876D01*
X2978953D01*
Y614490D01*
X2978050D01*
Y618103D01*
X2977147D01*
Y625330D01*
X2976243D01*
Y677722D01*
X2975340D01*
Y676819D01*
X2974437D01*
Y677722D01*
X2973533D01*
Y676819D01*
X2969017D01*
Y677722D01*
X2964500D01*
Y678625D01*
X2962693D01*
Y680432D01*
X2961790D01*
Y710242D01*
X2962693D01*
Y711145D01*
X2963597D01*
Y712048D01*
X2997923D01*
Y776184D01*
X2998826D01*
Y777087D01*
X2999730D01*
Y778894D01*
X3000633D01*
Y779797D01*
X3001536D01*
Y780701D01*
X3003343D01*
Y781604D01*
X3004246D01*
Y782507D01*
X3006956D01*
Y783411D01*
X3015989D01*
Y782507D01*
X3018699D01*
Y781604D01*
X3019603D01*
Y780701D01*
X3021409D01*
Y779797D01*
X3022313D01*
Y777991D01*
X3023216D01*
Y777087D01*
X3024119D01*
Y774377D01*
X3025023D01*
Y712048D01*
X3076512D01*
Y773474D01*
X3077415D01*
Y776184D01*
X3078318D01*
Y777991D01*
X3079222D01*
Y778894D01*
X3080125D01*
Y779797D01*
X3081028D01*
Y780701D01*
X3082835D01*
Y781604D01*
X3083738D01*
Y782507D01*
X3086448D01*
Y783411D01*
X3094578D01*
Y782507D01*
D02*
G37*
G36*
X3284276Y712048D02*
X3290599D01*
Y711145D01*
X3295115D01*
Y710242D01*
X3298729D01*
Y709338D01*
X3301439D01*
Y708435D01*
X3304149D01*
Y707532D01*
X3306858D01*
Y706628D01*
X3309568D01*
Y705725D01*
X3311375D01*
Y704822D01*
X3314085D01*
Y703918D01*
X3315892D01*
Y703015D01*
X3317698D01*
Y702112D01*
X3318602D01*
Y701208D01*
X3320408D01*
Y700305D01*
X3322215D01*
Y699402D01*
X3323118D01*
Y698499D01*
X3324925D01*
Y697595D01*
X3325828D01*
Y696692D01*
X3327635D01*
Y695788D01*
X3328538D01*
Y694885D01*
X3329441D01*
Y693982D01*
X3331248D01*
Y693078D01*
X3332151D01*
Y692175D01*
X3333055D01*
Y691272D01*
X3333958D01*
Y690369D01*
X3334861D01*
Y689465D01*
X3335765D01*
Y688562D01*
X3336668D01*
Y687659D01*
X3337571D01*
Y686755D01*
X3338475D01*
Y685852D01*
X3339378D01*
Y684949D01*
X3340281D01*
Y684045D01*
X3341185D01*
Y683142D01*
X3342088D01*
Y681335D01*
X3342991D01*
Y679529D01*
X3342088D01*
Y678625D01*
X3340281D01*
Y677722D01*
X3339378D01*
Y676819D01*
X3338475D01*
Y675915D01*
X3336668D01*
Y675012D01*
X3335765D01*
Y674109D01*
X3334861D01*
Y673206D01*
X3333055D01*
Y672302D01*
X3332151D01*
Y671399D01*
X3331248D01*
Y670495D01*
X3329441D01*
Y669592D01*
X3328538D01*
Y668689D01*
X3327635D01*
Y667786D01*
X3325828D01*
Y666882D01*
X3324925D01*
Y665979D01*
X3324022D01*
Y665076D01*
X3322215D01*
Y664172D01*
X3321312D01*
Y663269D01*
X3320408D01*
Y662366D01*
X3318602D01*
Y661462D01*
X3317698D01*
Y660559D01*
X3314988D01*
Y661462D01*
X3314085D01*
Y662366D01*
X3313182D01*
Y663269D01*
X3312278D01*
Y664172D01*
X3310472D01*
Y665076D01*
X3309568D01*
Y665979D01*
X3308665D01*
Y666882D01*
X3307762D01*
Y667786D01*
X3305955D01*
Y668689D01*
X3305052D01*
Y669592D01*
X3303245D01*
Y670495D01*
X3302342D01*
Y671399D01*
X3300535D01*
Y672302D01*
X3298729D01*
Y673206D01*
X3296922D01*
Y674109D01*
X3295115D01*
Y675012D01*
X3292405D01*
Y675915D01*
X3289695D01*
Y676819D01*
X3286082D01*
Y677722D01*
X3281566D01*
Y678625D01*
X3274339D01*
Y679529D01*
X3267112D01*
Y678625D01*
X3259886D01*
Y677722D01*
X3256273D01*
Y676819D01*
X3252659D01*
Y675915D01*
X3249949D01*
Y675012D01*
X3248143D01*
Y674109D01*
X3246336D01*
Y673206D01*
X3244529D01*
Y672302D01*
X3242723D01*
Y671399D01*
X3240916D01*
Y670495D01*
X3240013D01*
Y669592D01*
X3238206D01*
Y668689D01*
X3237303D01*
Y667786D01*
X3236400D01*
Y666882D01*
X3235496D01*
Y665979D01*
X3233690D01*
Y665076D01*
X3232786D01*
Y664172D01*
X3231883D01*
Y663269D01*
X3230980D01*
Y662366D01*
X3230076D01*
Y661462D01*
X3229173D01*
Y660559D01*
X3228270D01*
Y659656D01*
X3227366D01*
Y657849D01*
X3226463D01*
Y656946D01*
X3225560D01*
Y656042D01*
X3224656D01*
Y654236D01*
X3223753D01*
Y653332D01*
X3222850D01*
Y651526D01*
X3221946D01*
Y649719D01*
X3221043D01*
Y647913D01*
X3220140D01*
Y646106D01*
X3219236D01*
Y644299D01*
X3218333D01*
Y642493D01*
X3217430D01*
Y639783D01*
X3216526D01*
Y637073D01*
X3215623D01*
Y633459D01*
X3214720D01*
Y628943D01*
X3213816D01*
Y620813D01*
X3212913D01*
Y615393D01*
X3213816D01*
Y614490D01*
X3212913D01*
Y613586D01*
X3213816D01*
Y604553D01*
X3214720D01*
Y600037D01*
X3215623D01*
Y596423D01*
X3216526D01*
Y593713D01*
X3217430D01*
Y591003D01*
X3218333D01*
Y589197D01*
X3219236D01*
Y587390D01*
X3220140D01*
Y585583D01*
X3221043D01*
Y583777D01*
X3221946D01*
Y582874D01*
X3222850D01*
Y581067D01*
X3223753D01*
Y579260D01*
X3224656D01*
Y578357D01*
X3225560D01*
Y577453D01*
X3226463D01*
Y575647D01*
X3227366D01*
Y574744D01*
X3228270D01*
Y573840D01*
X3229173D01*
Y572937D01*
X3230076D01*
Y572034D01*
X3230980D01*
Y571130D01*
X3231883D01*
Y570227D01*
X3232786D01*
Y569324D01*
X3233690D01*
Y568420D01*
X3234593D01*
Y567517D01*
X3236400D01*
Y566614D01*
X3237303D01*
Y565710D01*
X3238206D01*
Y564807D01*
X3240013D01*
Y563904D01*
X3240916D01*
Y563000D01*
X3242723D01*
Y562097D01*
X3244529D01*
Y561194D01*
X3246336D01*
Y560290D01*
X3248143D01*
Y559387D01*
X3249949D01*
Y558484D01*
X3252659D01*
Y557581D01*
X3256273D01*
Y556677D01*
X3258983D01*
Y555774D01*
X3264403D01*
Y554870D01*
X3281566D01*
Y555774D01*
X3286985D01*
Y556677D01*
X3290599D01*
Y557581D01*
X3294212D01*
Y558484D01*
X3296922D01*
Y559387D01*
X3299632D01*
Y560290D01*
X3301439D01*
Y561194D01*
X3303245D01*
Y562097D01*
X3305052D01*
Y563000D01*
X3306858D01*
Y563904D01*
X3307762D01*
Y564807D01*
X3309568D01*
Y565710D01*
X3310472D01*
Y566614D01*
X3312278D01*
Y578357D01*
X3313182D01*
Y597327D01*
X3312278D01*
Y598230D01*
X3269822D01*
Y629846D01*
X3270726D01*
Y630749D01*
X3271629D01*
Y629846D01*
X3277952D01*
Y630749D01*
X3280662D01*
Y629846D01*
X3281566D01*
Y630749D01*
X3282469D01*
Y629846D01*
X3283372D01*
Y630749D01*
X3290599D01*
Y629846D01*
X3293309D01*
Y630749D01*
X3302342D01*
Y629846D01*
X3303245D01*
Y630749D01*
X3304149D01*
Y629846D01*
X3305052D01*
Y630749D01*
X3305955D01*
Y629846D01*
X3307762D01*
Y630749D01*
X3310472D01*
Y629846D01*
X3311375D01*
Y630749D01*
X3313182D01*
Y629846D01*
X3314085D01*
Y630749D01*
X3316795D01*
Y629846D01*
X3319505D01*
Y630749D01*
X3320408D01*
Y629846D01*
X3321312D01*
Y630749D01*
X3323118D01*
Y629846D01*
X3324022D01*
Y630749D01*
X3330345D01*
Y629846D01*
X3343895D01*
Y630749D01*
X3345701D01*
Y629846D01*
X3346605D01*
Y552161D01*
X3345701D01*
Y550354D01*
X3344798D01*
Y549451D01*
X3342991D01*
Y548547D01*
X3342088D01*
Y547644D01*
X3341185D01*
Y546741D01*
X3340281D01*
Y545837D01*
X3339378D01*
Y544934D01*
X3338475D01*
Y544031D01*
X3337571D01*
Y543127D01*
X3336668D01*
Y542224D01*
X3334861D01*
Y541321D01*
X3333958D01*
Y540417D01*
X3332151D01*
Y539514D01*
X3331248D01*
Y538611D01*
X3329441D01*
Y537707D01*
X3328538D01*
Y536804D01*
X3326732D01*
Y535901D01*
X3325828D01*
Y534997D01*
X3324022D01*
Y534094D01*
X3322215D01*
Y533191D01*
X3320408D01*
Y532288D01*
X3318602D01*
Y531384D01*
X3316795D01*
Y530481D01*
X3314085D01*
Y529578D01*
X3312278D01*
Y528674D01*
X3309568D01*
Y527771D01*
X3306858D01*
Y526868D01*
X3304149D01*
Y525964D01*
X3300535D01*
Y525061D01*
X3296019D01*
Y524158D01*
X3291502D01*
Y523254D01*
X3284276D01*
Y522351D01*
X3261693D01*
Y523254D01*
X3254466D01*
Y524158D01*
X3249949D01*
Y525061D01*
X3245433D01*
Y525964D01*
X3242723D01*
Y526868D01*
X3239110D01*
Y527771D01*
X3237303D01*
Y528674D01*
X3234593D01*
Y529578D01*
X3232786D01*
Y530481D01*
X3230076D01*
Y531384D01*
X3228270D01*
Y532288D01*
X3226463D01*
Y533191D01*
X3224656D01*
Y534094D01*
X3222850D01*
Y534997D01*
X3221043D01*
Y535901D01*
X3219236D01*
Y536804D01*
X3218333D01*
Y537707D01*
X3216526D01*
Y538611D01*
X3215623D01*
Y539514D01*
X3213816D01*
Y540417D01*
X3212913D01*
Y541321D01*
X3212010D01*
Y542224D01*
X3211107D01*
Y543127D01*
X3209300D01*
Y544031D01*
X3208397D01*
Y544934D01*
X3207493D01*
Y545837D01*
X3205687D01*
Y546741D01*
X3204783D01*
Y547644D01*
X3203880D01*
Y548547D01*
X3202977D01*
Y549451D01*
X3202073D01*
Y550354D01*
X3201170D01*
Y552161D01*
X3200267D01*
Y553064D01*
X3199363D01*
Y553967D01*
X3198460D01*
Y554870D01*
X3197557D01*
Y555774D01*
X3196653D01*
Y556677D01*
X3195750D01*
Y557581D01*
X3194847D01*
Y559387D01*
X3193943D01*
Y560290D01*
X3193040D01*
Y562097D01*
X3192137D01*
Y563000D01*
X3191233D01*
Y563904D01*
X3190330D01*
Y565710D01*
X3189427D01*
Y567517D01*
X3188524D01*
Y568420D01*
X3187620D01*
Y570227D01*
X3186717D01*
Y572034D01*
X3185814D01*
Y573840D01*
X3184910D01*
Y575647D01*
X3184007D01*
Y577453D01*
X3183104D01*
Y580163D01*
X3182200D01*
Y582874D01*
X3181297D01*
Y584680D01*
X3180394D01*
Y588293D01*
X3179490D01*
Y591003D01*
X3178587D01*
Y594617D01*
X3177684D01*
Y599133D01*
X3176780D01*
Y604553D01*
X3175877D01*
Y629846D01*
X3176780D01*
Y636169D01*
X3177684D01*
Y640686D01*
X3178587D01*
Y644299D01*
X3179490D01*
Y647009D01*
X3180394D01*
Y649719D01*
X3181297D01*
Y652429D01*
X3182200D01*
Y654236D01*
X3183104D01*
Y656946D01*
X3184007D01*
Y658752D01*
X3184910D01*
Y660559D01*
X3185814D01*
Y662366D01*
X3186717D01*
Y664172D01*
X3187620D01*
Y665979D01*
X3188524D01*
Y666882D01*
X3189427D01*
Y668689D01*
X3190330D01*
Y670495D01*
X3191233D01*
Y671399D01*
X3192137D01*
Y673206D01*
X3193040D01*
Y674109D01*
X3193943D01*
Y675012D01*
X3194847D01*
Y676819D01*
X3195750D01*
Y677722D01*
X3196653D01*
Y678625D01*
X3197557D01*
Y680432D01*
X3198460D01*
Y681335D01*
X3199363D01*
Y682239D01*
X3200267D01*
Y683142D01*
X3201170D01*
Y684045D01*
X3202073D01*
Y684949D01*
X3202977D01*
Y685852D01*
X3203880D01*
Y686755D01*
X3204783D01*
Y687659D01*
X3205687D01*
Y688562D01*
X3206590D01*
Y689465D01*
X3207493D01*
Y690369D01*
X3208397D01*
Y691272D01*
X3209300D01*
Y692175D01*
X3210203D01*
Y693078D01*
X3212010D01*
Y693982D01*
X3212913D01*
Y694885D01*
X3213816D01*
Y695788D01*
X3215623D01*
Y696692D01*
X3216526D01*
Y697595D01*
X3217430D01*
Y698499D01*
X3219236D01*
Y699402D01*
X3220140D01*
Y700305D01*
X3221946D01*
Y701208D01*
X3223753D01*
Y702112D01*
X3225560D01*
Y703015D01*
X3227366D01*
Y703918D01*
X3229173D01*
Y704822D01*
X3230980D01*
Y705725D01*
X3232786D01*
Y706628D01*
X3235496D01*
Y707532D01*
X3238206D01*
Y708435D01*
X3240916D01*
Y709338D01*
X3243626D01*
Y710242D01*
X3247239D01*
Y711145D01*
X3250853D01*
Y712048D01*
X3258079D01*
Y712952D01*
X3284276D01*
Y712048D01*
D02*
G37*
G36*
X3476683D02*
X3483006D01*
Y711145D01*
X3487523D01*
Y710242D01*
X3490233D01*
Y709338D01*
X3493846D01*
Y708435D01*
X3496556D01*
Y707532D01*
X3498362D01*
Y706628D01*
X3501072D01*
Y705725D01*
X3502879D01*
Y704822D01*
X3505589D01*
Y703918D01*
X3507396D01*
Y703015D01*
X3509202D01*
Y702112D01*
X3510106D01*
Y701208D01*
X3511912D01*
Y700305D01*
X3513719D01*
Y699402D01*
X3514622D01*
Y698499D01*
X3516429D01*
Y697595D01*
X3517332D01*
Y696692D01*
X3519139D01*
Y695788D01*
X3520042D01*
Y694885D01*
X3520945D01*
Y693982D01*
X3522752D01*
Y693078D01*
X3523655D01*
Y692175D01*
X3524559D01*
Y691272D01*
X3525462D01*
Y690369D01*
X3526365D01*
Y689465D01*
X3527269D01*
Y688562D01*
X3528172D01*
Y687659D01*
X3529075D01*
Y686755D01*
X3529979D01*
Y685852D01*
X3530882D01*
Y684949D01*
X3531785D01*
Y684045D01*
X3532689D01*
Y683142D01*
X3533592D01*
Y681335D01*
X3534495D01*
Y679529D01*
X3532689D01*
Y678625D01*
X3531785D01*
Y677722D01*
X3530882D01*
Y676819D01*
X3529075D01*
Y675915D01*
X3528172D01*
Y675012D01*
X3527269D01*
Y674109D01*
X3526365D01*
Y673206D01*
X3524559D01*
Y672302D01*
X3523655D01*
Y671399D01*
X3522752D01*
Y670495D01*
X3520945D01*
Y669592D01*
X3520042D01*
Y668689D01*
X3519139D01*
Y667786D01*
X3517332D01*
Y666882D01*
X3516429D01*
Y665979D01*
X3515526D01*
Y665076D01*
X3513719D01*
Y664172D01*
X3512816D01*
Y663269D01*
X3511912D01*
Y662366D01*
X3511009D01*
Y661462D01*
X3509202D01*
Y660559D01*
X3508299D01*
Y659656D01*
X3507396D01*
Y660559D01*
X3505589D01*
Y662366D01*
X3504686D01*
Y663269D01*
X3503782D01*
Y664172D01*
X3502879D01*
Y665076D01*
X3501976D01*
Y665979D01*
X3500169D01*
Y666882D01*
X3499266D01*
Y667786D01*
X3498362D01*
Y668689D01*
X3496556D01*
Y669592D01*
X3495653D01*
Y670495D01*
X3493846D01*
Y671399D01*
X3492039D01*
Y672302D01*
X3490233D01*
Y673206D01*
X3488426D01*
Y674109D01*
X3486619D01*
Y675012D01*
X3484813D01*
Y675915D01*
X3482103D01*
Y676819D01*
X3478489D01*
Y677722D01*
X3474876D01*
Y678625D01*
X3464036D01*
Y679529D01*
X3461326D01*
Y678625D01*
X3451390D01*
Y677722D01*
X3447776D01*
Y676819D01*
X3445066D01*
Y675915D01*
X3442357D01*
Y675012D01*
X3440550D01*
Y674109D01*
X3438743D01*
Y673206D01*
X3436937D01*
Y672302D01*
X3435130D01*
Y671399D01*
X3433323D01*
Y670495D01*
X3431517D01*
Y669592D01*
X3430613D01*
Y668689D01*
X3429710D01*
Y667786D01*
X3427903D01*
Y666882D01*
X3427000D01*
Y665979D01*
X3426097D01*
Y665076D01*
X3425193D01*
Y664172D01*
X3424290D01*
Y663269D01*
X3423387D01*
Y662366D01*
X3422483D01*
Y661462D01*
X3421580D01*
Y660559D01*
X3420677D01*
Y659656D01*
X3419774D01*
Y658752D01*
X3418870D01*
Y657849D01*
X3417967D01*
Y656042D01*
X3417064D01*
Y655139D01*
X3416160D01*
Y654236D01*
X3415257D01*
Y652429D01*
X3414354D01*
Y650622D01*
X3413450D01*
Y649719D01*
X3412547D01*
Y647913D01*
X3411644D01*
Y645203D01*
X3410740D01*
Y643396D01*
X3409837D01*
Y641589D01*
X3408934D01*
Y637976D01*
X3408030D01*
Y635266D01*
X3407127D01*
Y631653D01*
X3406224D01*
Y626233D01*
X3405320D01*
Y610876D01*
X3406224D01*
Y604553D01*
X3407127D01*
Y600037D01*
X3408030D01*
Y596423D01*
X3408934D01*
Y593713D01*
X3409837D01*
Y591907D01*
X3410740D01*
Y589197D01*
X3411644D01*
Y587390D01*
X3412547D01*
Y585583D01*
X3413450D01*
Y584680D01*
X3414354D01*
Y582874D01*
X3415257D01*
Y581067D01*
X3416160D01*
Y580163D01*
X3417064D01*
Y578357D01*
X3417967D01*
Y577453D01*
X3418870D01*
Y576550D01*
X3419774D01*
Y575647D01*
X3420677D01*
Y574744D01*
X3421580D01*
Y572937D01*
X3422483D01*
Y572034D01*
X3423387D01*
Y571130D01*
X3424290D01*
Y570227D01*
X3426097D01*
Y569324D01*
X3427000D01*
Y568420D01*
X3427903D01*
Y567517D01*
X3428807D01*
Y566614D01*
X3429710D01*
Y565710D01*
X3431517D01*
Y564807D01*
X3432420D01*
Y563904D01*
X3434227D01*
Y563000D01*
X3436033D01*
Y562097D01*
X3436937D01*
Y561194D01*
X3438743D01*
Y560290D01*
X3441453D01*
Y559387D01*
X3443260D01*
Y558484D01*
X3445970D01*
Y557581D01*
X3449583D01*
Y556677D01*
X3452293D01*
Y555774D01*
X3456810D01*
Y554870D01*
X3474876D01*
Y555774D01*
X3481199D01*
Y556677D01*
X3484813D01*
Y557581D01*
X3487523D01*
Y558484D01*
X3490233D01*
Y559387D01*
X3492039D01*
Y560290D01*
X3493846D01*
Y561194D01*
X3496556D01*
Y562097D01*
X3497459D01*
Y563000D01*
X3499266D01*
Y563904D01*
X3501072D01*
Y564807D01*
X3501976D01*
Y565710D01*
X3502879D01*
Y566614D01*
X3504686D01*
Y598230D01*
X3461326D01*
Y629846D01*
X3464036D01*
Y630749D01*
X3471263D01*
Y629846D01*
X3478489D01*
Y630749D01*
X3479393D01*
Y629846D01*
X3480296D01*
Y630749D01*
X3483006D01*
Y629846D01*
X3485716D01*
Y630749D01*
X3486619D01*
Y629846D01*
X3487523D01*
Y630749D01*
X3490233D01*
Y629846D01*
X3492943D01*
Y630749D01*
X3493846D01*
Y629846D01*
X3494749D01*
Y630749D01*
X3496556D01*
Y629846D01*
X3501976D01*
Y630749D01*
X3502879D01*
Y629846D01*
X3507396D01*
Y630749D01*
X3512816D01*
Y629846D01*
X3513719D01*
Y630749D01*
X3515526D01*
Y629846D01*
X3521849D01*
Y630749D01*
X3522752D01*
Y629846D01*
X3536302D01*
Y630749D01*
X3538108D01*
Y629846D01*
X3539012D01*
Y578357D01*
X3539915D01*
Y576550D01*
X3539012D01*
Y575647D01*
X3539915D01*
Y573840D01*
X3539012D01*
Y551257D01*
X3538108D01*
Y550354D01*
X3537205D01*
Y549451D01*
X3536302D01*
Y548547D01*
X3535399D01*
Y547644D01*
X3534495D01*
Y546741D01*
X3533592D01*
Y545837D01*
X3531785D01*
Y544934D01*
X3530882D01*
Y544031D01*
X3529979D01*
Y543127D01*
X3529075D01*
Y542224D01*
X3527269D01*
Y541321D01*
X3526365D01*
Y540417D01*
X3525462D01*
Y539514D01*
X3523655D01*
Y538611D01*
X3522752D01*
Y537707D01*
X3520945D01*
Y536804D01*
X3519139D01*
Y535901D01*
X3517332D01*
Y534997D01*
X3516429D01*
Y534094D01*
X3514622D01*
Y533191D01*
X3512816D01*
Y532288D01*
X3511009D01*
Y531384D01*
X3508299D01*
Y530481D01*
X3506492D01*
Y529578D01*
X3504686D01*
Y528674D01*
X3501976D01*
Y527771D01*
X3499266D01*
Y526868D01*
X3495653D01*
Y525964D01*
X3492943D01*
Y525061D01*
X3489329D01*
Y524158D01*
X3483909D01*
Y523254D01*
X3477586D01*
Y522351D01*
X3454100D01*
Y523254D01*
X3446873D01*
Y524158D01*
X3441453D01*
Y525061D01*
X3438743D01*
Y525964D01*
X3435130D01*
Y526868D01*
X3431517D01*
Y527771D01*
X3429710D01*
Y528674D01*
X3427000D01*
Y529578D01*
X3424290D01*
Y530481D01*
X3422483D01*
Y531384D01*
X3420677D01*
Y532288D01*
X3418870D01*
Y533191D01*
X3417064D01*
Y534094D01*
X3415257D01*
Y534997D01*
X3413450D01*
Y535901D01*
X3411644D01*
Y536804D01*
X3410740D01*
Y537707D01*
X3408934D01*
Y538611D01*
X3408030D01*
Y539514D01*
X3406224D01*
Y540417D01*
X3405320D01*
Y541321D01*
X3403514D01*
Y542224D01*
X3402610D01*
Y543127D01*
X3401707D01*
Y544031D01*
X3399901D01*
Y544934D01*
X3398997D01*
Y545837D01*
X3398094D01*
Y546741D01*
X3397191D01*
Y547644D01*
X3396287D01*
Y548547D01*
X3395384D01*
Y549451D01*
X3394481D01*
Y550354D01*
X3393577D01*
Y551257D01*
X3392674D01*
Y552161D01*
X3391771D01*
Y553064D01*
X3390867D01*
Y553967D01*
X3389964D01*
Y555774D01*
X3389061D01*
Y556677D01*
X3388157D01*
Y557581D01*
X3387254D01*
Y558484D01*
X3386351D01*
Y560290D01*
X3385447D01*
Y561194D01*
X3384544D01*
Y563000D01*
X3383641D01*
Y563904D01*
X3382737D01*
Y565710D01*
X3381834D01*
Y567517D01*
X3380931D01*
Y568420D01*
X3380028D01*
Y570227D01*
X3379124D01*
Y572034D01*
X3378221D01*
Y573840D01*
X3377318D01*
Y575647D01*
X3376414D01*
Y577453D01*
X3375511D01*
Y580163D01*
X3374608D01*
Y582874D01*
X3373704D01*
Y584680D01*
X3372801D01*
Y588293D01*
X3371898D01*
Y591003D01*
X3370994D01*
Y595520D01*
X3370091D01*
Y599133D01*
X3369188D01*
Y606360D01*
X3368284D01*
Y628039D01*
X3369188D01*
Y634363D01*
X3370091D01*
Y638879D01*
X3370994D01*
Y643396D01*
X3371898D01*
Y646106D01*
X3372801D01*
Y648816D01*
X3373704D01*
Y651526D01*
X3374608D01*
Y654236D01*
X3375511D01*
Y656042D01*
X3376414D01*
Y658752D01*
X3377318D01*
Y660559D01*
X3378221D01*
Y662366D01*
X3379124D01*
Y664172D01*
X3380028D01*
Y665076D01*
X3380931D01*
Y666882D01*
X3381834D01*
Y668689D01*
X3382737D01*
Y669592D01*
X3383641D01*
Y671399D01*
X3384544D01*
Y672302D01*
X3385447D01*
Y674109D01*
X3386351D01*
Y675012D01*
X3387254D01*
Y676819D01*
X3388157D01*
Y677722D01*
X3389061D01*
Y678625D01*
X3389964D01*
Y679529D01*
X3390867D01*
Y680432D01*
X3391771D01*
Y682239D01*
X3392674D01*
Y683142D01*
X3393577D01*
Y684045D01*
X3394481D01*
Y684949D01*
X3395384D01*
Y685852D01*
X3396287D01*
Y686755D01*
X3397191D01*
Y687659D01*
X3398094D01*
Y688562D01*
X3398997D01*
Y689465D01*
X3399901D01*
Y690369D01*
X3400804D01*
Y691272D01*
X3402610D01*
Y692175D01*
X3403514D01*
Y693078D01*
X3404417D01*
Y693982D01*
X3405320D01*
Y694885D01*
X3407127D01*
Y695788D01*
X3408030D01*
Y696692D01*
X3409837D01*
Y697595D01*
X3410740D01*
Y698499D01*
X3412547D01*
Y699402D01*
X3413450D01*
Y700305D01*
X3415257D01*
Y701208D01*
X3417064D01*
Y702112D01*
X3417967D01*
Y703015D01*
X3419774D01*
Y703918D01*
X3421580D01*
Y704822D01*
X3423387D01*
Y705725D01*
X3426097D01*
Y706628D01*
X3427903D01*
Y707532D01*
X3430613D01*
Y708435D01*
X3433323D01*
Y709338D01*
X3436033D01*
Y710242D01*
X3439647D01*
Y711145D01*
X3444163D01*
Y712048D01*
X3450486D01*
Y712952D01*
X3476683D01*
Y712048D01*
D02*
G37*
G36*
X3530882Y460925D02*
X3534495D01*
Y460022D01*
X3537205D01*
Y459119D01*
X3539012D01*
Y458215D01*
X3539915D01*
Y457312D01*
X3541722D01*
Y456409D01*
X3542625D01*
Y453699D01*
X3541722D01*
Y450989D01*
X3540818D01*
Y449182D01*
X3539915D01*
Y448279D01*
X3539012D01*
Y447375D01*
X3537205D01*
Y448279D01*
X3536302D01*
Y449182D01*
X3535399D01*
Y450085D01*
X3533592D01*
Y450989D01*
X3531785D01*
Y451892D01*
X3528172D01*
Y452795D01*
X3524559D01*
Y451892D01*
X3521849D01*
Y450989D01*
X3520945D01*
Y450085D01*
X3520042D01*
Y445569D01*
X3520945D01*
Y444665D01*
X3521849D01*
Y443762D01*
X3522752D01*
Y442859D01*
X3525462D01*
Y441955D01*
X3528172D01*
Y441052D01*
X3530882D01*
Y440149D01*
X3533592D01*
Y439245D01*
X3536302D01*
Y438342D01*
X3537205D01*
Y437439D01*
X3539012D01*
Y436536D01*
X3539915D01*
Y435632D01*
X3540818D01*
Y434729D01*
X3541722D01*
Y433826D01*
X3542625D01*
Y432922D01*
X3543528D01*
Y430212D01*
X3544432D01*
Y422082D01*
X3543528D01*
Y419373D01*
X3542625D01*
Y417566D01*
X3541722D01*
Y416663D01*
X3540818D01*
Y415759D01*
X3539915D01*
Y414856D01*
X3539012D01*
Y413953D01*
X3537205D01*
Y413049D01*
X3536302D01*
Y412146D01*
X3533592D01*
Y411243D01*
X3520042D01*
Y412146D01*
X3517332D01*
Y413049D01*
X3515526D01*
Y413953D01*
X3512816D01*
Y414856D01*
X3511912D01*
Y415759D01*
X3510106D01*
Y416663D01*
X3509202D01*
Y417566D01*
X3508299D01*
Y419373D01*
X3509202D01*
Y420276D01*
X3510106D01*
Y422082D01*
X3511009D01*
Y422986D01*
X3511912D01*
Y424792D01*
X3512816D01*
Y425696D01*
X3513719D01*
Y424792D01*
X3515526D01*
Y423889D01*
X3516429D01*
Y422986D01*
X3518235D01*
Y422082D01*
X3520945D01*
Y421179D01*
X3523655D01*
Y420276D01*
X3529979D01*
Y421179D01*
X3531785D01*
Y422082D01*
X3533592D01*
Y423889D01*
X3534495D01*
Y427502D01*
X3533592D01*
Y428406D01*
X3532689D01*
Y429309D01*
X3531785D01*
Y430212D01*
X3529075D01*
Y431116D01*
X3526365D01*
Y432019D01*
X3523655D01*
Y432922D01*
X3520945D01*
Y433826D01*
X3519139D01*
Y434729D01*
X3517332D01*
Y435632D01*
X3515526D01*
Y436536D01*
X3514622D01*
Y437439D01*
X3513719D01*
Y438342D01*
X3512816D01*
Y439245D01*
X3511912D01*
Y440149D01*
X3511009D01*
Y442859D01*
X3510106D01*
Y451892D01*
X3511009D01*
Y453699D01*
X3511912D01*
Y455505D01*
X3512816D01*
Y456409D01*
X3513719D01*
Y457312D01*
X3514622D01*
Y458215D01*
X3515526D01*
Y459119D01*
X3517332D01*
Y460022D01*
X3519139D01*
Y460925D01*
X3523655D01*
Y461829D01*
X3530882D01*
Y460925D01*
D02*
G37*
G36*
X3203880D02*
X3207493D01*
Y460022D01*
X3210203D01*
Y459119D01*
X3212010D01*
Y458215D01*
X3212913D01*
Y457312D01*
X3214720D01*
Y455505D01*
X3215623D01*
Y454602D01*
X3214720D01*
Y451892D01*
X3213816D01*
Y450085D01*
X3212913D01*
Y448279D01*
X3212010D01*
Y447375D01*
X3210203D01*
Y448279D01*
X3209300D01*
Y449182D01*
X3208397D01*
Y450085D01*
X3206590D01*
Y450989D01*
X3204783D01*
Y451892D01*
X3201170D01*
Y452795D01*
X3197557D01*
Y451892D01*
X3194847D01*
Y450989D01*
X3193943D01*
Y450085D01*
X3193040D01*
Y449182D01*
X3192137D01*
Y445569D01*
X3193040D01*
Y444665D01*
X3193943D01*
Y443762D01*
X3195750D01*
Y442859D01*
X3198460D01*
Y441955D01*
X3201170D01*
Y441052D01*
X3203880D01*
Y440149D01*
X3206590D01*
Y439245D01*
X3209300D01*
Y438342D01*
X3211107D01*
Y437439D01*
X3212010D01*
Y436536D01*
X3212913D01*
Y435632D01*
X3213816D01*
Y434729D01*
X3214720D01*
Y433826D01*
X3215623D01*
Y432019D01*
X3216526D01*
Y430212D01*
X3217430D01*
Y422082D01*
X3216526D01*
Y419373D01*
X3215623D01*
Y417566D01*
X3214720D01*
Y416663D01*
X3213816D01*
Y415759D01*
X3212913D01*
Y414856D01*
X3212010D01*
Y413953D01*
X3210203D01*
Y413049D01*
X3208397D01*
Y412146D01*
X3206590D01*
Y411243D01*
X3192137D01*
Y412146D01*
X3190330D01*
Y413049D01*
X3187620D01*
Y413953D01*
X3186717D01*
Y414856D01*
X3184910D01*
Y415759D01*
X3184007D01*
Y416663D01*
X3182200D01*
Y420276D01*
X3183104D01*
Y422082D01*
X3184007D01*
Y422986D01*
X3184910D01*
Y424792D01*
X3185814D01*
Y425696D01*
X3186717D01*
Y424792D01*
X3187620D01*
Y423889D01*
X3189427D01*
Y422986D01*
X3191233D01*
Y422082D01*
X3193040D01*
Y421179D01*
X3196653D01*
Y420276D01*
X3202073D01*
Y421179D01*
X3204783D01*
Y422082D01*
X3206590D01*
Y423889D01*
X3207493D01*
Y428406D01*
X3206590D01*
Y429309D01*
X3204783D01*
Y430212D01*
X3202977D01*
Y431116D01*
X3199363D01*
Y432019D01*
X3196653D01*
Y432922D01*
X3193943D01*
Y433826D01*
X3191233D01*
Y434729D01*
X3189427D01*
Y435632D01*
X3188524D01*
Y436536D01*
X3186717D01*
Y437439D01*
X3185814D01*
Y438342D01*
X3184910D01*
Y440149D01*
X3184007D01*
Y441955D01*
X3183104D01*
Y445569D01*
X3182200D01*
Y448279D01*
X3183104D01*
Y451892D01*
X3184007D01*
Y454602D01*
X3184910D01*
Y455505D01*
X3185814D01*
Y456409D01*
X3186717D01*
Y457312D01*
X3187620D01*
Y458215D01*
X3188524D01*
Y459119D01*
X3190330D01*
Y460022D01*
X3192137D01*
Y460925D01*
X3195750D01*
Y461829D01*
X3203880D01*
Y460925D01*
D02*
G37*
G36*
X3048509D02*
X3053026D01*
Y460022D01*
X3055735D01*
Y459119D01*
X3057542D01*
Y458215D01*
X3058445D01*
Y457312D01*
X3060252D01*
Y456409D01*
X3061155D01*
Y455505D01*
X3062059D01*
Y454602D01*
X3062962D01*
Y452795D01*
X3063865D01*
Y451892D01*
X3062962D01*
Y450989D01*
X3062059D01*
Y450085D01*
X3061155D01*
Y449182D01*
X3060252D01*
Y448279D01*
X3059349D01*
Y447375D01*
X3057542D01*
Y446472D01*
X3056639D01*
Y447375D01*
X3055735D01*
Y448279D01*
X3054832D01*
Y449182D01*
X3053026D01*
Y450085D01*
X3052122D01*
Y450989D01*
X3050316D01*
Y451892D01*
X3040379D01*
Y450989D01*
X3038572D01*
Y450085D01*
X3036766D01*
Y449182D01*
X3035862D01*
Y448279D01*
X3034959D01*
Y447375D01*
X3034056D01*
Y445569D01*
X3033153D01*
Y443762D01*
X3032249D01*
Y441955D01*
X3031346D01*
Y430212D01*
X3032249D01*
Y428406D01*
X3033153D01*
Y426599D01*
X3034056D01*
Y425696D01*
X3034959D01*
Y424792D01*
X3035862D01*
Y423889D01*
X3036766D01*
Y422986D01*
X3037669D01*
Y422082D01*
X3039476D01*
Y421179D01*
X3043089D01*
Y420276D01*
X3044896D01*
Y421179D01*
X3045799D01*
Y420276D01*
X3046702D01*
Y421179D01*
X3051219D01*
Y422082D01*
X3053929D01*
Y422986D01*
X3054832D01*
Y423889D01*
X3056639D01*
Y424792D01*
X3057542D01*
Y425696D01*
X3058445D01*
Y424792D01*
X3059349D01*
Y423889D01*
X3060252D01*
Y422986D01*
X3061155D01*
Y422082D01*
X3062059D01*
Y421179D01*
X3062962D01*
Y419373D01*
X3063865D01*
Y418469D01*
X3062962D01*
Y417566D01*
X3062059D01*
Y416663D01*
X3061155D01*
Y415759D01*
X3060252D01*
Y414856D01*
X3058445D01*
Y413953D01*
X3056639D01*
Y413049D01*
X3054832D01*
Y412146D01*
X3052122D01*
Y411243D01*
X3044896D01*
Y410339D01*
X3043089D01*
Y411243D01*
X3037669D01*
Y412146D01*
X3034959D01*
Y413049D01*
X3033153D01*
Y413953D01*
X3032249D01*
Y414856D01*
X3030443D01*
Y415759D01*
X3029539D01*
Y416663D01*
X3028636D01*
Y417566D01*
X3027733D01*
Y418469D01*
X3026829D01*
Y419373D01*
X3025926D01*
Y421179D01*
X3025023D01*
Y422082D01*
X3024119D01*
Y423889D01*
X3023216D01*
Y425696D01*
X3022313D01*
Y428406D01*
X3021409D01*
Y432019D01*
X3020506D01*
Y440149D01*
X3021409D01*
Y443762D01*
X3022313D01*
Y446472D01*
X3023216D01*
Y448279D01*
X3024119D01*
Y450085D01*
X3025023D01*
Y451892D01*
X3025926D01*
Y452795D01*
X3026829D01*
Y453699D01*
X3027733D01*
Y454602D01*
X3028636D01*
Y455505D01*
X3029539D01*
Y456409D01*
X3030443D01*
Y457312D01*
X3032249D01*
Y458215D01*
X3033153D01*
Y459119D01*
X3034959D01*
Y460022D01*
X3037669D01*
Y460925D01*
X3042186D01*
Y461829D01*
X3048509D01*
Y460925D01*
D02*
G37*
G36*
X3454100Y411243D02*
X3445066D01*
Y412146D01*
X3444163D01*
Y413953D01*
X3443260D01*
Y414856D01*
X3442357D01*
Y416663D01*
X3441453D01*
Y417566D01*
X3440550D01*
Y419373D01*
X3439647D01*
Y420276D01*
X3438743D01*
Y422082D01*
X3437840D01*
Y422986D01*
X3436937D01*
Y423889D01*
X3436033D01*
Y425696D01*
X3435130D01*
Y426599D01*
X3434227D01*
Y427502D01*
X3433323D01*
Y429309D01*
X3432420D01*
Y430212D01*
X3431517D01*
Y432019D01*
X3430613D01*
Y432922D01*
X3429710D01*
Y434729D01*
X3428807D01*
Y435632D01*
X3427903D01*
Y437439D01*
X3427000D01*
Y438342D01*
X3426097D01*
Y439245D01*
X3425193D01*
Y441052D01*
X3424290D01*
Y441955D01*
X3423387D01*
Y442859D01*
X3422483D01*
Y411243D01*
X3412547D01*
Y460925D01*
X3421580D01*
Y460022D01*
X3423387D01*
Y458215D01*
X3424290D01*
Y457312D01*
X3425193D01*
Y455505D01*
X3426097D01*
Y454602D01*
X3427000D01*
Y452795D01*
X3427903D01*
Y451892D01*
X3428807D01*
Y450989D01*
X3429710D01*
Y449182D01*
X3430613D01*
Y448279D01*
X3431517D01*
Y447375D01*
X3432420D01*
Y445569D01*
X3433323D01*
Y444665D01*
X3434227D01*
Y442859D01*
X3435130D01*
Y441955D01*
X3436033D01*
Y441052D01*
X3436937D01*
Y439245D01*
X3437840D01*
Y438342D01*
X3438743D01*
Y437439D01*
X3439647D01*
Y435632D01*
X3440550D01*
Y434729D01*
X3441453D01*
Y432922D01*
X3442357D01*
Y432019D01*
X3443260D01*
Y430212D01*
X3445066D01*
Y439245D01*
X3444163D01*
Y441052D01*
X3445066D01*
Y441955D01*
X3444163D01*
Y443762D01*
X3445066D01*
Y444665D01*
X3444163D01*
Y448279D01*
X3445066D01*
Y458215D01*
X3444163D01*
Y460022D01*
X3445066D01*
Y460925D01*
X3454100D01*
Y411243D01*
D02*
G37*
G36*
X3171360D02*
X3162327D01*
Y412146D01*
X3161424D01*
Y413953D01*
X3160521D01*
Y414856D01*
X3159617D01*
Y415759D01*
X3158714D01*
Y417566D01*
X3157811D01*
Y418469D01*
X3156907D01*
Y420276D01*
X3156004D01*
Y421179D01*
X3155101D01*
Y422986D01*
X3154197D01*
Y423889D01*
X3153294D01*
Y424792D01*
X3152391D01*
Y426599D01*
X3151487D01*
Y427502D01*
X3150584D01*
Y429309D01*
X3149681D01*
Y430212D01*
X3148778D01*
Y431116D01*
X3147874D01*
Y432922D01*
X3146971D01*
Y433826D01*
X3146068D01*
Y435632D01*
X3145164D01*
Y436536D01*
X3144261D01*
Y438342D01*
X3143358D01*
Y439245D01*
X3142454D01*
Y440149D01*
X3141551D01*
Y441052D01*
X3140648D01*
Y443762D01*
X3139744D01*
Y411243D01*
X3129808D01*
Y460022D01*
X3130711D01*
Y460925D01*
X3139744D01*
Y460022D01*
X3140648D01*
Y458215D01*
X3141551D01*
Y457312D01*
X3142454D01*
Y455505D01*
X3143358D01*
Y454602D01*
X3144261D01*
Y453699D01*
X3145164D01*
Y451892D01*
X3146068D01*
Y450989D01*
X3146971D01*
Y449182D01*
X3147874D01*
Y448279D01*
X3148778D01*
Y447375D01*
X3149681D01*
Y445569D01*
X3150584D01*
Y444665D01*
X3151487D01*
Y442859D01*
X3152391D01*
Y441955D01*
X3153294D01*
Y441052D01*
X3154197D01*
Y439245D01*
X3155101D01*
Y438342D01*
X3156004D01*
Y436536D01*
X3156907D01*
Y435632D01*
X3157811D01*
Y433826D01*
X3158714D01*
Y432922D01*
X3159617D01*
Y431116D01*
X3160521D01*
Y430212D01*
X3161424D01*
Y431116D01*
X3162327D01*
Y432019D01*
X3161424D01*
Y432922D01*
X3162327D01*
Y433826D01*
X3161424D01*
Y448279D01*
X3162327D01*
Y450085D01*
X3161424D01*
Y460925D01*
X3171360D01*
Y411243D01*
D02*
G37*
G36*
X3267112Y460022D02*
X3268016D01*
Y427502D01*
X3267112D01*
Y423889D01*
X3266209D01*
Y421179D01*
X3265306D01*
Y419373D01*
X3264403D01*
Y418469D01*
X3263499D01*
Y416663D01*
X3262596D01*
Y415759D01*
X3260789D01*
Y414856D01*
X3259886D01*
Y413953D01*
X3258983D01*
Y413049D01*
X3257176D01*
Y412146D01*
X3254466D01*
Y411243D01*
X3247239D01*
Y410339D01*
X3245433D01*
Y411243D01*
X3240013D01*
Y412146D01*
X3237303D01*
Y413049D01*
X3236400D01*
Y413953D01*
X3234593D01*
Y414856D01*
X3233690D01*
Y415759D01*
X3232786D01*
Y416663D01*
X3231883D01*
Y417566D01*
X3230980D01*
Y419373D01*
X3230076D01*
Y421179D01*
X3229173D01*
Y423889D01*
X3228270D01*
Y432019D01*
X3227366D01*
Y433826D01*
X3228270D01*
Y460925D01*
X3237303D01*
Y460022D01*
X3238206D01*
Y426599D01*
X3239110D01*
Y424792D01*
X3240013D01*
Y422986D01*
X3240916D01*
Y422082D01*
X3242723D01*
Y421179D01*
X3245433D01*
Y420276D01*
X3249949D01*
Y421179D01*
X3252659D01*
Y422082D01*
X3254466D01*
Y422986D01*
X3255369D01*
Y424792D01*
X3256273D01*
Y426599D01*
X3257176D01*
Y428406D01*
X3258079D01*
Y460925D01*
X3267112D01*
Y460022D01*
D02*
G37*
G36*
X3501976D02*
X3502879D01*
Y450989D01*
X3488426D01*
Y411243D01*
X3477586D01*
Y415759D01*
Y416663D01*
Y450989D01*
X3464036D01*
Y460925D01*
X3501976D01*
Y460022D01*
D02*
G37*
G36*
X3384544Y459119D02*
X3385447D01*
Y456409D01*
X3386351D01*
Y454602D01*
X3387254D01*
Y451892D01*
X3388157D01*
Y450085D01*
X3389061D01*
Y448279D01*
X3389964D01*
Y445569D01*
X3390867D01*
Y442859D01*
X3391771D01*
Y441052D01*
X3392674D01*
Y438342D01*
X3393577D01*
Y436536D01*
X3394481D01*
Y433826D01*
X3395384D01*
Y432019D01*
X3396287D01*
Y429309D01*
X3397191D01*
Y427502D01*
X3398094D01*
Y424792D01*
X3398997D01*
Y422986D01*
X3399901D01*
Y421179D01*
X3400804D01*
Y418469D01*
X3401707D01*
Y416663D01*
X3402610D01*
Y413953D01*
X3403514D01*
Y411243D01*
X3392674D01*
Y413953D01*
X3391771D01*
Y415759D01*
X3390867D01*
Y418469D01*
X3389964D01*
Y421179D01*
X3389061D01*
Y422986D01*
X3369188D01*
Y422082D01*
X3368284D01*
Y420276D01*
X3367381D01*
Y417566D01*
X3366478D01*
Y414856D01*
X3365574D01*
Y413049D01*
X3364671D01*
Y411243D01*
X3353831D01*
Y413049D01*
X3354735D01*
Y415759D01*
X3355638D01*
Y417566D01*
X3356541D01*
Y420276D01*
X3357445D01*
Y422082D01*
X3358348D01*
Y424792D01*
X3359251D01*
Y426599D01*
X3360154D01*
Y428406D01*
X3361058D01*
Y431116D01*
X3361961D01*
Y432922D01*
X3362864D01*
Y435632D01*
X3363768D01*
Y437439D01*
X3364671D01*
Y440149D01*
X3365574D01*
Y441955D01*
X3366478D01*
Y444665D01*
X3367381D01*
Y446472D01*
X3368284D01*
Y449182D01*
X3369188D01*
Y450989D01*
X3370091D01*
Y453699D01*
X3370994D01*
Y455505D01*
X3371898D01*
Y458215D01*
X3372801D01*
Y460022D01*
X3373704D01*
Y460925D01*
X3384544D01*
Y459119D01*
D02*
G37*
G36*
X3352928Y450989D02*
X3339378D01*
Y412146D01*
X3338475D01*
Y411243D01*
X3328538D01*
Y413049D01*
Y413953D01*
Y450989D01*
X3315892D01*
Y451892D01*
X3314988D01*
Y460022D01*
X3315892D01*
Y460925D01*
X3352928D01*
Y450989D01*
D02*
G37*
G36*
X3290599Y421179D02*
X3312278D01*
Y411243D01*
X3280662D01*
Y420276D01*
Y421179D01*
Y460925D01*
X3290599D01*
Y421179D01*
D02*
G37*
G36*
X3099998Y460925D02*
X3103611D01*
Y460022D01*
X3106321D01*
Y459119D01*
X3108128D01*
Y458215D01*
X3109031D01*
Y457312D01*
X3109935D01*
Y456409D01*
X3111741D01*
Y455505D01*
X3112645D01*
Y454602D01*
X3113548D01*
Y453699D01*
X3114451D01*
Y451892D01*
X3115355D01*
Y450989D01*
X3116258D01*
Y449182D01*
X3117161D01*
Y447375D01*
X3118065D01*
Y445569D01*
X3118968D01*
Y441955D01*
X3119871D01*
Y431116D01*
X3118968D01*
Y427502D01*
X3118065D01*
Y425696D01*
X3117161D01*
Y423889D01*
X3116258D01*
Y422082D01*
X3115355D01*
Y421179D01*
X3114451D01*
Y419373D01*
X3113548D01*
Y418469D01*
X3112645D01*
Y417566D01*
X3111741D01*
Y416663D01*
X3109935D01*
Y415759D01*
X3109031D01*
Y414856D01*
X3108128D01*
Y413953D01*
X3106321D01*
Y413049D01*
X3104515D01*
Y412146D01*
X3100901D01*
Y411243D01*
X3088255D01*
Y412146D01*
X3085545D01*
Y413049D01*
X3083738D01*
Y413953D01*
X3081932D01*
Y414856D01*
X3081028D01*
Y415759D01*
X3079222D01*
Y416663D01*
X3078318D01*
Y417566D01*
X3077415D01*
Y418469D01*
X3076512D01*
Y420276D01*
X3075608D01*
Y421179D01*
X3074705D01*
Y422986D01*
X3073802D01*
Y424792D01*
X3072899D01*
Y426599D01*
X3071995D01*
Y429309D01*
X3071092D01*
Y442859D01*
X3071995D01*
Y446472D01*
X3072899D01*
Y448279D01*
X3073802D01*
Y450085D01*
X3074705D01*
Y451892D01*
X3075608D01*
Y452795D01*
X3076512D01*
Y453699D01*
X3077415D01*
Y454602D01*
X3078318D01*
Y455505D01*
X3079222D01*
Y456409D01*
X3080125D01*
Y457312D01*
X3081932D01*
Y458215D01*
X3083738D01*
Y459119D01*
X3085545D01*
Y460022D01*
X3087352D01*
Y460925D01*
X3091868D01*
Y461829D01*
X3099998D01*
Y460925D01*
D02*
G37*
%LPC*%
G36*
X3379124Y449182D02*
X3378221D01*
Y447375D01*
Y446472D01*
X3377318D01*
Y444665D01*
X3376414D01*
Y441955D01*
X3375511D01*
Y439245D01*
X3374608D01*
Y436536D01*
X3373704D01*
Y434729D01*
X3372801D01*
Y431116D01*
X3374608D01*
Y432019D01*
X3385447D01*
Y433826D01*
X3384544D01*
Y436536D01*
X3383641D01*
Y438342D01*
X3382737D01*
Y441052D01*
X3381834D01*
Y442859D01*
X3380931D01*
Y445569D01*
X3380028D01*
Y448279D01*
X3379124D01*
Y449182D01*
D02*
G37*
G36*
X3096385Y452795D02*
X3093675D01*
Y451892D01*
X3090062D01*
Y450989D01*
X3088255D01*
Y450085D01*
X3087352D01*
Y449182D01*
X3085545D01*
Y448279D01*
X3084642D01*
Y447375D01*
Y446472D01*
X3083738D01*
Y445569D01*
X3082835D01*
Y443762D01*
X3081932D01*
Y441052D01*
X3081028D01*
Y432019D01*
X3081932D01*
Y429309D01*
X3082835D01*
Y427502D01*
X3083738D01*
Y425696D01*
X3084642D01*
Y424792D01*
X3085545D01*
Y423889D01*
X3086448D01*
Y422986D01*
X3088255D01*
Y422082D01*
X3089158D01*
Y421179D01*
X3092772D01*
Y420276D01*
X3096385D01*
Y421179D01*
X3099998D01*
Y422082D01*
X3101805D01*
Y422986D01*
X3103611D01*
Y423889D01*
X3104515D01*
Y424792D01*
X3105418D01*
Y425696D01*
X3106321D01*
Y426599D01*
X3107225D01*
Y428406D01*
X3108128D01*
Y431116D01*
X3109031D01*
Y441955D01*
X3108128D01*
Y444665D01*
X3107225D01*
Y445569D01*
X3106321D01*
Y447375D01*
X3105418D01*
Y448279D01*
X3104515D01*
Y449182D01*
X3103611D01*
Y450085D01*
X3101805D01*
Y450989D01*
X3099998D01*
Y451892D01*
X3096385D01*
Y452795D01*
D02*
G37*
%LPD*%
D10*
X2408323Y1918099D02*
G03*
X2408323Y1918099I-3937J0D01*
G01*
X1984764Y2711772D02*
G03*
X1976890Y2711772I-3937J0D01*
G01*
D02*
G03*
X1984764Y2711772I3937J0D01*
G01*
X1093937Y3046299D02*
G03*
X1093937Y3046299I-3937J0D01*
G01*
X2975000Y2055000D02*
X3125000D01*
Y1605000D02*
Y2055000D01*
X2975000Y1605000D02*
X3125000D01*
X2975000D02*
Y2055000D01*
X1536891Y2571892D02*
X1686891D01*
Y2121892D02*
Y2571892D01*
X1536891Y2121892D02*
X1686891D01*
X1536891D02*
Y2571892D01*
X962598Y2086890D02*
Y2267992D01*
X537402Y2086890D02*
Y2267992D01*
X962598D01*
X537402Y2086890D02*
X962598D01*
X1887914Y2023070D02*
Y2172676D01*
X2080826Y2023070D02*
Y2172676D01*
X2222952Y2806260D02*
Y2963740D01*
X1967048Y2806260D02*
Y2963740D01*
X3100000Y2645000D02*
X3250000D01*
X3100000D02*
Y3095000D01*
X3250000D01*
Y2645000D02*
Y3095000D01*
X2364504Y1389438D02*
X2394504D01*
X2364504Y1189438D02*
Y1389438D01*
Y1189438D02*
X2424504D01*
Y1389438D01*
X2394504D02*
X2424504D01*
X2394504Y1180438D02*
Y1189438D01*
Y1389438D02*
Y1398438D01*
X2740000Y1895000D02*
X2770000D01*
Y2095000D01*
X2710000D02*
X2770000D01*
X2710000Y1895000D02*
Y2095000D01*
Y1895000D02*
X2740000D01*
Y2095000D02*
Y2104000D01*
Y1886000D02*
Y1895000D01*
X1205000Y2685000D02*
X1355000D01*
X1205000D02*
Y3135000D01*
X1355000D01*
Y2685000D02*
Y3135000D01*
X1630000Y2685000D02*
X1780000D01*
X1630000D02*
Y3135000D01*
X1780000D01*
Y2685000D02*
Y3135000D01*
X2485000Y3095000D02*
X2635000D01*
Y2645000D02*
Y3095000D01*
X2485000Y2645000D02*
X2635000D01*
X2485000D02*
Y3095000D01*
X3235000Y1860000D02*
X3265000D01*
X3235000Y1660000D02*
Y1860000D01*
Y1660000D02*
X3295000D01*
Y1860000D01*
X3265000D02*
X3295000D01*
X3265000Y1651000D02*
Y1660000D01*
Y1860000D02*
Y1869000D01*
X2060000Y450000D02*
Y480000D01*
X1860000D02*
X2060000D01*
X1860000Y420000D02*
Y480000D01*
Y420000D02*
X2060000D01*
Y450000D01*
X1851000D02*
X1860000D01*
X2060000D02*
X2069000D01*
X1595000Y1550000D02*
X1625000D01*
X1595000Y1350000D02*
Y1550000D01*
Y1350000D02*
X1655000D01*
Y1550000D01*
X1625000D02*
X1655000D01*
X1625000Y1341000D02*
Y1350000D01*
Y1550000D02*
Y1559000D01*
X2190000Y1032055D02*
Y1062055D01*
X1990000D02*
X2190000D01*
X1990000Y1002055D02*
Y1062055D01*
Y1002055D02*
X2190000D01*
Y1032055D01*
X1981000D02*
X1990000D01*
X2190000D02*
X2199000D01*
X2930000Y3190000D02*
Y3220000D01*
X2730000D02*
X2930000D01*
X2730000Y3160000D02*
Y3220000D01*
Y3160000D02*
X2930000D01*
Y3190000D01*
X2721000D02*
X2730000D01*
X2930000D02*
X2939000D01*
X2269528Y801307D02*
Y832803D01*
X2210472Y801307D02*
Y832803D01*
X2674056Y2318740D02*
Y2411260D01*
X2555944Y2318740D02*
X2674056D01*
X2555944D02*
Y2411260D01*
X2674056D01*
X2775000Y2515000D02*
Y2524000D01*
Y2306000D02*
Y2315000D01*
Y2515000D02*
X2805000D01*
Y2315000D02*
Y2515000D01*
X2745000Y2315000D02*
X2805000D01*
X2745000D02*
Y2515000D01*
X2775000D01*
X2840000D02*
X2870000D01*
X2840000Y2315000D02*
Y2515000D01*
Y2315000D02*
X2900000D01*
Y2515000D01*
X2870000D02*
X2900000D01*
X2870000Y2306000D02*
Y2315000D01*
Y2515000D02*
Y2524000D01*
X1213544Y2024252D02*
Y2173860D01*
X1406456Y2024252D02*
Y2173860D01*
X2514504Y1829438D02*
X2664504D01*
Y1379438D02*
Y1829438D01*
X2514504Y1379438D02*
X2664504D01*
X2514504D02*
Y1829438D01*
X3325000Y3000000D02*
X3355000D01*
X3325000Y2800000D02*
Y3000000D01*
Y2800000D02*
X3385000D01*
Y3000000D01*
X3355000D02*
X3385000D01*
X3355000Y2791000D02*
Y2800000D01*
Y3000000D02*
Y3009000D01*
X1460591Y3045839D02*
X1490591D01*
X1460591Y2845839D02*
Y3045839D01*
Y2845839D02*
X1520591D01*
Y3045839D01*
X1490591D02*
X1520591D01*
X1490591Y2836839D02*
Y2845839D01*
Y3045839D02*
Y3054839D01*
X1700000Y320000D02*
X1730000D01*
X1700000Y120000D02*
Y320000D01*
Y120000D02*
X1760000D01*
Y320000D01*
X1730000D02*
X1760000D01*
X1730000Y111000D02*
Y120000D01*
Y320000D02*
Y329000D01*
X1595000Y450000D02*
Y480000D01*
X1395000D02*
X1595000D01*
X1395000Y420000D02*
Y480000D01*
Y420000D02*
X1595000D01*
Y450000D01*
X1386000D02*
X1395000D01*
X1595000D02*
X1604000D01*
X1775000Y1032055D02*
Y1062055D01*
X1575000D02*
X1775000D01*
X1575000Y1002055D02*
Y1062055D01*
Y1002055D02*
X1775000D01*
Y1032055D01*
X1566000D02*
X1575000D01*
X1775000D02*
X1784000D01*
X3390000Y1805000D02*
Y2505000D01*
X3590000Y1805000D02*
Y2505000D01*
X3390000D02*
X3590000D01*
X3390000Y1805000D02*
X3590000D01*
X1853819Y906559D02*
X1883819D01*
X1853819Y706559D02*
Y906559D01*
Y706559D02*
X1913819D01*
Y906559D01*
X1883819D02*
X1913819D01*
X1883819Y697559D02*
Y706559D01*
Y906559D02*
Y915559D01*
X2364504Y1769438D02*
X2394504D01*
X2364504Y1569438D02*
Y1769438D01*
Y1569438D02*
X2424504D01*
Y1769438D01*
X2394504D02*
X2424504D01*
X2394504Y1560438D02*
Y1569438D01*
Y1769438D02*
Y1778438D01*
X2735000Y3095000D02*
X2885000D01*
Y2645000D02*
Y3095000D01*
X2735000Y2645000D02*
X2885000D01*
X2735000D02*
Y3095000D01*
X2185000Y525000D02*
X2335000D01*
Y75000D02*
Y525000D01*
X2185000Y75000D02*
X2335000D01*
X2185000D02*
Y525000D01*
D11*
X1536850Y1390000D02*
G03*
X1536850Y1390000I-196850J0D01*
G01*
X491850Y2205000D02*
G03*
X491850Y2205000I-196850J0D01*
G01*
X493220Y2694094D02*
G03*
X493220Y2694094I-196850J0D01*
G01*
X2101850Y1395000D02*
G03*
X2101850Y1395000I-196850J0D01*
G01*
X452283Y3010771D02*
G03*
X654212Y3009370I101536J81605D01*
G01*
X854999D02*
G03*
X654212Y3009370I-100394J-83005D01*
G01*
X311692Y2910944D02*
Y3107796D01*
X996732Y2910944D02*
Y3107796D01*
X311692D02*
X996732D01*
X311692Y2910944D02*
X996732D01*
X2552655Y179381D02*
X2542658Y189377D01*
X2522664D01*
X2512668Y179381D01*
Y169384D01*
X2522664Y159387D01*
X2542658D01*
X2552655Y149390D01*
Y139394D01*
X2542658Y129397D01*
X2522664D01*
X2512668Y139394D01*
X2572648Y179381D02*
X2582645Y189377D01*
X2602639D01*
X2612635Y179381D01*
Y169384D01*
X2602639Y159387D01*
X2592642D01*
X2602639D01*
X2612635Y149390D01*
Y139394D01*
X2602639Y129397D01*
X2582645D01*
X2572648Y139394D01*
X2672616Y189377D02*
X2632629D01*
Y129397D01*
X2672616D01*
X2632629Y159387D02*
X2652622D01*
X2692609Y119400D02*
X2732597D01*
X2752590Y129397D02*
Y169384D01*
X2772584Y189377D01*
X2792577Y169384D01*
Y129397D01*
Y159387D01*
X2752590D01*
X2852558Y129397D02*
X2812571D01*
X2852558Y169384D01*
Y179381D01*
X2842561Y189377D01*
X2822567D01*
X2812571Y179381D01*
X2912538Y189377D02*
X2872551D01*
Y159387D01*
X2892545Y169384D01*
X2902541D01*
X2912538Y159387D01*
Y139394D01*
X2902541Y129397D01*
X2882548D01*
X2872551Y139394D01*
X2932532Y129397D02*
Y189377D01*
X2962522D01*
X2972519Y179381D01*
Y159387D01*
X2962522Y149390D01*
X2932532D01*
X2992512Y179381D02*
X3002509Y189377D01*
X3022503D01*
X3032499Y179381D01*
Y139394D01*
X3022503Y129397D01*
X3002509D01*
X2992512Y139394D01*
Y179381D01*
X3052493Y129397D02*
X3072486D01*
X3062490D01*
Y189377D01*
X3052493Y179381D01*
X3102477Y159387D02*
X3142464D01*
X3162457Y179381D02*
X3172454Y189377D01*
X3192448D01*
X3202445Y179381D01*
Y139394D01*
X3192448Y129397D01*
X3172454D01*
X3162457Y139394D01*
Y179381D01*
X3222438Y129397D02*
X3242432D01*
X3232435D01*
Y189377D01*
X3222438Y179381D01*
X3272422Y129397D02*
Y169384D01*
X3292415Y189377D01*
X3312409Y169384D01*
Y129397D01*
Y159387D01*
X3272422D01*
X2555026Y2540010D02*
Y2599990D01*
X2585016D01*
X2595013Y2589994D01*
Y2570000D01*
X2585016Y2560003D01*
X2555026D01*
X2575019D02*
X2595013Y2540010D01*
X2654994D02*
X2615006D01*
X2654994Y2579997D01*
Y2589994D01*
X2644997Y2599990D01*
X2625003D01*
X2615006Y2589994D01*
X2674987D02*
X2684984Y2599990D01*
X2704977D01*
X2714974Y2589994D01*
Y2550006D01*
X2704977Y2540010D01*
X2684984D01*
X2674987Y2550006D01*
Y2589994D01*
X330013Y3199990D02*
X370000Y3140010D01*
Y3199990D02*
X330013Y3140010D01*
X389994D02*
X409987D01*
X399990D01*
Y3199990D01*
X389994Y3189994D01*
X2465010Y2315016D02*
X2514994D01*
X2524990Y2325013D01*
Y2345006D01*
X2514994Y2355003D01*
X2465010D01*
X2524990Y2404987D02*
X2465010D01*
X2495000Y2374997D01*
Y2414984D01*
X2289520Y2099428D02*
Y2049444D01*
X2299517Y2039447D01*
X2319510D01*
X2329507Y2049444D01*
Y2099428D01*
X2349501Y2089431D02*
X2359498Y2099428D01*
X2379491D01*
X2389488Y2089431D01*
Y2079434D01*
X2379491Y2069438D01*
X2369494D01*
X2379491D01*
X2389488Y2059441D01*
Y2049444D01*
X2379491Y2039447D01*
X2359498D01*
X2349501Y2049444D01*
X2950026Y2390010D02*
Y2449990D01*
X2980016D01*
X2990013Y2439994D01*
Y2420000D01*
X2980016Y2410003D01*
X2950026D01*
X2970019D02*
X2990013Y2390010D01*
X3049994D02*
X3010006D01*
X3049994Y2429997D01*
Y2439994D01*
X3039997Y2449990D01*
X3020003D01*
X3010006Y2439994D01*
X3069987D02*
X3079984Y2449990D01*
X3099977D01*
X3109974Y2439994D01*
Y2429997D01*
X3099977Y2420000D01*
X3089981D01*
X3099977D01*
X3109974Y2410003D01*
Y2400006D01*
X3099977Y2390010D01*
X3079984D01*
X3069987Y2400006D01*
X2169530Y1264447D02*
Y1324428D01*
X2199520D01*
X2209517Y1314431D01*
Y1294438D01*
X2199520Y1284441D01*
X2169530D01*
X2189523D02*
X2209517Y1264447D01*
X2269498D02*
X2229510D01*
X2269498Y1304434D01*
Y1314431D01*
X2259501Y1324428D01*
X2239507D01*
X2229510Y1314431D01*
X2329478Y1264447D02*
X2289491D01*
X2329478Y1304434D01*
Y1314431D01*
X2319481Y1324428D01*
X2299488D01*
X2289491Y1314431D01*
X2195023Y1635010D02*
Y1694990D01*
X2225013D01*
X2235010Y1684994D01*
Y1665000D01*
X2225013Y1655003D01*
X2195023D01*
X2215016D02*
X2235010Y1635010D01*
X2294990D02*
X2255003D01*
X2294990Y1674997D01*
Y1684994D01*
X2284994Y1694990D01*
X2265000D01*
X2255003Y1684994D01*
X2314984Y1635010D02*
X2334977D01*
X2324981D01*
Y1694990D01*
X2314984Y1684994D01*
X2674990Y1925024D02*
X2615010D01*
Y1955015D01*
X2625006Y1965011D01*
X2645000D01*
X2654997Y1955015D01*
Y1925024D01*
Y1945018D02*
X2674990Y1965011D01*
Y1985005D02*
Y2004998D01*
Y1995002D01*
X2615010D01*
X2625006Y1985005D01*
X2664994Y2034989D02*
X2674990Y2044986D01*
Y2064979D01*
X2664994Y2074976D01*
X2625006D01*
X2615010Y2064979D01*
Y2044986D01*
X2625006Y2034989D01*
X2635003D01*
X2645000Y2044986D01*
Y2074976D01*
X1648843Y726569D02*
Y786549D01*
X1678834D01*
X1688831Y776553D01*
Y756559D01*
X1678834Y746562D01*
X1648843D01*
X1668837D02*
X1688831Y726569D01*
X1708824D02*
X1728818D01*
X1718821D01*
Y786549D01*
X1708824Y776553D01*
X1758808D02*
X1768805Y786549D01*
X1788798D01*
X1798795Y776553D01*
Y766556D01*
X1788798Y756559D01*
X1798795Y746562D01*
Y736566D01*
X1788798Y726569D01*
X1768805D01*
X1758808Y736566D01*
Y746562D01*
X1768805Y756559D01*
X1758808Y766556D01*
Y776553D01*
X1768805Y756559D02*
X1788798D01*
X1985024Y917065D02*
Y977045D01*
X2015015D01*
X2025011Y967048D01*
Y947055D01*
X2015015Y937058D01*
X1985024D01*
X2005018D02*
X2025011Y917065D01*
X2045005D02*
X2064998D01*
X2055002D01*
Y977045D01*
X2045005Y967048D01*
X2094989Y977045D02*
X2134976D01*
Y967048D01*
X2094989Y927062D01*
Y917065D01*
X1580024Y922065D02*
Y982045D01*
X1610015D01*
X1620011Y972048D01*
Y952055D01*
X1610015Y942058D01*
X1580024D01*
X1600018D02*
X1620011Y922065D01*
X1640005D02*
X1659998D01*
X1650002D01*
Y982045D01*
X1640005Y972048D01*
X1729976Y982045D02*
X1689989D01*
Y952055D01*
X1709982Y962052D01*
X1719979D01*
X1729976Y952055D01*
Y932062D01*
X1719979Y922065D01*
X1699986D01*
X1689989Y932062D01*
X1540024Y1650010D02*
Y1709990D01*
X1570015D01*
X1580011Y1699994D01*
Y1680000D01*
X1570015Y1670003D01*
X1540024D01*
X1560018D02*
X1580011Y1650010D01*
X1600005D02*
X1619998D01*
X1610002D01*
Y1709990D01*
X1600005Y1699994D01*
X1679979Y1650010D02*
Y1709990D01*
X1649989Y1680000D01*
X1689976D01*
X3469990Y2835024D02*
X3410010D01*
Y2865015D01*
X3420006Y2875011D01*
X3440000D01*
X3449997Y2865015D01*
Y2835024D01*
Y2855018D02*
X3469990Y2875011D01*
Y2895005D02*
Y2914998D01*
Y2905002D01*
X3410010D01*
X3420006Y2895005D01*
Y2944989D02*
X3410010Y2954985D01*
Y2974979D01*
X3420006Y2984976D01*
X3430003D01*
X3440000Y2974979D01*
Y2964982D01*
Y2974979D01*
X3449997Y2984976D01*
X3459993D01*
X3469990Y2974979D01*
Y2954985D01*
X3459993Y2944989D01*
X3209990Y1685024D02*
X3150010D01*
Y1715014D01*
X3160006Y1725011D01*
X3180000D01*
X3189997Y1715014D01*
Y1685024D01*
Y1705018D02*
X3209990Y1725011D01*
Y1745005D02*
Y1764998D01*
Y1755002D01*
X3150010D01*
X3160006Y1745005D01*
X3209990Y1834976D02*
Y1794989D01*
X3170003Y1834976D01*
X3160006D01*
X3150010Y1824979D01*
Y1804985D01*
X3160006Y1794989D01*
X1844990Y80016D02*
X1785010D01*
Y110007D01*
X1795006Y120003D01*
X1815000D01*
X1824997Y110007D01*
Y80016D01*
Y100010D02*
X1844990Y120003D01*
X1785010Y179984D02*
Y139997D01*
X1815000D01*
X1805003Y159990D01*
Y169987D01*
X1815000Y179984D01*
X1834994D01*
X1844990Y169987D01*
Y149994D01*
X1834994Y139997D01*
X1918044Y327139D02*
Y387119D01*
X1948034D01*
X1958031Y377122D01*
Y357129D01*
X1948034Y347132D01*
X1918044D01*
X1938038D02*
X1958031Y327139D01*
X2008015D02*
Y387119D01*
X1978025Y357129D01*
X2018012D01*
X1495016Y510010D02*
Y569990D01*
X1525006D01*
X1535003Y559994D01*
Y540000D01*
X1525006Y530003D01*
X1495016D01*
X1515010D02*
X1535003Y510010D01*
X1554997Y559994D02*
X1564994Y569990D01*
X1584987D01*
X1594984Y559994D01*
Y549997D01*
X1584987Y540000D01*
X1574990D01*
X1584987D01*
X1594984Y530003D01*
Y520006D01*
X1584987Y510010D01*
X1564994D01*
X1554997Y520006D01*
X3030016Y3165010D02*
Y3224990D01*
X3060006D01*
X3070003Y3214994D01*
Y3195000D01*
X3060006Y3185003D01*
X3030016D01*
X3050010D02*
X3070003Y3165010D01*
X3129984D02*
X3089997D01*
X3129984Y3204997D01*
Y3214994D01*
X3119987Y3224990D01*
X3099994D01*
X3089997Y3214994D01*
X1467000Y3157000D02*
Y3216981D01*
X1496990D01*
X1506987Y3206984D01*
Y3186990D01*
X1496990Y3176994D01*
X1467000D01*
X1486994D02*
X1506987Y3157000D01*
X1526981D02*
X1546974D01*
X1536977D01*
Y3216981D01*
X1526981Y3206984D01*
X2149373Y2098825D02*
Y2138811D01*
X2139376Y2148808D01*
X2119383D01*
X2109386Y2138811D01*
Y2098825D01*
X2119383Y2088828D01*
X2139376D01*
X2129380Y2108821D02*
X2149373Y2088828D01*
X2139376D02*
X2149373Y2098825D01*
X2169367Y2138811D02*
X2179364Y2148808D01*
X2199357D01*
X2209354Y2138811D01*
Y2128815D01*
X2199357Y2118818D01*
X2189360D01*
X2199357D01*
X2209354Y2108821D01*
Y2098825D01*
X2199357Y2088828D01*
X2179364D01*
X2169367Y2098825D01*
X1120003Y2090006D02*
Y2129994D01*
X1110006Y2139990D01*
X1090013D01*
X1080016Y2129994D01*
Y2090006D01*
X1090013Y2080010D01*
X1110006D01*
X1100010Y2100003D02*
X1120003Y2080010D01*
X1110006D02*
X1120003Y2090006D01*
X1179984Y2080010D02*
X1139997D01*
X1179984Y2119997D01*
Y2129994D01*
X1169987Y2139990D01*
X1149994D01*
X1139997Y2129994D01*
X565987Y2329997D02*
Y2369984D01*
X555990Y2379981D01*
X535997D01*
X526000Y2369984D01*
Y2329997D01*
X535997Y2320000D01*
X555990D01*
X545994Y2339994D02*
X565987Y2320000D01*
X555990D02*
X565987Y2329997D01*
X585981Y2320000D02*
X605974D01*
X595977D01*
Y2379981D01*
X585981Y2369984D01*
X3625010Y2489987D02*
X3684990D01*
Y2459997D01*
X3674994Y2450000D01*
X3655000D01*
X3645003Y2459997D01*
Y2489987D01*
X3625010Y2430006D02*
Y2410013D01*
Y2420010D01*
X3684990D01*
X3674994Y2430006D01*
X2300021Y2924990D02*
X2320015D01*
X2310018D01*
Y2865010D01*
X2300021D01*
X2320015D01*
X2389992Y2914994D02*
X2379995Y2924990D01*
X2360002D01*
X2350005Y2914994D01*
Y2875006D01*
X2360002Y2865010D01*
X2379995D01*
X2389992Y2875006D01*
X2409985Y2865010D02*
X2429979D01*
X2419982D01*
Y2924990D01*
X2409985Y2914994D01*
X75013Y2444994D02*
X65016Y2454990D01*
X45023D01*
X35026Y2444994D01*
Y2405006D01*
X45023Y2395010D01*
X65016D01*
X75013Y2405006D01*
Y2425000D01*
X55019D01*
X95007Y2395010D02*
Y2454990D01*
X134994Y2395010D01*
Y2454990D01*
X154987D02*
Y2395010D01*
X184977D01*
X194974Y2405006D01*
Y2444994D01*
X184977Y2454990D01*
X154987D01*
X1055013Y2789990D02*
Y2730010D01*
X1085003D01*
X1095000Y2740006D01*
Y2779994D01*
X1085003Y2789990D01*
X1055013D01*
X1114994Y2730010D02*
X1134987D01*
X1124990D01*
Y2789990D01*
X1114994Y2779994D01*
X2705006Y1540011D02*
X2695010Y1530015D01*
Y1510021D01*
X2705006Y1500024D01*
X2744994D01*
X2754990Y1510021D01*
Y1530015D01*
X2744994Y1540011D01*
X2754990Y1560005D02*
Y1579998D01*
Y1570002D01*
X2695010D01*
X2705006Y1560005D01*
Y1609989D02*
X2695010Y1619986D01*
Y1639979D01*
X2705006Y1649976D01*
X2744994D01*
X2754990Y1639979D01*
Y1619986D01*
X2744994Y1609989D01*
X2705006D01*
X2115003Y832048D02*
X2105006Y842045D01*
X2085013D01*
X2075016Y832048D01*
Y792062D01*
X2085013Y782065D01*
X2105006D01*
X2115003Y792062D01*
X2134997D02*
X2144994Y782065D01*
X2164987D01*
X2174984Y792062D01*
Y832048D01*
X2164987Y842045D01*
X2144994D01*
X2134997Y832048D01*
Y822052D01*
X2144994Y812055D01*
X2174984D01*
X2930006Y2705003D02*
X2920010Y2695006D01*
Y2675013D01*
X2930006Y2665016D01*
X2969994D01*
X2979990Y2675013D01*
Y2695006D01*
X2969994Y2705003D01*
X2930006Y2724997D02*
X2920010Y2734994D01*
Y2754987D01*
X2930006Y2764984D01*
X2940003D01*
X2950000Y2754987D01*
X2959997Y2764984D01*
X2969994D01*
X2979990Y2754987D01*
Y2734994D01*
X2969994Y2724997D01*
X2959997D01*
X2950000Y2734994D01*
X2940003Y2724997D01*
X2930006D01*
X2950000Y2734994D02*
Y2754987D01*
X2530987Y3178984D02*
X2520990Y3188981D01*
X2500997D01*
X2491000Y3178984D01*
Y3138997D01*
X2500997Y3129000D01*
X2520990D01*
X2530987Y3138997D01*
X2550981Y3188981D02*
X2590968D01*
Y3178984D01*
X2550981Y3138997D01*
Y3129000D01*
X3030003Y2139994D02*
X3020006Y2149990D01*
X3000013D01*
X2990016Y2139994D01*
Y2100006D01*
X3000013Y2090010D01*
X3020006D01*
X3030003Y2100006D01*
X3089984Y2149990D02*
X3069990Y2139994D01*
X3049997Y2120000D01*
Y2100006D01*
X3059994Y2090010D01*
X3079987D01*
X3089984Y2100006D01*
Y2110003D01*
X3079987Y2120000D01*
X3049997D01*
X1710006Y2895003D02*
X1700010Y2885006D01*
Y2865013D01*
X1710006Y2855016D01*
X1749994D01*
X1759990Y2865013D01*
Y2885006D01*
X1749994Y2895003D01*
X1700010Y2954984D02*
Y2914997D01*
X1730000D01*
X1720003Y2934990D01*
Y2944987D01*
X1730000Y2954984D01*
X1749994D01*
X1759990Y2944987D01*
Y2924994D01*
X1749994Y2914997D01*
X2102880Y285082D02*
X2092883Y275085D01*
Y255092D01*
X2102880Y245095D01*
X2142867D01*
X2152864Y255092D01*
Y275085D01*
X2142867Y285082D01*
X2152864Y335066D02*
X2092883D01*
X2122874Y305076D01*
Y345063D01*
X3064994Y2914997D02*
X3074990Y2924994D01*
Y2944987D01*
X3064994Y2954984D01*
X3025006D01*
X3015010Y2944987D01*
Y2924994D01*
X3025006Y2914997D01*
X3064994Y2895003D02*
X3074990Y2885006D01*
Y2865013D01*
X3064994Y2855016D01*
X3054997D01*
X3045000Y2865013D01*
Y2875010D01*
Y2865013D01*
X3035003Y2855016D01*
X3025006D01*
X3015010Y2865013D01*
Y2885006D01*
X3025006Y2895003D01*
X1602683Y2381038D02*
X1592686Y2391035D01*
X1572692D01*
X1562696Y2381038D01*
Y2341051D01*
X1572692Y2331054D01*
X1592686D01*
X1602683Y2341051D01*
X1662663Y2331054D02*
X1622676D01*
X1662663Y2371041D01*
Y2381038D01*
X1652666Y2391035D01*
X1632673D01*
X1622676Y2381038D01*
X1250987Y3218984D02*
X1240990Y3228981D01*
X1220997D01*
X1211000Y3218984D01*
Y3178997D01*
X1220997Y3169000D01*
X1240990D01*
X1250987Y3178997D01*
X1270981Y3169000D02*
X1290974D01*
X1280977D01*
Y3228981D01*
X1270981Y3218984D01*
X144987Y2926000D02*
X105000D01*
X144987Y2965987D01*
Y2975984D01*
X134990Y2985981D01*
X114997D01*
X105000Y2975984D01*
X194971Y2926000D02*
Y2985981D01*
X164981Y2955990D01*
X204968D01*
X224961Y2985981D02*
Y2945994D01*
X244955Y2926000D01*
X264948Y2945994D01*
Y2985981D01*
X1015016Y1270000D02*
X1055003D01*
X1074997Y1240010D02*
Y1299990D01*
X1094990Y1279997D01*
X1114984Y1299990D01*
Y1240010D01*
X1970016Y1165000D02*
X2010003D01*
X1990010Y1184994D02*
Y1145006D01*
X2029997Y1135010D02*
Y1194990D01*
X2049990Y1174997D01*
X2069984Y1194990D01*
Y1135010D01*
D12*
X993110Y2205000D02*
G03*
X993110Y2205000I-4921J0D01*
G01*
D13*
X1909370Y1948267D02*
G03*
X1909370Y1944330I0J-1968D01*
G01*
D02*
G03*
X1909370Y1948267I0J1968D01*
G01*
X1235000Y1949450D02*
G03*
X1235000Y1945513I0J-1968D01*
G01*
D02*
G03*
X1235000Y1949450I0J1968D01*
G01*
D14*
X2683033Y2452008D02*
G03*
X2683033Y2452008I-7010J0D01*
G01*
X2678230Y2452795D02*
G03*
X2678230Y2452795I-1419J0D01*
G01*
X2677205Y2451614D02*
G03*
X2677205Y2451614I-1575J0D01*
G01*
X2678319Y2452008D02*
G03*
X2678319Y2452008I-2296J0D01*
G01*
X2678665D02*
G03*
X2678665Y2452008I-2641J0D01*
G01*
X2679545D02*
G03*
X2679545Y2452008I-3521J0D01*
G01*
X2680282D02*
G03*
X2680282Y2452008I-4258J0D01*
G01*
X2681591D02*
G03*
X2681591Y2452008I-5568J0D01*
G01*
D15*
X2296512Y1902352D02*
X2322496D01*
X2278008Y1946248D02*
Y1972626D01*
X2296512Y2016524D02*
X2322496D01*
X1090000Y2834980D02*
X1158700D01*
X1021300D02*
X1090000D01*
X1021300Y2495020D02*
Y2834980D01*
Y2495020D02*
X1090000D01*
X1158700D01*
Y2834980D01*
X1090000Y2412048D02*
Y2495020D01*
Y2834980D02*
Y2917952D01*
D16*
X3420000Y1775000D02*
Y1758339D01*
Y1766669D01*
X3469984D01*
X3461653Y1775000D01*
Y1733347D02*
X3469984Y1725016D01*
Y1708355D01*
X3461653Y1700024D01*
X3453323D01*
X3444992Y1708355D01*
Y1716686D01*
Y1708355D01*
X3436661Y1700024D01*
X3428331D01*
X3420000Y1708355D01*
Y1725016D01*
X3428331Y1733347D01*
X3520000Y1775000D02*
Y1758339D01*
Y1766669D01*
X3569984D01*
X3561653Y1775000D01*
X3520000Y1708355D02*
X3569984D01*
X3544992Y1733347D01*
Y1700024D01*
X3420000Y2575000D02*
Y2558339D01*
Y2566669D01*
X3469984D01*
X3461653Y2575000D01*
X3520000Y2541677D02*
Y2575000D01*
X3553323Y2541677D01*
X3561653D01*
X3569984Y2550008D01*
Y2566669D01*
X3561653Y2575000D01*
M02*
