G04*
G04 #@! TF.GenerationSoftware,Altium Limited,Altium Designer,25.3.3 (18)*
G04*
G04 Layer_Physical_Order=2*
G04 Layer_Color=16711680*
%FSLAX26Y26*%
%MOIN*%
G70*
G04*
G04 #@! TF.SameCoordinates,14895927-405C-4533-9FDA-7E114B43C09E*
G04*
G04*
G04 #@! TF.FilePolarity,Positive*
G04*
G01*
G75*
%ADD11C,0.010000*%
%ADD28R,0.072441X0.072441*%
%ADD29C,0.072441*%
%ADD46C,0.031000*%
%ADD47C,0.035000*%
%ADD50C,0.275591*%
%ADD51C,0.047244*%
%ADD52C,0.076378*%
%ADD53R,0.076378X0.076378*%
%ADD54C,0.055118*%
%ADD55C,0.059055*%
%ADD56R,0.059055X0.059055*%
%ADD57C,0.098425*%
%ADD58C,0.050000*%
G36*
X3740147Y3339380D02*
X3735001Y0D01*
X0D01*
Y3346457D01*
X3733081D01*
X3740147Y3339380D01*
D02*
G37*
%LPC*%
G36*
X2050926Y3235634D02*
X2041973D01*
X2033326Y3233317D01*
X2025573Y3228841D01*
X2019243Y3222510D01*
X2016720Y3218141D01*
X2009183Y3211150D01*
X2003720Y3212237D01*
X2003720Y3212237D01*
X1487963D01*
X1487962Y3212237D01*
X1482500Y3211150D01*
X1477869Y3208056D01*
X1323225Y3053412D01*
X1319707Y3054204D01*
X1318414Y3055000D01*
X1285000D01*
Y3021586D01*
X1285796Y3020293D01*
X1286588Y3016775D01*
X1169907Y2900093D01*
X1166812Y2895463D01*
X1165726Y2890000D01*
X1165726Y2889999D01*
Y2247714D01*
X1161877Y2246683D01*
X1154123Y2242207D01*
X1147793Y2235876D01*
X1143317Y2228124D01*
X1141000Y2219476D01*
Y2210524D01*
X1143317Y2201876D01*
X1147793Y2194124D01*
X1154123Y2187793D01*
X1161877Y2183317D01*
X1170524Y2181000D01*
X1179476D01*
X1188123Y2183317D01*
X1195877Y2187793D01*
X1202207Y2194124D01*
X1206683Y2201876D01*
X1209000Y2210524D01*
Y2219476D01*
X1206683Y2228124D01*
X1202207Y2235876D01*
X1195877Y2242207D01*
X1194274Y2243132D01*
Y2884087D01*
X1376487Y3066300D01*
X1385726Y3062473D01*
Y2738131D01*
X1385726Y2738130D01*
X1386812Y2732668D01*
X1389907Y2728037D01*
X1586611Y2531332D01*
X1586993Y2530726D01*
X1587800Y2521287D01*
X1587157Y2518402D01*
X1586988Y2518123D01*
X1585787Y2516923D01*
X1581492Y2509484D01*
X1579269Y2501187D01*
Y2492597D01*
X1581492Y2484301D01*
X1585787Y2476862D01*
X1591861Y2470788D01*
X1599300Y2466493D01*
X1607597Y2464270D01*
X1609186D01*
X1827485Y2245972D01*
X1829690Y2244498D01*
X1832793Y2239124D01*
X1839123Y2232793D01*
X1846877Y2228317D01*
X1855524Y2226000D01*
X1864476D01*
X1873123Y2228317D01*
X1880877Y2232793D01*
X1887207Y2239124D01*
X1891683Y2246876D01*
X1894000Y2255524D01*
Y2264476D01*
X1891683Y2273124D01*
X1887207Y2280876D01*
X1880877Y2287207D01*
X1873123Y2291683D01*
X1864476Y2294000D01*
X1855524D01*
X1851255Y2292856D01*
X1823106Y2321005D01*
X1823470Y2323343D01*
X1827527Y2330726D01*
X1892719D01*
X2043538Y2179907D01*
X2043538Y2179907D01*
X2048169Y2176812D01*
X2053632Y2175726D01*
X2053632Y2175726D01*
X2462891Y2175726D01*
X2468665Y2165726D01*
X2467385Y2163510D01*
X2465105Y2155000D01*
X2534895D01*
X2532615Y2163510D01*
X2531335Y2165726D01*
X2537109Y2175726D01*
X2704881Y2175726D01*
X2707714Y2171726D01*
X2709751Y2165726D01*
X2705932Y2159111D01*
X2703441Y2149813D01*
Y2140187D01*
X2705932Y2130889D01*
X2710745Y2122552D01*
X2717552Y2115745D01*
X2725889Y2110932D01*
X2735187Y2108441D01*
X2744813D01*
X2754111Y2110932D01*
X2762448Y2115745D01*
X2769255Y2122552D01*
X2774068Y2130889D01*
X2776559Y2140187D01*
Y2149813D01*
X2774068Y2159111D01*
X2770249Y2165726D01*
X2772285Y2171726D01*
X2775119Y2175726D01*
X2862914D01*
X2906733Y2131907D01*
X2906733Y2131907D01*
X2911364Y2128812D01*
X2916826Y2127726D01*
X2916827Y2127726D01*
X3283568D01*
X3283568Y2127726D01*
X3289031Y2128812D01*
X3293662Y2131907D01*
X3395967Y2234212D01*
X3408464Y2232567D01*
X3409170Y2231343D01*
X3416343Y2224170D01*
X3425129Y2219098D01*
X3434928Y2216472D01*
X3445072D01*
X3454871Y2219098D01*
X3463657Y2224170D01*
X3470830Y2231343D01*
X3475902Y2240129D01*
X3478528Y2249928D01*
Y2260072D01*
X3475902Y2269871D01*
X3470830Y2278657D01*
X3465239Y2284248D01*
X3463657Y2285830D01*
X3464848Y2296689D01*
X3494621Y2326462D01*
X3494621Y2326463D01*
X3497715Y2331094D01*
X3497729Y2331161D01*
X3508271Y2332901D01*
X3509170Y2331343D01*
X3516343Y2324170D01*
X3525129Y2319098D01*
X3534928Y2316472D01*
X3545072D01*
X3554871Y2319098D01*
X3563657Y2324170D01*
X3570830Y2331343D01*
X3575902Y2340129D01*
X3578528Y2349928D01*
Y2360072D01*
X3575902Y2369871D01*
X3570830Y2378657D01*
X3563657Y2385830D01*
X3554871Y2390902D01*
X3545072Y2393528D01*
X3534928D01*
X3525129Y2390902D01*
X3516343Y2385830D01*
X3509170Y2378657D01*
X3508802Y2378019D01*
X3499165Y2380383D01*
X3498769Y2380640D01*
X3497715Y2385935D01*
X3494621Y2390566D01*
X3494621Y2390566D01*
X3478660Y2406527D01*
X3478528Y2416472D01*
X3478528Y2419669D01*
Y2493528D01*
X3401472D01*
Y2422218D01*
X3400238Y2417347D01*
X3398218Y2413429D01*
X3394434Y2409621D01*
X3394347Y2409534D01*
X3274087Y2289274D01*
X3259530D01*
X3256851Y2299274D01*
X3261634Y2302036D01*
X3267964Y2308366D01*
X3272440Y2316119D01*
X3274757Y2324766D01*
Y2333719D01*
X3272440Y2342366D01*
X3267964Y2350119D01*
X3261634Y2356449D01*
X3253881Y2360926D01*
X3245233Y2363243D01*
X3236281D01*
X3228917Y2361269D01*
X3057653Y2532534D01*
X3053021Y2535629D01*
X3047559Y2536715D01*
X3047559Y2536715D01*
X2906824D01*
X2901658Y2546715D01*
X2904068Y2550889D01*
X2906559Y2560187D01*
Y2569813D01*
X2904068Y2579111D01*
X2899255Y2587448D01*
X2892448Y2594255D01*
X2884111Y2599068D01*
X2874813Y2601559D01*
X2865187D01*
X2855889Y2599068D01*
X2847552Y2594255D01*
X2840745Y2587448D01*
X2835932Y2579111D01*
X2833441Y2569813D01*
Y2560187D01*
X2835932Y2550889D01*
X2838342Y2546715D01*
X2833176Y2536715D01*
X2811824D01*
X2806658Y2546715D01*
X2809068Y2550889D01*
X2811559Y2560187D01*
Y2569813D01*
X2809116Y2578929D01*
X2880913Y2650726D01*
X3574087D01*
X3670726Y2554087D01*
Y2305913D01*
X3634087Y2269274D01*
X3576062D01*
X3575902Y2269871D01*
X3570830Y2278657D01*
X3563657Y2285830D01*
X3554871Y2290902D01*
X3545072Y2293528D01*
X3534928D01*
X3525129Y2290902D01*
X3516343Y2285830D01*
X3509170Y2278657D01*
X3504098Y2269871D01*
X3501472Y2260072D01*
Y2249928D01*
X3504098Y2240129D01*
X3509170Y2231343D01*
X3516343Y2224170D01*
X3525129Y2219098D01*
X3534928Y2216472D01*
X3545072D01*
X3554871Y2219098D01*
X3563657Y2224170D01*
X3570830Y2231343D01*
X3575902Y2240129D01*
X3576062Y2240726D01*
X3639999D01*
X3640000Y2240726D01*
X3645463Y2241812D01*
X3650093Y2244907D01*
X3695093Y2289906D01*
X3695093Y2289907D01*
X3698188Y2294537D01*
X3699274Y2300000D01*
X3699274Y2300001D01*
Y2560000D01*
X3698188Y2565463D01*
X3695093Y2570093D01*
X3695093Y2570094D01*
X3590093Y2675093D01*
X3585463Y2678188D01*
X3580000Y2679274D01*
X3579999Y2679274D01*
X3187689D01*
X3186372Y2689274D01*
X3187592Y2689601D01*
X3195030Y2693896D01*
X3201104Y2699970D01*
X3205399Y2707408D01*
X3207622Y2715705D01*
Y2724295D01*
X3205399Y2732592D01*
X3201104Y2740030D01*
X3195030Y2746104D01*
X3187592Y2750399D01*
X3179295Y2752622D01*
X3170705D01*
X3164285Y2750902D01*
X3035093Y2880093D01*
X3030463Y2883188D01*
X3025000Y2884274D01*
X3024999Y2884274D01*
X2301019D01*
X2297207Y2890876D01*
X2290876Y2897207D01*
X2283124Y2901683D01*
X2278764Y2902851D01*
X2275182Y2913411D01*
X2302721Y2940951D01*
X3200225D01*
X3200225Y2940951D01*
X3205688Y2942037D01*
X3210319Y2945132D01*
X3300913Y3035726D01*
X3321026D01*
X3325745Y3027552D01*
X3332552Y3020745D01*
X3340889Y3015932D01*
X3350187Y3013441D01*
X3359813D01*
X3369111Y3015932D01*
X3377448Y3020745D01*
X3384255Y3027552D01*
X3389068Y3035889D01*
X3391559Y3045187D01*
Y3054813D01*
X3389068Y3064111D01*
X3384255Y3072448D01*
X3377448Y3079255D01*
X3369111Y3084068D01*
X3359813Y3086559D01*
X3350187D01*
X3340889Y3084068D01*
X3332552Y3079255D01*
X3325745Y3072448D01*
X3321026Y3064274D01*
X3295000D01*
X3289537Y3063188D01*
X3284907Y3060093D01*
X3284906Y3060093D01*
X3194312Y2969499D01*
X2296809D01*
X2296808Y2969499D01*
X2291346Y2968413D01*
X2286715Y2965319D01*
X2286715Y2965318D01*
X2214907Y2893510D01*
X2211812Y2888879D01*
X2210726Y2883417D01*
X2210726Y2883416D01*
Y2656019D01*
X2204124Y2652207D01*
X2197793Y2645876D01*
X2193317Y2638124D01*
X2191000Y2629476D01*
Y2620524D01*
X2193317Y2611876D01*
X2197793Y2604124D01*
X2204124Y2597793D01*
X2208090Y2595503D01*
Y2584497D01*
X2204124Y2582207D01*
X2197793Y2575876D01*
X2193317Y2568124D01*
X2191000Y2559476D01*
Y2550524D01*
X2193317Y2541876D01*
X2197793Y2534124D01*
X2203515Y2528402D01*
X2204124Y2527081D01*
Y2517919D01*
X2203515Y2516598D01*
X2197793Y2510876D01*
X2193317Y2503124D01*
X2191000Y2494476D01*
Y2485524D01*
X2193317Y2476876D01*
X2197793Y2469124D01*
X2203697Y2463220D01*
X2204138Y2462595D01*
X2204496Y2457570D01*
X2203897Y2451377D01*
X2198538Y2446019D01*
X2194062Y2438266D01*
X2191745Y2429618D01*
Y2420666D01*
X2194062Y2412019D01*
X2198538Y2404266D01*
X2204869Y2397935D01*
X2212622Y2393459D01*
X2221269Y2391142D01*
X2230221D01*
X2238869Y2393459D01*
X2246622Y2397935D01*
X2252952Y2404266D01*
X2257428Y2412019D01*
X2259745Y2420666D01*
Y2429618D01*
X2259071Y2432134D01*
X2270810Y2440862D01*
X2271513Y2441640D01*
X2272386Y2442223D01*
X2335888Y2505726D01*
X2364453D01*
X2370227Y2495726D01*
X2368724Y2493124D01*
X2366407Y2484476D01*
Y2475524D01*
X2368381Y2468160D01*
X2186680Y2286459D01*
X2168685D01*
X2164543Y2296459D01*
X2167207Y2299124D01*
X2171683Y2306876D01*
X2174000Y2315524D01*
Y2324476D01*
X2171683Y2333124D01*
X2167207Y2340876D01*
X2160876Y2347207D01*
X2160130Y2347638D01*
Y3053903D01*
X2166732Y3057715D01*
X2173062Y3064045D01*
X2177538Y3071798D01*
X2179855Y3080445D01*
Y3089398D01*
X2177538Y3098045D01*
X2176613Y3099647D01*
X2182387Y3109647D01*
X2528479D01*
X2545726Y3092400D01*
Y3049427D01*
X2539970Y3046104D01*
X2533896Y3040030D01*
X2529601Y3032592D01*
X2527378Y3024295D01*
Y3015705D01*
X2529601Y3007408D01*
X2533896Y2999970D01*
X2539970Y2993896D01*
X2547408Y2989601D01*
X2555705Y2987378D01*
X2564295D01*
X2572592Y2989601D01*
X2580030Y2993896D01*
X2586104Y2999970D01*
X2589427Y3005726D01*
X2780573D01*
X2783896Y2999970D01*
X2789970Y2993896D01*
X2797408Y2989601D01*
X2805705Y2987378D01*
X2814295D01*
X2822592Y2989601D01*
X2830030Y2993896D01*
X2836104Y2999970D01*
X2839427Y3005726D01*
X3145573D01*
X3148896Y2999970D01*
X3154970Y2993896D01*
X3162408Y2989601D01*
X3170705Y2987378D01*
X3179295D01*
X3187592Y2989601D01*
X3195030Y2993896D01*
X3201104Y2999970D01*
X3205399Y3007408D01*
X3207622Y3015705D01*
Y3024295D01*
X3205399Y3032592D01*
X3201104Y3040030D01*
X3195030Y3046104D01*
X3187592Y3050399D01*
X3179295Y3052622D01*
X3170705D01*
X3162408Y3050399D01*
X3154970Y3046104D01*
X3148896Y3040030D01*
X3145573Y3034274D01*
X2839427D01*
X2836104Y3040030D01*
X2830030Y3046104D01*
X2822592Y3050399D01*
X2814295Y3052622D01*
X2805705D01*
X2797408Y3050399D01*
X2789970Y3046104D01*
X2783896Y3040030D01*
X2780573Y3034274D01*
X2589427D01*
X2586104Y3040030D01*
X2580030Y3046104D01*
X2574274Y3049427D01*
Y3098312D01*
X2574274Y3098313D01*
X2573188Y3103775D01*
X2570093Y3108406D01*
X2570093Y3108407D01*
X2544485Y3134015D01*
X2539854Y3137109D01*
X2534392Y3138196D01*
X2534391Y3138196D01*
X2030858D01*
X2030858Y3138196D01*
X2030049Y3138035D01*
X2025877Y3142207D01*
X2018123Y3146683D01*
X2009476Y3149000D01*
X2000524D01*
X1991877Y3146683D01*
X1984123Y3142207D01*
X1977793Y3135876D01*
X1973317Y3128124D01*
X1971000Y3119476D01*
Y3110524D01*
X1972973Y3103160D01*
X1944907Y3075093D01*
X1941812Y3070463D01*
X1940726Y3065000D01*
X1940726Y3064999D01*
Y2663954D01*
X1930726Y2658181D01*
X1928123Y2659683D01*
X1919476Y2662000D01*
X1910524D01*
X1901877Y2659683D01*
X1894123Y2655207D01*
X1887793Y2648876D01*
X1883317Y2641124D01*
X1882822Y2639274D01*
X1660913D01*
X1522389Y2777798D01*
X1524658Y2781727D01*
X1527150Y2791026D01*
Y2800652D01*
X1524658Y2809950D01*
X1519845Y2818286D01*
X1513039Y2825093D01*
X1504702Y2829906D01*
X1495404Y2832398D01*
X1485778D01*
X1476479Y2829906D01*
X1468143Y2825093D01*
X1464274Y2821224D01*
X1454274Y2825367D01*
Y2964087D01*
X1555093Y3064906D01*
X1555093Y3064907D01*
X1558188Y3069537D01*
X1559274Y3075000D01*
Y3119999D01*
X1559274Y3120000D01*
X1558188Y3125463D01*
X1555093Y3130093D01*
X1555093Y3130094D01*
X1535093Y3150093D01*
X1530463Y3153188D01*
X1525000Y3154274D01*
X1524999Y3154274D01*
X1477527D01*
X1473700Y3163513D01*
X1493875Y3183688D01*
X1997906D01*
X2002240Y3180793D01*
X2007703Y3179706D01*
X2007703Y3179706D01*
X2020294D01*
X2025573Y3174427D01*
X2033326Y3169951D01*
X2041973Y3167634D01*
X2050926D01*
X2059573Y3169951D01*
X2067326Y3174427D01*
X2073656Y3180757D01*
X2078132Y3188510D01*
X2080449Y3197158D01*
Y3206110D01*
X2078132Y3214757D01*
X2073656Y3222510D01*
X2067326Y3228841D01*
X2059573Y3233317D01*
X2050926Y3235634D01*
D02*
G37*
G36*
X3554939Y3297842D02*
X3548307D01*
Y3155047D01*
X3691102D01*
Y3161679D01*
X3687463Y3184656D01*
X3680274Y3206781D01*
X3669713Y3227508D01*
X3656039Y3246329D01*
X3639589Y3262779D01*
X3620769Y3276453D01*
X3600041Y3287014D01*
X3577916Y3294203D01*
X3554939Y3297842D01*
D02*
G37*
G36*
X3538307D02*
X3531675D01*
X3508698Y3294203D01*
X3486573Y3287014D01*
X3465845Y3276453D01*
X3447025Y3262779D01*
X3430575Y3246329D01*
X3416901Y3227508D01*
X3406340Y3206781D01*
X3399151Y3184656D01*
X3395512Y3161679D01*
Y3155047D01*
X3538307D01*
Y3297842D01*
D02*
G37*
G36*
X208482D02*
X201850D01*
Y3155047D01*
X344646D01*
Y3161679D01*
X341007Y3184656D01*
X333818Y3206781D01*
X323256Y3227508D01*
X309582Y3246329D01*
X293133Y3262779D01*
X274312Y3276453D01*
X253584Y3287014D01*
X231459Y3294203D01*
X208482Y3297842D01*
D02*
G37*
G36*
X191850D02*
X185219D01*
X162242Y3294203D01*
X140117Y3287014D01*
X119389Y3276453D01*
X100568Y3262779D01*
X84118Y3246329D01*
X70445Y3227508D01*
X59883Y3206781D01*
X52694Y3184656D01*
X49055Y3161679D01*
Y3155047D01*
X191850D01*
Y3297842D01*
D02*
G37*
G36*
X2984813Y3226559D02*
X2975187D01*
X2965889Y3224068D01*
X2957552Y3219255D01*
X2950745Y3212448D01*
X2945932Y3204111D01*
X2943441Y3194813D01*
Y3185187D01*
X2945932Y3175889D01*
X2950745Y3167552D01*
X2957552Y3160745D01*
X2965889Y3155932D01*
X2975187Y3153441D01*
X2984813D01*
X2994111Y3155932D01*
X3002448Y3160745D01*
X3009255Y3167552D01*
X3014068Y3175889D01*
X3016559Y3185187D01*
Y3194813D01*
X3014068Y3204111D01*
X3009255Y3212448D01*
X3002448Y3219255D01*
X2994111Y3224068D01*
X2984813Y3226559D01*
D02*
G37*
G36*
X2684813D02*
X2675187D01*
X2665889Y3224068D01*
X2657552Y3219255D01*
X2650745Y3212448D01*
X2645932Y3204111D01*
X2643441Y3194813D01*
Y3185187D01*
X2645932Y3175889D01*
X2650745Y3167552D01*
X2657552Y3160745D01*
X2665889Y3155932D01*
X2675187Y3153441D01*
X2684813D01*
X2694111Y3155932D01*
X2702448Y3160745D01*
X2709255Y3167552D01*
X2714068Y3175889D01*
X2716559Y3185187D01*
Y3194813D01*
X2714068Y3204111D01*
X2709255Y3212448D01*
X2702448Y3219255D01*
X2694111Y3224068D01*
X2684813Y3226559D01*
D02*
G37*
G36*
X1285000Y3093468D02*
Y3065000D01*
X1313468D01*
X1311331Y3072978D01*
X1306904Y3080644D01*
X1300644Y3086904D01*
X1292978Y3091331D01*
X1285000Y3093468D01*
D02*
G37*
G36*
X1275000D02*
X1267022Y3091331D01*
X1259356Y3086904D01*
X1253096Y3080644D01*
X1248669Y3072978D01*
X1246532Y3065000D01*
X1275000D01*
Y3093468D01*
D02*
G37*
G36*
X2354476Y3049000D02*
X2345524D01*
X2336876Y3046683D01*
X2329124Y3042207D01*
X2322793Y3035876D01*
X2318981Y3029274D01*
X2281019D01*
X2277207Y3035876D01*
X2270876Y3042207D01*
X2263124Y3046683D01*
X2254476Y3049000D01*
X2245524D01*
X2236876Y3046683D01*
X2229124Y3042207D01*
X2222793Y3035876D01*
X2218317Y3028124D01*
X2216000Y3019476D01*
Y3010524D01*
X2218317Y3001876D01*
X2222793Y2994124D01*
X2229124Y2987793D01*
X2236876Y2983317D01*
X2245524Y2981000D01*
X2254476D01*
X2263124Y2983317D01*
X2270876Y2987793D01*
X2277207Y2994124D01*
X2281019Y3000726D01*
X2318981D01*
X2322793Y2994124D01*
X2329124Y2987793D01*
X2336876Y2983317D01*
X2345524Y2981000D01*
X2354476D01*
X2363124Y2983317D01*
X2370876Y2987793D01*
X2377207Y2994124D01*
X2381683Y3001876D01*
X2384000Y3010524D01*
Y3019476D01*
X2381683Y3028124D01*
X2377207Y3035876D01*
X2370876Y3042207D01*
X2363124Y3046683D01*
X2354476Y3049000D01*
D02*
G37*
G36*
X1275000Y3055000D02*
X1246532D01*
X1248669Y3047022D01*
X1253096Y3039356D01*
X1259356Y3033096D01*
X1267022Y3028669D01*
X1275000Y3026532D01*
Y3055000D01*
D02*
G37*
G36*
X3691102Y3145047D02*
X3548307D01*
Y3002252D01*
X3554939D01*
X3577916Y3005891D01*
X3600041Y3013080D01*
X3620769Y3023641D01*
X3639589Y3037315D01*
X3656039Y3053765D01*
X3669713Y3072585D01*
X3680274Y3093313D01*
X3687463Y3115438D01*
X3691102Y3138415D01*
Y3145047D01*
D02*
G37*
G36*
X3538307D02*
X3395512D01*
Y3138415D01*
X3399151Y3115438D01*
X3406340Y3093313D01*
X3416901Y3072585D01*
X3430575Y3053765D01*
X3447025Y3037315D01*
X3465845Y3023641D01*
X3486573Y3013080D01*
X3508698Y3005891D01*
X3531675Y3002252D01*
X3538307D01*
Y3145047D01*
D02*
G37*
G36*
X344646D02*
X201850D01*
Y3002252D01*
X208482D01*
X231459Y3005891D01*
X253584Y3013080D01*
X274312Y3023641D01*
X293133Y3037315D01*
X309582Y3053765D01*
X323256Y3072585D01*
X333818Y3093313D01*
X341007Y3115438D01*
X344646Y3138415D01*
Y3145047D01*
D02*
G37*
G36*
X191850D02*
X49055D01*
Y3138415D01*
X52694Y3115438D01*
X59883Y3093313D01*
X70445Y3072585D01*
X84118Y3053765D01*
X100568Y3037315D01*
X119389Y3023641D01*
X140117Y3013080D01*
X162242Y3005891D01*
X185219Y3002252D01*
X191850D01*
Y3145047D01*
D02*
G37*
G36*
X459157Y3106953D02*
X447691D01*
X436444Y3104716D01*
X425850Y3100327D01*
X416316Y3093957D01*
X408207Y3085848D01*
X401837Y3076314D01*
X397448Y3065720D01*
X395211Y3054473D01*
Y3043007D01*
X397448Y3031760D01*
X401837Y3021166D01*
X408207Y3011632D01*
X416316Y3003523D01*
X425850Y2997153D01*
X436444Y2992764D01*
X447691Y2990527D01*
X459157D01*
X470404Y2992764D01*
X480998Y2997153D01*
X490532Y3003523D01*
X498641Y3011632D01*
X505011Y3021166D01*
X509400Y3031760D01*
X511637Y3043007D01*
Y3054473D01*
X509400Y3065720D01*
X505011Y3076314D01*
X498641Y3085848D01*
X490532Y3093957D01*
X480998Y3100327D01*
X470404Y3104716D01*
X459157Y3106953D01*
D02*
G37*
G36*
X1137189Y3015929D02*
X1042811D01*
Y2921551D01*
X1137189D01*
Y3015929D01*
D02*
G37*
G36*
X860733Y3028213D02*
X849267D01*
X838020Y3025976D01*
X827426Y3021587D01*
X817892Y3015217D01*
X809783Y3007108D01*
X803413Y2997574D01*
X799024Y2986980D01*
X796787Y2975733D01*
Y2964267D01*
X799024Y2953020D01*
X803413Y2942426D01*
X809783Y2932892D01*
X817892Y2924783D01*
X827426Y2918413D01*
X838020Y2914024D01*
X849267Y2911787D01*
X860733D01*
X871980Y2914024D01*
X882574Y2918413D01*
X892108Y2924783D01*
X900217Y2932892D01*
X906587Y2942426D01*
X910976Y2953020D01*
X913213Y2964267D01*
Y2975733D01*
X910976Y2986980D01*
X906587Y2997574D01*
X900217Y3007108D01*
X892108Y3015217D01*
X882574Y3021587D01*
X871980Y3025976D01*
X860733Y3028213D01*
D02*
G37*
G36*
X1709295Y3092622D02*
X1700705D01*
X1692408Y3090399D01*
X1684970Y3086104D01*
X1678896Y3080030D01*
X1674601Y3072592D01*
X1672378Y3064295D01*
Y3055705D01*
X1674601Y3047408D01*
X1678896Y3039970D01*
X1684970Y3033896D01*
X1692408Y3029601D01*
X1700705Y3027378D01*
X1709295D01*
X1715715Y3029098D01*
X1759906Y2984907D01*
X1759907Y2984907D01*
X1764537Y2981812D01*
X1770000Y2980726D01*
X1770001Y2980726D01*
X1853981D01*
X1857793Y2974124D01*
X1863514Y2968402D01*
X1864123Y2967081D01*
Y2957919D01*
X1863514Y2956598D01*
X1857793Y2950876D01*
X1853317Y2943124D01*
X1851000Y2934476D01*
Y2925524D01*
X1851917Y2922104D01*
X1719253Y2789440D01*
X1717592Y2790399D01*
X1709295Y2792622D01*
X1700705D01*
X1692408Y2790399D01*
X1684970Y2786104D01*
X1678896Y2780030D01*
X1674601Y2772592D01*
X1672378Y2764295D01*
Y2755705D01*
X1674601Y2747408D01*
X1678896Y2739970D01*
X1684970Y2733896D01*
X1692408Y2729601D01*
X1700705Y2727378D01*
X1709295D01*
X1717592Y2729601D01*
X1725030Y2733896D01*
X1731104Y2739970D01*
X1735399Y2747408D01*
X1737622Y2755705D01*
Y2764295D01*
X1736958Y2766771D01*
X1869738Y2899551D01*
X1871877Y2898317D01*
X1880524Y2896000D01*
X1889476D01*
X1898123Y2898317D01*
X1905877Y2902793D01*
X1912207Y2909124D01*
X1916683Y2916876D01*
X1919000Y2925524D01*
Y2934476D01*
X1916683Y2943124D01*
X1912207Y2950876D01*
X1906486Y2956598D01*
X1905877Y2957919D01*
Y2967081D01*
X1906486Y2968402D01*
X1912207Y2974124D01*
X1916683Y2981876D01*
X1919000Y2990524D01*
Y2999476D01*
X1916683Y3008124D01*
X1912207Y3015876D01*
X1905877Y3022207D01*
X1898123Y3026683D01*
X1889476Y3029000D01*
X1880524D01*
X1871877Y3026683D01*
X1864123Y3022207D01*
X1857793Y3015876D01*
X1853981Y3009274D01*
X1775913D01*
X1735902Y3049285D01*
X1737622Y3055705D01*
Y3064295D01*
X1735399Y3072592D01*
X1731104Y3080030D01*
X1725030Y3086104D01*
X1717592Y3090399D01*
X1709295Y3092622D01*
D02*
G37*
G36*
X3360000Y2787544D02*
Y2755000D01*
X3392544D01*
X3389999Y2764497D01*
X3385055Y2773062D01*
X3378062Y2780055D01*
X3369497Y2784999D01*
X3360000Y2787544D01*
D02*
G37*
G36*
X3350000D02*
X3340503Y2784999D01*
X3331938Y2780055D01*
X3324945Y2773062D01*
X3320001Y2764497D01*
X3317456Y2755000D01*
X3350000D01*
Y2787544D01*
D02*
G37*
G36*
X1284295Y2792622D02*
X1275705D01*
X1267408Y2790399D01*
X1259970Y2786104D01*
X1253896Y2780030D01*
X1249601Y2772592D01*
X1247378Y2764295D01*
Y2755705D01*
X1249601Y2747408D01*
X1253896Y2739970D01*
X1259970Y2733896D01*
X1267408Y2729601D01*
X1275705Y2727378D01*
X1284295D01*
X1292592Y2729601D01*
X1300030Y2733896D01*
X1306104Y2739970D01*
X1310399Y2747408D01*
X1312622Y2755705D01*
Y2764295D01*
X1310399Y2772592D01*
X1306104Y2780030D01*
X1300030Y2786104D01*
X1292592Y2790399D01*
X1284295Y2792622D01*
D02*
G37*
G36*
X3392544Y2745000D02*
X3360000D01*
Y2712456D01*
X3369497Y2715001D01*
X3378062Y2719945D01*
X3385055Y2726938D01*
X3389999Y2735503D01*
X3392544Y2745000D01*
D02*
G37*
G36*
X3350000D02*
X3317456D01*
X3320001Y2735503D01*
X3324945Y2726938D01*
X3331938Y2719945D01*
X3340503Y2715001D01*
X3350000Y2712456D01*
Y2745000D01*
D02*
G37*
G36*
X307922Y2840889D02*
X284816D01*
X261995Y2837274D01*
X240019Y2830134D01*
X219432Y2819644D01*
X200739Y2806063D01*
X184400Y2789724D01*
X170819Y2771031D01*
X160329Y2750443D01*
X153189Y2728468D01*
X149574Y2705647D01*
Y2682541D01*
X153189Y2659719D01*
X160329Y2637744D01*
X170819Y2617156D01*
X184400Y2598463D01*
X200739Y2582124D01*
X219432Y2568543D01*
X240019Y2558053D01*
X261995Y2550913D01*
X284816Y2547298D01*
X307922D01*
X330744Y2550913D01*
X352719Y2558053D01*
X373307Y2568543D01*
X392000Y2582124D01*
X408339Y2598463D01*
X421920Y2617156D01*
X432410Y2637744D01*
X439550Y2659719D01*
X443165Y2682541D01*
Y2705647D01*
X439550Y2728468D01*
X432410Y2750443D01*
X421920Y2771031D01*
X408339Y2789724D01*
X392000Y2806063D01*
X373307Y2819644D01*
X352719Y2830134D01*
X330744Y2837274D01*
X307922Y2840889D01*
D02*
G37*
G36*
X3545072Y2493528D02*
X3534928D01*
X3525129Y2490902D01*
X3516343Y2485830D01*
X3509170Y2478657D01*
X3504098Y2469871D01*
X3501472Y2460072D01*
Y2449928D01*
X3504098Y2440129D01*
X3509170Y2431343D01*
X3516343Y2424170D01*
X3525129Y2419098D01*
X3534928Y2416472D01*
X3545072D01*
X3554871Y2419098D01*
X3563657Y2424170D01*
X3570830Y2431343D01*
X3575902Y2440129D01*
X3578528Y2449928D01*
Y2460072D01*
X3575902Y2469871D01*
X3570830Y2478657D01*
X3563657Y2485830D01*
X3554871Y2490902D01*
X3545072Y2493528D01*
D02*
G37*
G36*
X1096344Y2409449D02*
X1095000D01*
Y2366260D01*
X1138189D01*
Y2367604D01*
X1134905Y2379860D01*
X1128561Y2390849D01*
X1119589Y2399821D01*
X1108600Y2406165D01*
X1096344Y2409449D01*
D02*
G37*
G36*
X1085000D02*
X1083656D01*
X1071400Y2406165D01*
X1060411Y2399821D01*
X1051439Y2390849D01*
X1045095Y2379860D01*
X1041811Y2367604D01*
Y2366260D01*
X1085000D01*
Y2409449D01*
D02*
G37*
G36*
X1138189Y2356260D02*
X1095000D01*
Y2313071D01*
X1096344D01*
X1108600Y2316355D01*
X1119589Y2322699D01*
X1128561Y2331671D01*
X1134905Y2342660D01*
X1138189Y2354916D01*
Y2356260D01*
D02*
G37*
G36*
X1085000D02*
X1041811D01*
Y2354916D01*
X1045095Y2342660D01*
X1051439Y2331671D01*
X1060411Y2322699D01*
X1071400Y2316355D01*
X1083656Y2313071D01*
X1085000D01*
Y2356260D01*
D02*
G37*
G36*
X745000Y2251220D02*
X743915D01*
X732160Y2248070D01*
X721620Y2241985D01*
X713014Y2233380D01*
X706929Y2222840D01*
X704659Y2214366D01*
X694306D01*
X692139Y2222454D01*
X686185Y2232766D01*
X677766Y2241185D01*
X667454Y2247139D01*
X655953Y2250220D01*
X644047D01*
X632546Y2247139D01*
X622234Y2241185D01*
X613815Y2232766D01*
X607861Y2222454D01*
X604780Y2210953D01*
Y2199047D01*
X607861Y2187546D01*
X613815Y2177234D01*
X622234Y2168815D01*
X632546Y2162861D01*
X644047Y2159780D01*
X655953D01*
X667454Y2162861D01*
X677766Y2168815D01*
X686185Y2177234D01*
X692139Y2187546D01*
X694306Y2195634D01*
X704659D01*
X706929Y2187160D01*
X713014Y2176620D01*
X721620Y2168015D01*
X732160Y2161930D01*
X743915Y2158780D01*
X745000D01*
Y2205000D01*
Y2251220D01*
D02*
G37*
G36*
X1616891Y2230361D02*
Y2201892D01*
X1645360D01*
X1643222Y2209870D01*
X1638796Y2217537D01*
X1632536Y2223797D01*
X1624869Y2228223D01*
X1616891Y2230361D01*
D02*
G37*
G36*
X1606891D02*
X1598914Y2228223D01*
X1591247Y2223797D01*
X1584987Y2217537D01*
X1580561Y2209870D01*
X1578423Y2201892D01*
X1606891D01*
Y2230361D01*
D02*
G37*
G36*
X1645360Y2191892D02*
X1616891D01*
Y2163424D01*
X1624869Y2165562D01*
X1632536Y2169988D01*
X1638796Y2176248D01*
X1643222Y2183915D01*
X1645360Y2191892D01*
D02*
G37*
G36*
X1606891D02*
X1578423D01*
X1580561Y2183915D01*
X1584987Y2176248D01*
X1591247Y2169988D01*
X1598914Y2165562D01*
X1606891Y2163424D01*
Y2191892D01*
D02*
G37*
G36*
X756085Y2251220D02*
X755000D01*
Y2205000D01*
Y2158780D01*
X756085D01*
X767840Y2161930D01*
X778380Y2168015D01*
X786986Y2176620D01*
X793071Y2187160D01*
X794780Y2193538D01*
X804780Y2192221D01*
Y2159780D01*
X895220D01*
Y2250220D01*
X804780D01*
Y2217779D01*
X794780Y2216462D01*
X793071Y2222840D01*
X786986Y2233380D01*
X778380Y2241985D01*
X767840Y2248070D01*
X756085Y2251220D01*
D02*
G37*
G36*
X2495000Y2145000D02*
X2465105D01*
X2467385Y2136490D01*
X2467561Y2136187D01*
X2460971Y2127599D01*
X2459476Y2128000D01*
X2450524D01*
X2441876Y2125683D01*
X2434124Y2121207D01*
X2427793Y2114876D01*
X2423317Y2107124D01*
X2421000Y2098476D01*
Y2089524D01*
X2423317Y2080876D01*
X2427793Y2073124D01*
X2434124Y2066793D01*
X2434985Y2066296D01*
Y2040106D01*
X2271344Y1876465D01*
X2263980Y1878438D01*
X2255028D01*
X2246381Y1876121D01*
X2238628Y1871644D01*
X2232297Y1865314D01*
X2227821Y1857561D01*
X2225504Y1848914D01*
Y1839961D01*
X2227821Y1831314D01*
X2232297Y1823561D01*
X2238628Y1817231D01*
X2246381Y1812755D01*
X2255028Y1810438D01*
X2263980D01*
X2272628Y1812755D01*
X2280381Y1817231D01*
X2286711Y1823561D01*
X2291187Y1831314D01*
X2293504Y1839961D01*
Y1848914D01*
X2291531Y1856277D01*
X2459353Y2024100D01*
X2459353Y2024100D01*
X2462448Y2028731D01*
X2463534Y2034193D01*
Y2061087D01*
X2468124Y2062317D01*
X2475876Y2066793D01*
X2482207Y2073124D01*
X2486683Y2080876D01*
X2489000Y2089524D01*
Y2098476D01*
X2486683Y2107123D01*
X2493370Y2115542D01*
X2495000Y2115105D01*
Y2145000D01*
D02*
G37*
G36*
X3545072Y2193528D02*
X3534928D01*
X3525129Y2190902D01*
X3516343Y2185830D01*
X3509170Y2178657D01*
X3504098Y2169871D01*
X3501472Y2160072D01*
Y2149928D01*
X3504098Y2140129D01*
X3509170Y2131343D01*
X3516343Y2124170D01*
X3525129Y2119098D01*
X3534928Y2116472D01*
X3545072D01*
X3554871Y2119098D01*
X3563657Y2124170D01*
X3570830Y2131343D01*
X3575902Y2140129D01*
X3578528Y2149928D01*
Y2160072D01*
X3575902Y2169871D01*
X3570830Y2178657D01*
X3563657Y2185830D01*
X3554871Y2190902D01*
X3545072Y2193528D01*
D02*
G37*
G36*
X3445072D02*
X3434928D01*
X3425129Y2190902D01*
X3416343Y2185830D01*
X3409170Y2178657D01*
X3404098Y2169871D01*
X3401472Y2160072D01*
Y2149928D01*
X3404098Y2140129D01*
X3409170Y2131343D01*
X3416343Y2124170D01*
X3425129Y2119098D01*
X3434928Y2116472D01*
X3445072D01*
X3454871Y2119098D01*
X3463657Y2124170D01*
X3470830Y2131343D01*
X3475902Y2140129D01*
X3478528Y2149928D01*
Y2160072D01*
X3475902Y2169871D01*
X3470830Y2178657D01*
X3463657Y2185830D01*
X3454871Y2190902D01*
X3445072Y2193528D01*
D02*
G37*
G36*
X2534895Y2145000D02*
X2505000D01*
Y2115105D01*
X2513510Y2117385D01*
X2521490Y2121993D01*
X2528007Y2128510D01*
X2532615Y2136490D01*
X2534895Y2145000D01*
D02*
G37*
G36*
X306553Y2351795D02*
X283447D01*
X260625Y2348181D01*
X238650Y2341041D01*
X218062Y2330551D01*
X199369Y2316969D01*
X183031Y2300631D01*
X169449Y2281938D01*
X158959Y2261350D01*
X151819Y2239375D01*
X148205Y2216553D01*
Y2193447D01*
X151819Y2170625D01*
X158959Y2148650D01*
X169449Y2128062D01*
X183031Y2109369D01*
X199369Y2093031D01*
X218062Y2079449D01*
X238650Y2068959D01*
X260625Y2061819D01*
X283447Y2058205D01*
X306553D01*
X329375Y2061819D01*
X351350Y2068959D01*
X371938Y2079449D01*
X390631Y2093031D01*
X406969Y2109369D01*
X420551Y2128062D01*
X431041Y2148650D01*
X438181Y2170625D01*
X441795Y2193447D01*
Y2216553D01*
X438181Y2239375D01*
X431041Y2261350D01*
X420551Y2281938D01*
X406969Y2300631D01*
X390631Y2316969D01*
X371938Y2330551D01*
X351350Y2341041D01*
X329375Y2348181D01*
X306553Y2351795D01*
D02*
G37*
G36*
X3545072Y2093528D02*
X3534928D01*
X3525129Y2090902D01*
X3516343Y2085830D01*
X3509170Y2078657D01*
X3504098Y2069871D01*
X3501472Y2060072D01*
Y2049928D01*
X3504098Y2040129D01*
X3509170Y2031343D01*
X3516343Y2024170D01*
X3525129Y2019098D01*
X3534928Y2016473D01*
X3545072D01*
X3554871Y2019098D01*
X3563657Y2024170D01*
X3570830Y2031343D01*
X3575902Y2040129D01*
X3578528Y2049928D01*
Y2060072D01*
X3575902Y2069871D01*
X3570830Y2078657D01*
X3563657Y2085830D01*
X3554871Y2090902D01*
X3545072Y2093528D01*
D02*
G37*
G36*
X3445072D02*
X3434928D01*
X3425129Y2090902D01*
X3416343Y2085830D01*
X3409170Y2078657D01*
X3404098Y2069871D01*
X3401472Y2060072D01*
Y2049928D01*
X3404098Y2040129D01*
X3409170Y2031343D01*
X3416343Y2024170D01*
X3425129Y2019098D01*
X3434928Y2016473D01*
X3445072D01*
X3454871Y2019098D01*
X3463657Y2024170D01*
X3470830Y2031343D01*
X3475902Y2040129D01*
X3478528Y2049928D01*
Y2060072D01*
X3475902Y2069871D01*
X3470830Y2078657D01*
X3463657Y2085830D01*
X3454871Y2090902D01*
X3445072Y2093528D01*
D02*
G37*
G36*
X3054295Y2012622D02*
X3045705D01*
X3037408Y2010399D01*
X3029970Y2006104D01*
X3023896Y2000030D01*
X3019601Y1992592D01*
X3017378Y1984295D01*
Y1975705D01*
X3019601Y1967408D01*
X3023896Y1959970D01*
X3029970Y1953896D01*
X3037408Y1949601D01*
X3045705Y1947378D01*
X3054295D01*
X3062592Y1949601D01*
X3070030Y1953896D01*
X3076104Y1959970D01*
X3080399Y1967408D01*
X3082622Y1975705D01*
Y1984295D01*
X3080399Y1992592D01*
X3076104Y2000030D01*
X3070030Y2006104D01*
X3062592Y2010399D01*
X3054295Y2012622D01*
D02*
G37*
G36*
X2471547Y1946880D02*
Y1916985D01*
X2501442D01*
X2499162Y1925494D01*
X2494554Y1933475D01*
X2488038Y1939992D01*
X2480057Y1944600D01*
X2471547Y1946880D01*
D02*
G37*
G36*
X2461547D02*
X2453038Y1944600D01*
X2445057Y1939992D01*
X2438540Y1933475D01*
X2433932Y1925494D01*
X2431652Y1916985D01*
X2461547D01*
Y1946880D01*
D02*
G37*
G36*
X3545072Y1993527D02*
X3534928D01*
X3525129Y1990902D01*
X3516343Y1985830D01*
X3509170Y1978657D01*
X3504098Y1969871D01*
X3501472Y1960072D01*
Y1949928D01*
X3504098Y1940129D01*
X3509170Y1931343D01*
X3516343Y1924170D01*
X3525129Y1919098D01*
X3534928Y1916473D01*
X3545072D01*
X3554871Y1919098D01*
X3563657Y1924170D01*
X3570830Y1931343D01*
X3575902Y1940129D01*
X3578528Y1949928D01*
Y1960072D01*
X3575902Y1969871D01*
X3570830Y1978657D01*
X3563657Y1985830D01*
X3554871Y1990902D01*
X3545072Y1993527D01*
D02*
G37*
G36*
X3445072D02*
X3434928D01*
X3425129Y1990902D01*
X3416343Y1985830D01*
X3409170Y1978657D01*
X3404098Y1969871D01*
X3401472Y1960072D01*
Y1949928D01*
X3404098Y1940129D01*
X3409170Y1931343D01*
X3416343Y1924170D01*
X3425129Y1919098D01*
X3434928Y1916473D01*
X3445072D01*
X3454871Y1919098D01*
X3463657Y1924170D01*
X3470830Y1931343D01*
X3475902Y1940129D01*
X3478528Y1949928D01*
Y1960072D01*
X3475902Y1969871D01*
X3470830Y1978657D01*
X3463657Y1985830D01*
X3454871Y1990902D01*
X3445072Y1993527D01*
D02*
G37*
G36*
X2501442Y1906985D02*
X2471547D01*
Y1877090D01*
X2480057Y1879370D01*
X2488038Y1883978D01*
X2494554Y1890494D01*
X2499162Y1898475D01*
X2501442Y1906985D01*
D02*
G37*
G36*
X2461547D02*
X2431652D01*
X2433932Y1898475D01*
X2438540Y1890494D01*
X2445057Y1883978D01*
X2453038Y1879370D01*
X2461547Y1877090D01*
Y1906985D01*
D02*
G37*
G36*
X3269813Y1946559D02*
X3260187D01*
X3250889Y1944068D01*
X3242552Y1939255D01*
X3235745Y1932448D01*
X3230932Y1924111D01*
X3228441Y1914813D01*
Y1905187D01*
X3230932Y1895889D01*
X3235745Y1887552D01*
X3242552Y1880745D01*
X3250889Y1875932D01*
X3260187Y1873441D01*
X3269813D01*
X3279111Y1875932D01*
X3287448Y1880745D01*
X3294255Y1887552D01*
X3299068Y1895889D01*
X3301559Y1905187D01*
Y1914813D01*
X3299068Y1924111D01*
X3294255Y1932448D01*
X3287448Y1939255D01*
X3279111Y1944068D01*
X3269813Y1946559D01*
D02*
G37*
G36*
X1169476Y1949000D02*
X1160524D01*
X1151877Y1946683D01*
X1144123Y1942207D01*
X1137793Y1935877D01*
X1133317Y1928123D01*
X1131000Y1919476D01*
Y1910524D01*
X1133317Y1901877D01*
X1137793Y1894123D01*
X1144123Y1887793D01*
X1151877Y1883317D01*
X1160524Y1881000D01*
X1169476D01*
X1178123Y1883317D01*
X1185877Y1887793D01*
X1186355Y1888271D01*
X1305399D01*
X1307793Y1884123D01*
X1314123Y1877793D01*
X1321877Y1873317D01*
X1330524Y1871000D01*
X1339476D01*
X1348123Y1873317D01*
X1355877Y1877793D01*
X1362207Y1884123D01*
X1366683Y1891877D01*
X1369000Y1900524D01*
Y1909476D01*
X1366683Y1918123D01*
X1362207Y1925877D01*
X1355877Y1932207D01*
X1348123Y1936683D01*
X1339476Y1939000D01*
X1332248D01*
X1327859Y1940818D01*
X1320941Y1941729D01*
X1186355D01*
X1185877Y1942207D01*
X1178123Y1946683D01*
X1169476Y1949000D01*
D02*
G37*
G36*
X3545204Y1894527D02*
X3545000D01*
Y1860000D01*
X3579528D01*
Y1860204D01*
X3576834Y1870257D01*
X3571630Y1879271D01*
X3564271Y1886630D01*
X3555257Y1891834D01*
X3545204Y1894527D01*
D02*
G37*
G36*
X3535000D02*
X3534796D01*
X3524743Y1891834D01*
X3515729Y1886630D01*
X3508370Y1879271D01*
X3503166Y1870257D01*
X3500472Y1860204D01*
Y1860000D01*
X3535000D01*
Y1894527D01*
D02*
G37*
G36*
X3445072Y1893527D02*
X3434928D01*
X3425129Y1890902D01*
X3416343Y1885830D01*
X3409170Y1878657D01*
X3404098Y1869871D01*
X3401472Y1860072D01*
Y1849928D01*
X3404098Y1840129D01*
X3409170Y1831343D01*
X3416343Y1824170D01*
X3425129Y1819098D01*
X3434928Y1816473D01*
X3445072D01*
X3454871Y1819098D01*
X3463657Y1824170D01*
X3470830Y1831343D01*
X3475902Y1840129D01*
X3478528Y1849928D01*
Y1860072D01*
X3475902Y1869871D01*
X3470830Y1878657D01*
X3463657Y1885830D01*
X3454871Y1890902D01*
X3445072Y1893527D01*
D02*
G37*
G36*
X3579528Y1850000D02*
X3545000D01*
Y1815473D01*
X3545204D01*
X3555257Y1818166D01*
X3564271Y1823370D01*
X3571630Y1830729D01*
X3576834Y1839743D01*
X3579528Y1849796D01*
Y1850000D01*
D02*
G37*
G36*
X3535000D02*
X3500472D01*
Y1849796D01*
X3503166Y1839743D01*
X3508370Y1830729D01*
X3515729Y1823370D01*
X3524743Y1818166D01*
X3534796Y1815473D01*
X3535000D01*
Y1850000D01*
D02*
G37*
G36*
X2744813Y1881559D02*
X2735187D01*
X2725889Y1879068D01*
X2717552Y1874255D01*
X2710745Y1867448D01*
X2705932Y1859111D01*
X2703441Y1849813D01*
Y1840187D01*
X2705932Y1830889D01*
X2710745Y1822552D01*
X2717552Y1815745D01*
X2725889Y1810932D01*
X2735187Y1808441D01*
X2744813D01*
X2754111Y1810932D01*
X2762448Y1815745D01*
X2769255Y1822552D01*
X2774068Y1830889D01*
X2776559Y1840187D01*
Y1849813D01*
X2774068Y1859111D01*
X2769255Y1867448D01*
X2762448Y1874255D01*
X2754111Y1879068D01*
X2744813Y1881559D01*
D02*
G37*
G36*
X2399317Y1855997D02*
X2389691D01*
X2380393Y1853505D01*
X2372056Y1848692D01*
X2365249Y1841885D01*
X2360436Y1833549D01*
X2357945Y1824251D01*
Y1814624D01*
X2360436Y1805326D01*
X2365249Y1796990D01*
X2372056Y1790183D01*
X2380393Y1785370D01*
X2389691Y1782879D01*
X2399317D01*
X2408615Y1785370D01*
X2416952Y1790183D01*
X2423758Y1796990D01*
X2428572Y1805326D01*
X2431063Y1814624D01*
Y1824251D01*
X2428572Y1833549D01*
X2423758Y1841885D01*
X2416952Y1848692D01*
X2408615Y1853505D01*
X2399317Y1855997D01*
D02*
G37*
G36*
X2593799Y1787060D02*
X2585209D01*
X2576912Y1784836D01*
X2569474Y1780542D01*
X2563400Y1774468D01*
X2559105Y1767029D01*
X2556882Y1758732D01*
Y1750143D01*
X2559105Y1741846D01*
X2563400Y1734407D01*
X2569474Y1728333D01*
X2576912Y1724039D01*
X2585209Y1721816D01*
X2593799D01*
X2602096Y1724039D01*
X2609534Y1728333D01*
X2615608Y1734407D01*
X2619903Y1741846D01*
X2622126Y1750143D01*
Y1758732D01*
X2619903Y1767029D01*
X2615608Y1774468D01*
X2609534Y1780542D01*
X2602096Y1784836D01*
X2593799Y1787060D01*
D02*
G37*
G36*
X3055000Y1713468D02*
Y1685000D01*
X3083468D01*
X3081331Y1692978D01*
X3076904Y1700644D01*
X3070644Y1706904D01*
X3062978Y1711331D01*
X3055000Y1713468D01*
D02*
G37*
G36*
X3045000D02*
X3037022Y1711331D01*
X3029356Y1706904D01*
X3023096Y1700644D01*
X3018669Y1692978D01*
X3016532Y1685000D01*
X3045000D01*
Y1713468D01*
D02*
G37*
G36*
X3083468Y1675000D02*
X3055000D01*
Y1646532D01*
X3062978Y1648669D01*
X3070644Y1653096D01*
X3076904Y1659356D01*
X3081331Y1667022D01*
X3083468Y1675000D01*
D02*
G37*
G36*
X3045000D02*
X3016532D01*
X3018669Y1667022D01*
X3023096Y1659356D01*
X3029356Y1653096D01*
X3037022Y1648669D01*
X3045000Y1646532D01*
Y1675000D01*
D02*
G37*
G36*
X3270000Y1647544D02*
Y1615000D01*
X3302544D01*
X3299999Y1624497D01*
X3295055Y1633062D01*
X3288062Y1640055D01*
X3279497Y1644999D01*
X3270000Y1647544D01*
D02*
G37*
G36*
X3260000D02*
X3250503Y1644999D01*
X3241938Y1640055D01*
X3234945Y1633062D01*
X3230001Y1624497D01*
X3227456Y1615000D01*
X3260000D01*
Y1647544D01*
D02*
G37*
G36*
X3302544Y1605000D02*
X3270000D01*
Y1572456D01*
X3279497Y1575001D01*
X3288062Y1579945D01*
X3295055Y1586938D01*
X3299999Y1595503D01*
X3302544Y1605000D01*
D02*
G37*
G36*
X3260000D02*
X3227456D01*
X3230001Y1595503D01*
X3234945Y1586938D01*
X3241938Y1579945D01*
X3250503Y1575001D01*
X3260000Y1572456D01*
Y1605000D01*
D02*
G37*
G36*
X1629813Y1636559D02*
X1620187D01*
X1610889Y1634068D01*
X1602552Y1629255D01*
X1595745Y1622448D01*
X1590932Y1614111D01*
X1588441Y1604813D01*
Y1595187D01*
X1590932Y1585889D01*
X1595745Y1577552D01*
X1602552Y1570745D01*
X1610889Y1565932D01*
X1620187Y1563441D01*
X1629813D01*
X1639111Y1565932D01*
X1647448Y1570745D01*
X1654255Y1577552D01*
X1659068Y1585889D01*
X1661559Y1595187D01*
Y1604813D01*
X1659068Y1614111D01*
X1654255Y1622448D01*
X1647448Y1629255D01*
X1639111Y1634068D01*
X1629813Y1636559D01*
D02*
G37*
G36*
X2594504Y1487906D02*
Y1459438D01*
X2622972D01*
X2620835Y1467415D01*
X2616408Y1475082D01*
X2610148Y1481342D01*
X2602482Y1485768D01*
X2594504Y1487906D01*
D02*
G37*
G36*
X2584504D02*
X2576526Y1485768D01*
X2568860Y1481342D01*
X2562600Y1475082D01*
X2558173Y1467415D01*
X2556036Y1459438D01*
X2584504D01*
Y1487906D01*
D02*
G37*
G36*
X2622972Y1449438D02*
X2594504D01*
Y1420969D01*
X2602482Y1423107D01*
X2610148Y1427533D01*
X2616408Y1433793D01*
X2620835Y1441460D01*
X2622972Y1449438D01*
D02*
G37*
G36*
X2584504D02*
X2556036D01*
X2558173Y1441460D01*
X2562600Y1433793D01*
X2568860Y1427533D01*
X2576526Y1423107D01*
X2584504Y1420969D01*
Y1449438D01*
D02*
G37*
G36*
X2399317Y1555997D02*
X2389691D01*
X2380393Y1553505D01*
X2372056Y1548692D01*
X2365249Y1541885D01*
X2360436Y1533549D01*
X2357945Y1524251D01*
Y1514624D01*
X2360436Y1505326D01*
X2365249Y1496990D01*
X2372056Y1490183D01*
X2380393Y1485370D01*
X2383214Y1484614D01*
Y1474261D01*
X2380393Y1473505D01*
X2372056Y1468692D01*
X2365249Y1461885D01*
X2360436Y1453549D01*
X2357945Y1444251D01*
Y1434624D01*
X2360436Y1425326D01*
X2365249Y1416990D01*
X2372056Y1410183D01*
X2380393Y1405370D01*
X2389691Y1402879D01*
X2399317D01*
X2408615Y1405370D01*
X2416952Y1410183D01*
X2423758Y1416990D01*
X2428572Y1425326D01*
X2431063Y1434624D01*
Y1444251D01*
X2428572Y1453549D01*
X2423758Y1461885D01*
X2416952Y1468692D01*
X2408615Y1473505D01*
X2405794Y1474261D01*
Y1484614D01*
X2408615Y1485370D01*
X2416952Y1490183D01*
X2423758Y1496990D01*
X2428572Y1505326D01*
X2431063Y1514624D01*
Y1524251D01*
X2428572Y1533549D01*
X2423758Y1541885D01*
X2416952Y1548692D01*
X2408615Y1553505D01*
X2399317Y1555997D01*
D02*
G37*
G36*
X1630000Y1337544D02*
Y1305000D01*
X1662544D01*
X1659999Y1314497D01*
X1655055Y1323062D01*
X1648062Y1330055D01*
X1639497Y1334999D01*
X1630000Y1337544D01*
D02*
G37*
G36*
X1620000D02*
X1610503Y1334999D01*
X1601938Y1330055D01*
X1594945Y1323062D01*
X1590001Y1314497D01*
X1587456Y1305000D01*
X1620000D01*
Y1337544D01*
D02*
G37*
G36*
X1662544Y1295000D02*
X1630000D01*
Y1262456D01*
X1639497Y1265001D01*
X1648062Y1269945D01*
X1655055Y1276938D01*
X1659999Y1285503D01*
X1662544Y1295000D01*
D02*
G37*
G36*
X1620000D02*
X1587456D01*
X1590001Y1285503D01*
X1594945Y1276938D01*
X1601938Y1269945D01*
X1610503Y1265001D01*
X1620000Y1262456D01*
Y1295000D01*
D02*
G37*
G36*
X1789476Y1804000D02*
X1780524D01*
X1771877Y1801683D01*
X1764123Y1797207D01*
X1757793Y1790877D01*
X1753317Y1783123D01*
X1751000Y1774476D01*
Y1765524D01*
X1753317Y1756877D01*
X1757793Y1749123D01*
X1764123Y1742793D01*
X1771877Y1738317D01*
X1780524Y1736000D01*
X1783673D01*
X1880020Y1639653D01*
Y1539669D01*
X1870625Y1538181D01*
X1848650Y1531041D01*
X1828062Y1520551D01*
X1809369Y1506969D01*
X1793031Y1490631D01*
X1779449Y1471938D01*
X1768959Y1451350D01*
X1761819Y1429375D01*
X1758205Y1406553D01*
Y1383447D01*
X1761819Y1360625D01*
X1768959Y1338650D01*
X1779449Y1318062D01*
X1793031Y1299369D01*
X1809369Y1283031D01*
X1828062Y1269449D01*
X1848650Y1258959D01*
X1870625Y1251819D01*
X1893447Y1248205D01*
X1916553D01*
X1939375Y1251819D01*
X1961350Y1258959D01*
X1981938Y1269449D01*
X2000631Y1283031D01*
X2016969Y1299369D01*
X2030551Y1318062D01*
X2041041Y1338650D01*
X2048181Y1360625D01*
X2051795Y1383447D01*
Y1406553D01*
X2048181Y1429375D01*
X2041041Y1451350D01*
X2030551Y1471938D01*
X2016969Y1490631D01*
X2000631Y1506969D01*
X1981938Y1520551D01*
X1961350Y1531041D01*
X1939375Y1538181D01*
X1929980Y1539669D01*
Y1650000D01*
X1928079Y1659560D01*
X1922664Y1667664D01*
X1819000Y1771327D01*
Y1774476D01*
X1816683Y1783123D01*
X1812207Y1790877D01*
X1805877Y1797207D01*
X1798123Y1801683D01*
X1789476Y1804000D01*
D02*
G37*
G36*
X1351553Y1536795D02*
X1328447D01*
X1305625Y1533181D01*
X1283650Y1526041D01*
X1263062Y1515551D01*
X1244369Y1501969D01*
X1228031Y1485631D01*
X1214449Y1466938D01*
X1203959Y1446350D01*
X1196819Y1424375D01*
X1193205Y1401553D01*
Y1378447D01*
X1196819Y1355625D01*
X1203959Y1333650D01*
X1214449Y1313062D01*
X1228031Y1294369D01*
X1244369Y1278031D01*
X1263062Y1264449D01*
X1283650Y1253959D01*
X1305625Y1246819D01*
X1328447Y1243205D01*
X1351553D01*
X1374375Y1246819D01*
X1396350Y1253959D01*
X1416938Y1264449D01*
X1435631Y1278031D01*
X1451969Y1294369D01*
X1465551Y1313062D01*
X1476041Y1333650D01*
X1483181Y1355625D01*
X1486795Y1378447D01*
Y1401553D01*
X1483181Y1424375D01*
X1476041Y1446350D01*
X1465551Y1466938D01*
X1451969Y1485631D01*
X1435631Y1501969D01*
X1416938Y1515551D01*
X1396350Y1526041D01*
X1374375Y1533181D01*
X1351553Y1536795D01*
D02*
G37*
G36*
X2399504Y1176982D02*
Y1144438D01*
X2432048D01*
X2429503Y1153935D01*
X2424559Y1162499D01*
X2417566Y1169492D01*
X2409001Y1174437D01*
X2399504Y1176982D01*
D02*
G37*
G36*
X2389504D02*
X2380007Y1174437D01*
X2371442Y1169492D01*
X2364449Y1162499D01*
X2359505Y1153935D01*
X2356960Y1144438D01*
X2389504D01*
Y1176982D01*
D02*
G37*
G36*
X2432048Y1134438D02*
X2399504D01*
Y1101893D01*
X2409001Y1104438D01*
X2417566Y1109383D01*
X2424559Y1116376D01*
X2429503Y1124940D01*
X2432048Y1134438D01*
D02*
G37*
G36*
X2389504D02*
X2356960D01*
X2359505Y1124940D01*
X2364449Y1116376D01*
X2371442Y1109383D01*
X2380007Y1104438D01*
X2389504Y1101893D01*
Y1134438D01*
D02*
G37*
G36*
X2244813Y1068614D02*
X2235187D01*
X2225889Y1066123D01*
X2217552Y1061310D01*
X2210745Y1054503D01*
X2205932Y1046166D01*
X2203441Y1036868D01*
Y1027242D01*
X2205932Y1017944D01*
X2210745Y1009607D01*
X2217552Y1002801D01*
X2225889Y997987D01*
X2235187Y995496D01*
X2244813D01*
X2254111Y997987D01*
X2262448Y1002801D01*
X2269255Y1009607D01*
X2274068Y1017944D01*
X2276559Y1027242D01*
Y1036868D01*
X2274068Y1046166D01*
X2269255Y1054503D01*
X2262448Y1061310D01*
X2254111Y1066123D01*
X2244813Y1068614D01*
D02*
G37*
G36*
X1944813D02*
X1935187D01*
X1925889Y1066123D01*
X1917552Y1061310D01*
X1910745Y1054503D01*
X1905932Y1046166D01*
X1903441Y1036868D01*
Y1027242D01*
X1905932Y1017944D01*
X1910745Y1009607D01*
X1917552Y1002801D01*
X1925889Y997987D01*
X1935187Y995496D01*
X1944813D01*
X1954111Y997987D01*
X1962448Y1002801D01*
X1969255Y1009607D01*
X1974068Y1017944D01*
X1976559Y1027242D01*
Y1036868D01*
X1974068Y1046166D01*
X1969255Y1054503D01*
X1962448Y1061310D01*
X1954111Y1066123D01*
X1944813Y1068614D01*
D02*
G37*
G36*
X1829813D02*
X1820187D01*
X1810889Y1066123D01*
X1802552Y1061310D01*
X1795745Y1054503D01*
X1790932Y1046166D01*
X1788441Y1036868D01*
Y1027242D01*
X1790932Y1017944D01*
X1795745Y1009607D01*
X1802552Y1002801D01*
X1810889Y997987D01*
X1820187Y995496D01*
X1829813D01*
X1839111Y997987D01*
X1847448Y1002801D01*
X1854255Y1009607D01*
X1859068Y1017944D01*
X1861559Y1027242D01*
Y1036868D01*
X1859068Y1046166D01*
X1854255Y1054503D01*
X1847448Y1061310D01*
X1839111Y1066123D01*
X1829813Y1068614D01*
D02*
G37*
G36*
X1529813D02*
X1520187D01*
X1510889Y1066123D01*
X1502552Y1061310D01*
X1495745Y1054503D01*
X1490932Y1046166D01*
X1488441Y1036868D01*
Y1027242D01*
X1490932Y1017944D01*
X1495745Y1009607D01*
X1502552Y1002801D01*
X1510889Y997987D01*
X1520187Y995496D01*
X1529813D01*
X1539111Y997987D01*
X1547448Y1002801D01*
X1554255Y1009607D01*
X1559068Y1017944D01*
X1561559Y1027242D01*
Y1036868D01*
X1559068Y1046166D01*
X1554255Y1054503D01*
X1547448Y1061310D01*
X1539111Y1066123D01*
X1529813Y1068614D01*
D02*
G37*
G36*
X1888632Y993118D02*
X1879006D01*
X1869708Y990627D01*
X1861371Y985813D01*
X1854565Y979007D01*
X1849752Y970670D01*
X1847260Y961372D01*
Y951746D01*
X1849752Y942448D01*
X1854565Y934111D01*
X1861371Y927304D01*
X1869708Y922491D01*
X1879006Y920000D01*
X1888632D01*
X1897930Y922491D01*
X1906267Y927304D01*
X1913074Y934111D01*
X1917887Y942448D01*
X1920378Y951746D01*
Y961372D01*
X1917887Y970670D01*
X1913074Y979007D01*
X1906267Y985813D01*
X1897930Y990627D01*
X1888632Y993118D01*
D02*
G37*
G36*
X1888819Y694103D02*
Y661559D01*
X1921363D01*
X1918819Y671056D01*
X1913874Y679621D01*
X1906881Y686614D01*
X1898316Y691558D01*
X1888819Y694103D01*
D02*
G37*
G36*
X1878819D02*
X1869322Y691558D01*
X1860757Y686614D01*
X1853764Y679621D01*
X1848820Y671056D01*
X1846275Y661559D01*
X1878819D01*
Y694103D01*
D02*
G37*
G36*
X1921363Y651559D02*
X1888819D01*
Y619015D01*
X1898316Y621560D01*
X1906881Y626504D01*
X1913874Y633497D01*
X1918819Y642062D01*
X1921363Y651559D01*
D02*
G37*
G36*
X1878819D02*
X1846275D01*
X1848820Y642062D01*
X1853764Y633497D01*
X1860757Y626504D01*
X1869322Y621560D01*
X1878819Y619015D01*
Y651559D01*
D02*
G37*
G36*
X2264295Y482622D02*
X2255705D01*
X2247408Y480399D01*
X2239970Y476104D01*
X2233896Y470030D01*
X2229601Y462592D01*
X2227378Y454295D01*
Y445705D01*
X2229601Y437408D01*
X2233896Y429970D01*
X2239970Y423896D01*
X2247408Y419601D01*
X2255705Y417378D01*
X2264295D01*
X2272592Y419601D01*
X2280030Y423896D01*
X2286104Y429970D01*
X2290399Y437408D01*
X2292622Y445705D01*
Y454295D01*
X2290399Y462592D01*
X2286104Y470030D01*
X2280030Y476104D01*
X2272592Y480399D01*
X2264295Y482622D01*
D02*
G37*
G36*
X2114813Y486559D02*
X2105187D01*
X2095889Y484068D01*
X2087552Y479255D01*
X2080745Y472448D01*
X2075932Y464111D01*
X2073441Y454813D01*
Y445187D01*
X2075932Y435889D01*
X2080745Y427552D01*
X2087552Y420745D01*
X2095889Y415932D01*
X2105187Y413441D01*
X2114813D01*
X2124111Y415932D01*
X2132448Y420745D01*
X2139255Y427552D01*
X2144068Y435889D01*
X2146559Y445187D01*
Y454813D01*
X2144068Y464111D01*
X2139255Y472448D01*
X2132448Y479255D01*
X2124111Y484068D01*
X2114813Y486559D01*
D02*
G37*
G36*
X1814813D02*
X1805187D01*
X1795889Y484068D01*
X1787552Y479255D01*
X1780745Y472448D01*
X1775932Y464111D01*
X1773441Y454813D01*
Y445187D01*
X1775932Y435889D01*
X1780745Y427552D01*
X1787552Y420745D01*
X1795889Y415932D01*
X1805187Y413441D01*
X1814813D01*
X1824111Y415932D01*
X1832448Y420745D01*
X1839255Y427552D01*
X1844068Y435889D01*
X1846559Y445187D01*
Y454813D01*
X1844068Y464111D01*
X1839255Y472448D01*
X1832448Y479255D01*
X1824111Y484068D01*
X1814813Y486559D01*
D02*
G37*
G36*
X1649813D02*
X1640187D01*
X1630889Y484068D01*
X1622552Y479255D01*
X1615745Y472448D01*
X1610932Y464111D01*
X1608441Y454813D01*
Y445187D01*
X1610932Y435889D01*
X1615745Y427552D01*
X1622552Y420745D01*
X1630889Y415932D01*
X1640187Y413441D01*
X1649813D01*
X1659111Y415932D01*
X1667448Y420745D01*
X1674255Y427552D01*
X1679068Y435889D01*
X1681559Y445187D01*
Y454813D01*
X1679068Y464111D01*
X1674255Y472448D01*
X1667448Y479255D01*
X1659111Y484068D01*
X1649813Y486559D01*
D02*
G37*
G36*
X1349813D02*
X1340187D01*
X1330889Y484068D01*
X1322552Y479255D01*
X1315745Y472448D01*
X1310932Y464111D01*
X1308441Y454813D01*
Y445187D01*
X1310932Y435889D01*
X1315745Y427552D01*
X1322552Y420745D01*
X1330889Y415932D01*
X1340187Y413441D01*
X1349813D01*
X1359111Y415932D01*
X1367448Y420745D01*
X1374255Y427552D01*
X1379068Y435889D01*
X1381559Y445187D01*
Y454813D01*
X1379068Y464111D01*
X1374255Y472448D01*
X1367448Y479255D01*
X1359111Y484068D01*
X1349813Y486559D01*
D02*
G37*
G36*
X1734813Y406559D02*
X1725187D01*
X1715889Y404068D01*
X1707552Y399255D01*
X1700745Y392448D01*
X1695932Y384111D01*
X1693441Y374813D01*
Y365187D01*
X1695932Y355889D01*
X1700745Y347552D01*
X1707552Y340745D01*
X1715889Y335932D01*
X1725187Y333441D01*
X1734813D01*
X1744111Y335932D01*
X1752448Y340745D01*
X1759255Y347552D01*
X1764068Y355889D01*
X1766559Y365187D01*
Y374813D01*
X1764068Y384111D01*
X1759255Y392448D01*
X1752448Y399255D01*
X1744111Y404068D01*
X1734813Y406559D01*
D02*
G37*
G36*
X3554939Y345086D02*
X3548307D01*
Y202291D01*
X3691102D01*
Y208923D01*
X3687463Y231900D01*
X3680274Y254025D01*
X3669713Y274753D01*
X3656039Y293573D01*
X3639589Y310023D01*
X3620769Y323697D01*
X3600041Y334258D01*
X3577916Y341447D01*
X3554939Y345086D01*
D02*
G37*
G36*
X3538307D02*
X3531675D01*
X3508698Y341447D01*
X3486573Y334258D01*
X3465845Y323697D01*
X3447025Y310023D01*
X3430575Y293573D01*
X3416901Y274753D01*
X3406340Y254025D01*
X3399151Y231900D01*
X3395512Y208923D01*
Y202291D01*
X3538307D01*
Y345086D01*
D02*
G37*
G36*
X208482Y344646D02*
X201850D01*
Y201850D01*
X344646D01*
Y208482D01*
X341007Y231459D01*
X333818Y253584D01*
X323256Y274312D01*
X309582Y293133D01*
X293133Y309582D01*
X274312Y323256D01*
X253584Y333818D01*
X231459Y341007D01*
X208482Y344646D01*
D02*
G37*
G36*
X191850D02*
X185219D01*
X162242Y341007D01*
X140117Y333818D01*
X119389Y323256D01*
X100568Y309582D01*
X84118Y293133D01*
X70445Y274312D01*
X59883Y253584D01*
X52694Y231459D01*
X49055Y208482D01*
Y201850D01*
X191850D01*
Y344646D01*
D02*
G37*
G36*
X2265000Y183468D02*
Y155000D01*
X2293468D01*
X2291331Y162978D01*
X2286904Y170644D01*
X2280644Y176904D01*
X2272978Y181331D01*
X2265000Y183468D01*
D02*
G37*
G36*
X2255000D02*
X2247022Y181331D01*
X2239356Y176904D01*
X2233096Y170644D01*
X2228669Y162978D01*
X2226532Y155000D01*
X2255000D01*
Y183468D01*
D02*
G37*
G36*
X2293468Y145000D02*
X2265000D01*
Y116532D01*
X2272978Y118669D01*
X2280644Y123096D01*
X2286904Y129356D01*
X2291331Y137022D01*
X2293468Y145000D01*
D02*
G37*
G36*
X2255000D02*
X2226532D01*
X2228669Y137022D01*
X2233096Y129356D01*
X2239356Y123096D01*
X2247022Y118669D01*
X2255000Y116532D01*
Y145000D01*
D02*
G37*
G36*
X1735000Y107544D02*
Y75000D01*
X1767544D01*
X1764999Y84497D01*
X1760055Y93062D01*
X1753062Y100055D01*
X1744497Y104999D01*
X1735000Y107544D01*
D02*
G37*
G36*
X1725000D02*
X1715503Y104999D01*
X1706938Y100055D01*
X1699945Y93062D01*
X1695001Y84497D01*
X1692456Y75000D01*
X1725000D01*
Y107544D01*
D02*
G37*
G36*
X3691102Y192291D02*
X3548307D01*
Y49496D01*
X3554939D01*
X3577916Y53135D01*
X3600041Y60324D01*
X3620769Y70885D01*
X3639589Y84559D01*
X3656039Y101009D01*
X3669713Y119829D01*
X3680274Y140557D01*
X3687463Y162682D01*
X3691102Y185659D01*
Y192291D01*
D02*
G37*
G36*
X3538307D02*
X3395512D01*
Y185659D01*
X3399151Y162682D01*
X3406340Y140557D01*
X3416901Y119829D01*
X3430575Y101009D01*
X3447025Y84559D01*
X3465845Y70885D01*
X3486573Y60324D01*
X3508698Y53135D01*
X3531675Y49496D01*
X3538307D01*
Y192291D01*
D02*
G37*
G36*
X344646Y191850D02*
X201850D01*
Y49055D01*
X208482D01*
X231459Y52694D01*
X253584Y59883D01*
X274312Y70445D01*
X293133Y84118D01*
X309582Y100568D01*
X323256Y119389D01*
X333818Y140117D01*
X341007Y162242D01*
X344646Y185219D01*
Y191850D01*
D02*
G37*
G36*
X191850D02*
X49055D01*
Y185219D01*
X52694Y162242D01*
X59883Y140117D01*
X70445Y119389D01*
X84118Y100568D01*
X100568Y84118D01*
X119389Y70445D01*
X140117Y59883D01*
X162242Y52694D01*
X185219Y49055D01*
X191850D01*
Y191850D01*
D02*
G37*
G36*
X1767544Y65000D02*
X1735000D01*
Y32456D01*
X1744497Y35001D01*
X1753062Y39945D01*
X1760055Y46938D01*
X1764999Y55503D01*
X1767544Y65000D01*
D02*
G37*
G36*
X1725000D02*
X1692456D01*
X1695001Y55503D01*
X1699945Y46938D01*
X1706938Y39945D01*
X1715503Y35001D01*
X1725000Y32456D01*
Y65000D01*
D02*
G37*
%LPD*%
G36*
X2816588Y2763225D02*
X2815796Y2759706D01*
X2815000Y2758414D01*
Y2720000D01*
X2810000D01*
Y2715000D01*
X2776532D01*
X2778669Y2707022D01*
X2783096Y2699356D01*
X2789356Y2693096D01*
X2797022Y2688669D01*
X2801884Y2687367D01*
X2805265Y2678353D01*
X2805195Y2676535D01*
X2722347Y2593688D01*
X2719253Y2589057D01*
X2718166Y2583594D01*
X2718167Y2583593D01*
Y2572079D01*
X2708773Y2568648D01*
X2662670Y2623342D01*
X2662191Y2623725D01*
X2661849Y2624235D01*
X2655991Y2630093D01*
X2651360Y2633188D01*
X2645898Y2634274D01*
X2645897Y2634274D01*
X2295711D01*
X2295711Y2634274D01*
X2290248Y2633188D01*
X2285617Y2630093D01*
X2285617Y2630093D01*
X2266902Y2611379D01*
X2257937Y2616555D01*
X2259000Y2620524D01*
Y2629476D01*
X2258456Y2631506D01*
X2264280Y2638637D01*
X2265000Y2639073D01*
Y2675000D01*
X2270000D01*
Y2680000D01*
X2304895D01*
X2302615Y2688510D01*
X2298007Y2696490D01*
X2292382Y2702115D01*
X2291679Y2706341D01*
X2292218Y2714134D01*
X2297207Y2719124D01*
X2301683Y2726876D01*
X2304000Y2735524D01*
Y2742989D01*
X2307158Y2746147D01*
X2411942D01*
X2413201Y2743967D01*
X2419531Y2737637D01*
X2427284Y2733160D01*
X2435931Y2730843D01*
X2444884D01*
X2453531Y2733160D01*
X2461284Y2737637D01*
X2467614Y2743967D01*
X2472090Y2751720D01*
X2474407Y2760367D01*
Y2769320D01*
X2472090Y2777967D01*
X2467614Y2785720D01*
X2467608Y2785726D01*
X2471751Y2795726D01*
X2784087D01*
X2816588Y2763225D01*
D02*
G37*
%LPC*%
G36*
X2565000Y2753468D02*
Y2725000D01*
X2593468D01*
X2591331Y2732978D01*
X2586904Y2740644D01*
X2580644Y2746904D01*
X2572978Y2751331D01*
X2565000Y2753468D01*
D02*
G37*
G36*
X2805000D02*
X2797022Y2751331D01*
X2789356Y2746904D01*
X2783096Y2740644D01*
X2778669Y2732978D01*
X2776532Y2725000D01*
X2805000D01*
Y2753468D01*
D02*
G37*
G36*
X2555000D02*
X2547022Y2751331D01*
X2539356Y2746904D01*
X2533096Y2740644D01*
X2528669Y2732978D01*
X2526532Y2725000D01*
X2555000D01*
Y2753468D01*
D02*
G37*
G36*
X2593468Y2715000D02*
X2565000D01*
Y2686532D01*
X2572978Y2688669D01*
X2580644Y2693096D01*
X2586904Y2699356D01*
X2591331Y2707022D01*
X2593468Y2715000D01*
D02*
G37*
G36*
X2555000D02*
X2526532D01*
X2528669Y2707022D01*
X2533096Y2699356D01*
X2539356Y2693096D01*
X2547022Y2688669D01*
X2555000Y2686532D01*
Y2715000D01*
D02*
G37*
G36*
X2304895Y2670000D02*
X2275000D01*
Y2640105D01*
X2283510Y2642385D01*
X2291490Y2646993D01*
X2298007Y2653510D01*
X2302615Y2661490D01*
X2304895Y2670000D01*
D02*
G37*
%LPD*%
D11*
X2711387Y2542959D02*
G03*
X2710141Y2544878I-8956J-4449D01*
G01*
X2753722Y2190000D02*
G03*
X2753926Y2190000I72J86852D01*
G01*
X3047559Y2522441D02*
X3240757Y2329243D01*
X1487962Y3197962D02*
X2003720D01*
X1180000Y2890000D02*
X1487962Y3197962D01*
X2007703Y3193980D02*
X2038796D01*
X2003720Y3197962D02*
X2007703Y3193980D01*
X2038796D02*
X2046449Y3201634D01*
X2749087Y2502441D02*
X2937559D01*
X3105000Y2335000D01*
X2449260Y2088260D02*
X2455000Y2094000D01*
X2449260Y2034193D02*
Y2088260D01*
X1180000Y2220000D02*
Y2890000D01*
X1175000Y2215000D02*
X1180000Y2220000D01*
X2068326Y2356326D02*
Y2464757D01*
X1955000Y2578083D02*
Y3065000D01*
X2145855Y2325689D02*
Y3084921D01*
X2140000Y2320000D02*
X2142818Y2322652D01*
X2145855Y2325689D01*
X1955000Y2578083D02*
X2068326Y2464757D01*
X1920581Y2557703D02*
X1925784Y2552500D01*
X1912000Y2625000D02*
X1915000Y2628000D01*
X1655000Y2625000D02*
X1912000D01*
X1955000Y3065000D02*
X2005000Y3115000D01*
X1925784Y2404216D02*
Y2552500D01*
X1485000Y2795000D02*
X1655000Y2625000D01*
X1925784Y2404216D02*
X2057815Y2272185D01*
X2290000Y2555000D02*
X2668244D01*
X2225000Y2490000D02*
X2290000Y2555000D01*
X2225000D02*
X2230711D01*
X2295711Y2620000D01*
X2225000Y2625000D02*
Y2883417D01*
X2317118Y2675000D02*
X2362118Y2720000D01*
X2270000Y2675000D02*
X2317118D01*
X2262293Y2452317D02*
X2329976Y2520000D01*
X2295711Y2620000D02*
X2645898D01*
X2296808Y2955225D02*
X3200225D01*
X2225745Y2425142D02*
X2262293Y2452317D01*
X2225000Y2883417D02*
X2296808Y2955225D01*
X2005000Y3115000D02*
X2012654Y3122654D01*
X2192593Y2272185D02*
X2400407Y2480000D01*
X2137765Y2272185D02*
X2192593D01*
X2133622Y2272185D02*
X2137765Y2272185D01*
X2057815Y2272185D02*
X2133622D01*
X2028016D02*
X2057815D01*
X3294284Y2181000D02*
X3412812Y2299528D01*
X3283568Y2142000D02*
X3396568Y2255000D01*
X2051916Y2220000D02*
X3305000D01*
X3229458Y2181000D02*
X3294284D01*
X2868826Y2190000D02*
X2916826Y2142000D01*
X3283568D01*
X3305000Y2220000D02*
X3440000Y2355000D01*
X1909846Y2362071D02*
X2051916Y2220000D01*
X1915201Y2385000D02*
X2028016Y2272185D01*
X1824620Y2345000D02*
X1898632D01*
X2053632Y2190000D01*
X1906917Y2365000D02*
X1909846Y2362071D01*
X1832904Y2365000D02*
X1906917D01*
X1440000Y2755000D02*
Y2970000D01*
X1609379Y2585621D02*
X1642677D01*
X1440000Y2755000D02*
X1609379Y2585621D01*
X1420000Y2745000D02*
X1606378Y2558622D01*
X1599507Y2538622D02*
X1630997D01*
X1400000Y2738130D02*
Y3079799D01*
X1420000Y2745000D02*
Y3060000D01*
X1606378Y2558622D02*
X1639281D01*
X1400000Y2738130D02*
X1599507Y2538622D01*
X1440000Y2970000D02*
X1545000Y3075000D01*
Y3120000D01*
X1525000Y3140000D02*
X1545000Y3120000D01*
X1460201Y3140000D02*
X1525000D01*
X1400000Y3079799D02*
X1460201Y3140000D01*
X2012654Y3122654D02*
X2029590D01*
X2030858Y3123921D01*
X2534392D01*
X2560000Y3098313D01*
Y2720000D02*
X2810000D01*
X3265000Y1610000D02*
X3480000D01*
X1642677Y2585621D02*
X1843298Y2385000D01*
X1639281Y2558622D02*
X1832904Y2365000D01*
X2668244Y2555000D02*
X2740803Y2482441D01*
X3540000Y2255000D02*
X3640000D01*
X2362118Y2720000D02*
X2560000D01*
X2775000Y2565000D02*
X2875000Y2665000D01*
X2732441Y2547372D02*
Y2583594D01*
X1090000Y2361260D02*
Y2834701D01*
X3396568Y2255000D02*
X3440000D01*
X3295000Y3050000D02*
X3355000D01*
X3640000Y2255000D02*
X3685000Y2300000D01*
X3026716Y2275000D02*
X3280000D01*
X2841716Y2460000D02*
X3026716Y2275000D01*
X1453889Y3093890D02*
X1481877D01*
X3465472Y2399528D02*
X3484528Y2380472D01*
X1420000Y3060000D02*
X1453889Y3093890D01*
X3035000Y2295000D02*
X3139142D01*
X3404528Y2399528D02*
X3465472D01*
X3412812Y2299528D02*
X3447499D01*
X2053632Y2190000D02*
X2753722Y2190000D01*
X2560000Y3020000D02*
X2810000D01*
X3530614Y1825228D02*
Y1845614D01*
X3105000Y1610000D02*
X3265000D01*
X2500000Y1955758D02*
Y2150000D01*
X3050000Y1680000D02*
X3057126Y1672874D01*
X2711387Y2542959D02*
X2713440Y2538825D01*
X1481877Y3093890D02*
X1485455Y3097468D01*
X3057126Y1657874D02*
Y1672874D01*
X1710000Y2760000D02*
X1880000Y2930000D01*
X1705000Y2760000D02*
X1710000D01*
X2670000Y2520000D02*
X2730000Y2460000D01*
X1843298Y2385000D02*
X1915201D01*
X2466547Y1922305D02*
X2497071Y1952829D01*
X1880000Y2930000D02*
X1885000D01*
X2270000Y2870000D02*
X3025000D01*
X2713440Y2538088D02*
Y2538825D01*
X3200225Y2955225D02*
X3295000Y3050000D01*
X2875000Y2665000D02*
X3580000D01*
X2757372Y2522441D02*
X3047559D01*
X2732441Y2547372D02*
X2757372Y2522441D01*
X1090000Y2834701D02*
X1280000Y3024701D01*
X2250000Y3015000D02*
X2350000D01*
X3025000Y2870000D02*
X3175000Y2720000D01*
X2270262Y2803368D02*
X2276893Y2810000D01*
X3139142Y2295000D02*
X3159142Y2315000D01*
X2740803Y2482441D02*
X2847559D01*
X2790000Y2810000D02*
X2848622Y2751378D01*
X3530000Y1824614D02*
X3530614Y1825228D01*
X2810000Y3020000D02*
X3175000D01*
X2497071Y1952829D02*
X2500000Y1955758D01*
X1630997Y2538622D02*
X1824620Y2345000D01*
X2732441Y2583594D02*
X2848622Y2699775D01*
X1485455Y3097468D02*
X1490591Y3095839D01*
X3447499Y2299528D02*
X3484528Y2336556D01*
X2847559Y2482441D02*
X3035000Y2295000D01*
X1280000Y3024701D02*
Y3060000D01*
X3530000Y1660000D02*
Y1824614D01*
X2710106Y2544921D02*
X2710141Y2544878D01*
X2329976Y2520000D02*
X2670000D01*
X2713440Y2538088D02*
X2749087Y2502441D01*
X2466547Y1911985D02*
Y1922305D01*
X2270000Y2740000D02*
X2280824D01*
X1705000Y3060000D02*
X1770000Y2995000D01*
X2645898Y2620000D02*
X2651756Y2614142D01*
X2710106Y2544921D01*
X3159142Y2315000D02*
X3165000D01*
X2560000Y3020000D02*
Y3098313D01*
X3484528Y2336556D02*
Y2380472D01*
X2301245Y2760422D02*
X2435986D01*
X3280000Y2275000D02*
X3404528Y2399528D01*
X3580000Y2665000D02*
X3685000Y2560000D01*
X3530614Y1845614D02*
X3540000Y1855000D01*
X2753926Y2190000D02*
X2868826D01*
X3480000Y1610000D02*
X3530000Y1660000D01*
X2848622Y2699775D02*
Y2751378D01*
X2276893Y2810000D02*
X2790000D01*
X2280824Y2740000D02*
X2301245Y2760422D01*
X2259504Y1844438D02*
X2449260Y2034193D01*
X3685000Y2300000D02*
Y2560000D01*
X2730000Y2460000D02*
X2841716D01*
X3057126Y1657874D02*
X3105000Y1610000D01*
X2435986Y2760422D02*
X2440407Y2764843D01*
X1770000Y2995000D02*
X1885000D01*
D28*
X850000Y2205000D02*
D03*
D29*
X750000D02*
D03*
X650000D02*
D03*
D46*
X1785000Y1770000D02*
X1905000Y1650000D01*
Y1395000D02*
Y1650000D01*
X1614999Y2493784D02*
Y2500000D01*
X1856365Y2263635D02*
X1860000Y2260000D01*
X1614999Y2493784D02*
X1845148Y2263635D01*
X1856365D01*
X3555000Y1553159D02*
Y1832408D01*
X2589504Y1454438D02*
X2670066Y1535000D01*
X3536841D01*
X3555000Y1553159D01*
X1625000Y1300000D02*
Y1306526D01*
X1685000Y1366526D01*
X2394504Y1132911D02*
Y1139438D01*
X1388336Y2200000D02*
X1614999D01*
X2469504Y1574438D02*
X2589504Y1454438D01*
X3540000Y1847408D02*
Y1855000D01*
X2469504Y1574438D02*
Y1909028D01*
X1685000Y1366526D02*
Y1733124D01*
X1883819Y520158D02*
X2245856Y158122D01*
X1130000Y2125000D02*
X1313335D01*
X750000Y2205000D02*
Y2216214D01*
X1625000Y915378D02*
Y1300000D01*
X889422Y2361260D02*
X1090000D01*
X1085000Y2170000D02*
X1130000Y2125000D01*
X1614999Y1803125D02*
X1685000Y1733124D01*
X2380000Y270000D02*
Y1118407D01*
X2394504Y1132911D01*
X2255604Y150000D02*
X2260000D01*
X3540000Y1847408D02*
X3555000Y1832408D01*
X2394504Y1139438D02*
X2589504Y1334438D01*
X1625000Y915378D02*
X1883819Y656559D01*
X2589504Y1334438D02*
Y1454438D01*
X2260000Y150000D02*
X2380000Y270000D01*
X1883819Y520158D02*
Y656559D01*
X769073Y2240911D02*
X889422Y2361260D01*
X2247482Y158122D02*
X2255604Y150000D01*
X1313335Y2125000D02*
X1388336Y2200000D01*
X2245856Y158122D02*
X2247482D01*
X1614999Y1803125D02*
Y2200000D01*
X769073Y2235287D02*
Y2240911D01*
X750000Y2216214D02*
X769073Y2235287D01*
X2466547Y1911985D02*
X2469504Y1909028D01*
X1085000Y2170000D02*
Y2356260D01*
D47*
X1330941Y1905000D02*
X1335000D01*
X1320941Y1915000D02*
X1330941Y1905000D01*
X1165000Y1915000D02*
X1320941D01*
D50*
X196850Y3150047D02*
D03*
X3543307D02*
D03*
Y197291D02*
D03*
X196850Y196850D02*
D03*
X1340000Y1390000D02*
D03*
X295000Y2205000D02*
D03*
X296369Y2694094D02*
D03*
X1905000Y1395000D02*
D03*
D51*
X3050000Y1680000D02*
D03*
Y1980000D02*
D03*
X1611891Y2196892D02*
D03*
Y2496892D02*
D03*
X3175000Y2720000D02*
D03*
Y3020000D02*
D03*
X1280000Y2760000D02*
D03*
Y3060000D02*
D03*
X1705000D02*
D03*
Y2760000D02*
D03*
X2560000Y2720000D02*
D03*
Y3020000D02*
D03*
X2589504Y1454438D02*
D03*
Y1754438D02*
D03*
X2810000Y2720000D02*
D03*
Y3020000D02*
D03*
X2260000Y150000D02*
D03*
Y450000D02*
D03*
D52*
X1090000Y2361260D02*
D03*
D53*
Y2968740D02*
D03*
D54*
X2394504Y1139438D02*
D03*
Y1439438D02*
D03*
X2740000Y1845000D02*
D03*
Y2145000D02*
D03*
X3265000Y1610000D02*
D03*
Y1910000D02*
D03*
X2110000Y450000D02*
D03*
X1810000D02*
D03*
X1625000Y1300000D02*
D03*
Y1600000D02*
D03*
X2240000Y1032055D02*
D03*
X1940000D02*
D03*
X2980000Y3190000D02*
D03*
X2680000D02*
D03*
X2775000Y2565000D02*
D03*
Y2265000D02*
D03*
X2870000D02*
D03*
Y2565000D02*
D03*
X3355000Y2750000D02*
D03*
Y3050000D02*
D03*
X1490591Y3095839D02*
D03*
Y2795839D02*
D03*
X1730000Y70000D02*
D03*
Y370000D02*
D03*
X1345000Y450000D02*
D03*
X1645000D02*
D03*
X1525000Y1032055D02*
D03*
X1825000D02*
D03*
X1883819Y656559D02*
D03*
Y956559D02*
D03*
X2394504Y1819438D02*
D03*
Y1519438D02*
D03*
D55*
X3540000Y1855000D02*
D03*
X3440000D02*
D03*
X3540000Y1955000D02*
D03*
X3440000D02*
D03*
X3540000Y2055000D02*
D03*
X3440000D02*
D03*
X3540000Y2155000D02*
D03*
X3440000D02*
D03*
X3540000Y2255000D02*
D03*
X3440000D02*
D03*
X3540000Y2355000D02*
D03*
X3440000D02*
D03*
X3540000Y2455000D02*
D03*
D56*
X3440000D02*
D03*
D57*
X453424Y3048740D02*
D03*
X855000Y2970000D02*
D03*
D58*
X3240757Y2329243D02*
D03*
X2046449Y3201634D02*
D03*
X3105000Y2335000D02*
D03*
X2455000Y2094000D02*
D03*
X1335000Y1905000D02*
D03*
X1165000Y1915000D02*
D03*
X1175000Y2215000D02*
D03*
X2068326Y2356326D02*
D03*
X1920581Y2557703D02*
D03*
X1915000Y2628000D02*
D03*
X2225000Y2490000D02*
D03*
Y2625000D02*
D03*
Y2555000D02*
D03*
X2225745Y2425142D02*
D03*
X2270000Y2675000D02*
D03*
X2140000Y2320000D02*
D03*
X1860000Y2260000D02*
D03*
X3229458Y2181000D02*
D03*
X2145855Y3084921D02*
D03*
X2270000Y2870000D02*
D03*
X2466547Y1911985D02*
D03*
X2270000Y2740000D02*
D03*
X2259504Y1844438D02*
D03*
X2440407Y2764843D02*
D03*
X1785000Y1770000D02*
D03*
X2270262Y2803368D02*
D03*
X2500000Y2150000D02*
D03*
X2350000Y3015000D02*
D03*
X1885000Y2930000D02*
D03*
X2250000Y3015000D02*
D03*
X2005000Y3115000D02*
D03*
X2400407Y2480000D02*
D03*
X3165000Y2315000D02*
D03*
X1885000Y2995000D02*
D03*
M02*
