G04*
G04 #@! TF.GenerationSoftware,Altium Limited,Altium Designer,25.3.3 (18)*
G04*
G04 Layer_Color=16711935*
%FSLAX26Y26*%
%MOIN*%
G70*
G04*
G04 #@! TF.SameCoordinates,14895927-405C-4533-9FDA-7E114B43C09E*
G04*
G04*
G04 #@! TF.FilePolarity,Negative*
G04*
G01*
G75*
%ADD26C,0.283591*%
%ADD27C,0.055244*%
%ADD28R,0.072441X0.072441*%
%ADD29C,0.072441*%
%ADD30C,0.084378*%
%ADD31R,0.084378X0.084378*%
%ADD32C,0.063118*%
%ADD33C,0.067055*%
%ADD34R,0.067055X0.067055*%
%ADD35C,0.106425*%
%ADD36C,0.058000*%
D26*
X196850Y3150047D02*
D03*
X3543307D02*
D03*
Y197291D02*
D03*
X196850Y196850D02*
D03*
X1340000Y1390000D02*
D03*
X295000Y2205000D02*
D03*
X296369Y2694094D02*
D03*
X1905000Y1395000D02*
D03*
D27*
X3050000Y1680000D02*
D03*
Y1980000D02*
D03*
X1611891Y2196892D02*
D03*
Y2496892D02*
D03*
X3175000Y2720000D02*
D03*
Y3020000D02*
D03*
X1280000Y2760000D02*
D03*
Y3060000D02*
D03*
X1705000D02*
D03*
Y2760000D02*
D03*
X2560000Y2720000D02*
D03*
Y3020000D02*
D03*
X2589504Y1454438D02*
D03*
Y1754438D02*
D03*
X2810000Y2720000D02*
D03*
Y3020000D02*
D03*
X2260000Y150000D02*
D03*
Y450000D02*
D03*
D28*
X850000Y2205000D02*
D03*
D29*
X750000D02*
D03*
X650000D02*
D03*
D30*
X1090000Y2361260D02*
D03*
D31*
Y2968740D02*
D03*
D32*
X2394504Y1139438D02*
D03*
Y1439438D02*
D03*
X2740000Y1845000D02*
D03*
Y2145000D02*
D03*
X3265000Y1610000D02*
D03*
Y1910000D02*
D03*
X2110000Y450000D02*
D03*
X1810000D02*
D03*
X1625000Y1300000D02*
D03*
Y1600000D02*
D03*
X2240000Y1032055D02*
D03*
X1940000D02*
D03*
X2980000Y3190000D02*
D03*
X2680000D02*
D03*
X2775000Y2565000D02*
D03*
Y2265000D02*
D03*
X2870000D02*
D03*
Y2565000D02*
D03*
X3355000Y2750000D02*
D03*
Y3050000D02*
D03*
X1490591Y3095839D02*
D03*
Y2795839D02*
D03*
X1730000Y70000D02*
D03*
Y370000D02*
D03*
X1345000Y450000D02*
D03*
X1645000D02*
D03*
X1525000Y1032055D02*
D03*
X1825000D02*
D03*
X1883819Y656559D02*
D03*
Y956559D02*
D03*
X2394504Y1819438D02*
D03*
Y1519438D02*
D03*
D33*
X3540000Y1855000D02*
D03*
X3440000D02*
D03*
X3540000Y1955000D02*
D03*
X3440000D02*
D03*
X3540000Y2055000D02*
D03*
X3440000D02*
D03*
X3540000Y2155000D02*
D03*
X3440000D02*
D03*
X3540000Y2255000D02*
D03*
X3440000D02*
D03*
X3540000Y2355000D02*
D03*
X3440000D02*
D03*
X3540000Y2455000D02*
D03*
D34*
X3440000D02*
D03*
D35*
X453424Y3048740D02*
D03*
X855000Y2970000D02*
D03*
D36*
X3240757Y2329243D02*
D03*
X2046449Y3201634D02*
D03*
X3105000Y2335000D02*
D03*
X2455000Y2094000D02*
D03*
X1335000Y1905000D02*
D03*
X1165000Y1915000D02*
D03*
X1175000Y2215000D02*
D03*
X2068326Y2356326D02*
D03*
X1920581Y2557703D02*
D03*
X1915000Y2628000D02*
D03*
X2225000Y2490000D02*
D03*
Y2625000D02*
D03*
Y2555000D02*
D03*
X2225745Y2425142D02*
D03*
X2270000Y2675000D02*
D03*
X2140000Y2320000D02*
D03*
X1860000Y2260000D02*
D03*
X3229458Y2181000D02*
D03*
X2145855Y3084921D02*
D03*
X2270000Y2870000D02*
D03*
X2466547Y1911985D02*
D03*
X2270000Y2740000D02*
D03*
X2259504Y1844438D02*
D03*
X2440407Y2764843D02*
D03*
X1785000Y1770000D02*
D03*
X2270262Y2803368D02*
D03*
X2500000Y2150000D02*
D03*
X2350000Y3015000D02*
D03*
X1885000Y2930000D02*
D03*
X2250000Y3015000D02*
D03*
X2005000Y3115000D02*
D03*
X2400407Y2480000D02*
D03*
X3165000Y2315000D02*
D03*
X1885000Y2995000D02*
D03*
M02*
